G04 #@! TF.GenerationSoftware,KiCad,Pcbnew,9.0.0-9.0.0-2~ubuntu24.04.1*
G04 #@! TF.CreationDate,2025-04-02T19:49:26+02:00*
G04 #@! TF.ProjectId,Teensy_Interface,5465656e-7379-45f4-996e-746572666163,rev?*
G04 #@! TF.SameCoordinates,Original*
G04 #@! TF.FileFunction,Copper,L1,Top*
G04 #@! TF.FilePolarity,Positive*
%FSLAX46Y46*%
G04 Gerber Fmt 4.6, Leading zero omitted, Abs format (unit mm)*
G04 Created by KiCad (PCBNEW 9.0.0-9.0.0-2~ubuntu24.04.1) date 2025-04-02 19:49:26*
%MOMM*%
%LPD*%
G01*
G04 APERTURE LIST*
G04 Aperture macros list*
%AMRoundRect*
0 Rectangle with rounded corners*
0 $1 Rounding radius*
0 $2 $3 $4 $5 $6 $7 $8 $9 X,Y pos of 4 corners*
0 Add a 4 corners polygon primitive as box body*
4,1,4,$2,$3,$4,$5,$6,$7,$8,$9,$2,$3,0*
0 Add four circle primitives for the rounded corners*
1,1,$1+$1,$2,$3*
1,1,$1+$1,$4,$5*
1,1,$1+$1,$6,$7*
1,1,$1+$1,$8,$9*
0 Add four rect primitives between the rounded corners*
20,1,$1+$1,$2,$3,$4,$5,0*
20,1,$1+$1,$4,$5,$6,$7,0*
20,1,$1+$1,$6,$7,$8,$9,0*
20,1,$1+$1,$8,$9,$2,$3,0*%
G04 Aperture macros list end*
G04 #@! TA.AperFunction,ComponentPad*
%ADD10RoundRect,0.381000X0.889000X-0.889000X0.889000X0.889000X-0.889000X0.889000X-0.889000X-0.889000X0*%
G04 #@! TD*
G04 #@! TA.AperFunction,ComponentPad*
%ADD11RoundRect,0.190500X-1.079500X-0.444500X1.079500X-0.444500X1.079500X0.444500X-1.079500X0.444500X0*%
G04 #@! TD*
G04 #@! TA.AperFunction,ComponentPad*
%ADD12RoundRect,0.381000X-0.889000X-0.889000X0.889000X-0.889000X0.889000X0.889000X-0.889000X0.889000X0*%
G04 #@! TD*
G04 #@! TA.AperFunction,Conductor*
%ADD13C,0.500000*%
G04 #@! TD*
G04 #@! TA.AperFunction,Conductor*
%ADD14C,0.250000*%
G04 #@! TD*
G04 APERTURE END LIST*
D10*
X72000000Y-62500000D03*
X77994400Y-62500000D03*
D11*
X86657000Y-51090800D03*
X86657000Y-53630800D03*
X86657000Y-56170800D03*
X86657000Y-58710800D03*
X86657000Y-61250800D03*
X86657000Y-63790800D03*
X86657000Y-66330800D03*
X86657000Y-68870800D03*
X86657000Y-71410800D03*
X86657000Y-73950800D03*
X86657000Y-76490800D03*
X86657000Y-79030800D03*
X86657000Y-81570800D03*
X86657000Y-84110800D03*
X101897000Y-84110800D03*
X101897000Y-81570800D03*
X101897000Y-79030800D03*
X101897000Y-76490800D03*
X101897000Y-73950800D03*
X101897000Y-71410800D03*
X101897000Y-68870800D03*
X101897000Y-66330800D03*
X101897000Y-63790800D03*
X101897000Y-61250800D03*
X101897000Y-58710800D03*
X101897000Y-56170800D03*
X101897000Y-53630800D03*
X101897000Y-51090800D03*
D10*
X72005600Y-80500000D03*
X78000000Y-80500000D03*
X72000000Y-56500000D03*
X77994400Y-56500000D03*
D12*
X106500000Y-63005600D03*
X106500000Y-69000000D03*
D10*
X72005600Y-74500000D03*
X78000000Y-74500000D03*
D12*
X106500000Y-74505600D03*
X106500000Y-80500000D03*
D10*
X72000000Y-68500000D03*
X77994400Y-68500000D03*
D12*
X106500000Y-51505600D03*
X106500000Y-57500000D03*
D13*
X101897000Y-53630800D02*
X104374800Y-53630800D01*
X106500000Y-56000000D02*
X106500000Y-57500000D01*
X104374800Y-53874800D02*
X106500000Y-56000000D01*
X104374800Y-53630800D02*
X106500000Y-51505600D01*
X104374800Y-53630800D02*
X104374800Y-53874800D01*
D14*
X78000000Y-80500000D02*
X81000000Y-80500000D01*
X83750000Y-77750000D02*
X88250000Y-77750000D01*
X92049200Y-73950800D02*
X101897000Y-73950800D01*
X72005600Y-80500000D02*
X78000000Y-80500000D01*
X88250000Y-77750000D02*
X92049200Y-73950800D01*
X81000000Y-80500000D02*
X83750000Y-77750000D01*
X106500000Y-80500000D02*
X106500000Y-74505600D01*
X104514800Y-76490800D02*
X106500000Y-74505600D01*
X105429200Y-81570800D02*
X106500000Y-80500000D01*
X101897000Y-76490800D02*
X104514800Y-76490800D01*
X85249200Y-61250800D02*
X86657000Y-61250800D01*
X79500000Y-74500000D02*
X82500000Y-71500000D01*
X82500000Y-64000000D02*
X85249200Y-61250800D01*
X78000000Y-74500000D02*
X72005600Y-74500000D01*
X82500000Y-71500000D02*
X82500000Y-64000000D01*
X78000000Y-74500000D02*
X79500000Y-74500000D01*
X83869200Y-53630800D02*
X81000000Y-56500000D01*
X81000000Y-56500000D02*
X77994400Y-56500000D01*
X77994400Y-56500000D02*
X72000000Y-56500000D01*
X86657000Y-53630800D02*
X83869200Y-53630800D01*
X79500000Y-62500000D02*
X77994400Y-62500000D01*
X83829200Y-56170800D02*
X80000000Y-60000000D01*
X86657000Y-56170800D02*
X83829200Y-56170800D01*
X77994400Y-62500000D02*
X72000000Y-62500000D01*
X80000000Y-60000000D02*
X80000000Y-62000000D01*
X80000000Y-62000000D02*
X79500000Y-62500000D01*
D13*
X104000000Y-59500000D02*
X104000000Y-66500000D01*
X106500000Y-63005600D02*
X106500000Y-62000000D01*
X104000000Y-66500000D02*
X106500000Y-69000000D01*
X106500000Y-62000000D02*
X104000000Y-59500000D01*
X101897000Y-56170800D02*
X103670800Y-56170800D01*
X103670800Y-56170800D02*
X104000000Y-56500000D01*
X104000000Y-56500000D02*
X104000000Y-59500000D01*
D14*
X72000000Y-68500000D02*
X77994400Y-68500000D01*
X80000000Y-68500000D02*
X81000000Y-67500000D01*
X77994400Y-68500000D02*
X80000000Y-68500000D01*
X84789200Y-58710800D02*
X86657000Y-58710800D01*
X81000000Y-67500000D02*
X81000000Y-62500000D01*
X81000000Y-62500000D02*
X84789200Y-58710800D01*
M02*
