M48
; DRILL file {KiCad 9.0.0-9.0.0-2~ubuntu24.04.1} date 2025-04-02T19:49:25+0200
; FORMAT={-:-/ absolute / metric / decimal}
; #@! TF.CreationDate,2025-04-02T19:49:25+02:00
; #@! TF.GenerationSoftware,Kicad,Pcbnew,9.0.0-9.0.0-2~ubuntu24.04.1
; #@! TF.FileFunction,Plated,1,2,PTH
FMAT,2
METRIC
; #@! TA.AperFunction,Plated,PTH,ComponentDrill
T1C0.800
; #@! TA.AperFunction,Plated,PTH,ComponentDrill
T2C1.000
%
G90
G05
T1
X86.657Y-51.091
X86.657Y-53.631
X86.657Y-56.171
X86.657Y-58.711
X86.657Y-61.251
X86.657Y-63.791
X86.657Y-66.331
X86.657Y-68.871
X86.657Y-71.411
X86.657Y-73.951
X86.657Y-76.491
X86.657Y-79.031
X86.657Y-81.571
X86.657Y-84.111
X101.897Y-51.091
X101.897Y-53.631
X101.897Y-56.171
X101.897Y-58.711
X101.897Y-61.251
X101.897Y-63.791
X101.897Y-66.331
X101.897Y-68.871
X101.897Y-71.411
X101.897Y-73.951
X101.897Y-76.491
X101.897Y-79.031
X101.897Y-81.571
X101.897Y-84.111
T2
X71.75Y-56.5G85X72.25Y-56.5
G05
X71.75Y-62.5G85X72.25Y-62.5
G05
X71.75Y-68.5G85X72.25Y-68.5
G05
X71.756Y-74.5G85X72.256Y-74.5
G05
X71.756Y-80.5G85X72.256Y-80.5
G05
X77.744Y-56.5G85X78.244Y-56.5
G05
X77.744Y-62.5G85X78.244Y-62.5
G05
X77.744Y-68.5G85X78.244Y-68.5
G05
X77.75Y-74.5G85X78.25Y-74.5
G05
X77.75Y-80.5G85X78.25Y-80.5
G05
X106.5Y-51.256G85X106.5Y-51.756
G05
X106.5Y-57.25G85X106.5Y-57.75
G05
X106.5Y-62.756G85X106.5Y-63.256
G05
X106.5Y-68.75G85X106.5Y-69.25
G05
X106.5Y-74.256G85X106.5Y-74.756
G05
X106.5Y-80.25G85X106.5Y-80.75
G05
M30
