%TF.GenerationSoftware,KiCad,Pcbnew,9.0.0-9.0.0-2~ubuntu24.04.1*%
%TF.CreationDate,2025-04-02T19:49:25+02:00*%
%TF.ProjectId,Teensy_Interface,5465656e-7379-45f4-996e-746572666163,rev?*%
%TF.SameCoordinates,Original*%
%TF.FileFunction,Drillmap*%
%TF.FilePolarity,Positive*%
%FSLAX45Y45*%
G04 Gerber Fmt 4.5, Leading zero omitted, Abs format (unit mm)*
G04 Created by KiCad (PCBNEW 9.0.0-9.0.0-2~ubuntu24.04.1) date 2025-04-02 19:49:25*
%MOMM*%
%LPD*%
G01*
G04 APERTURE LIST*
%ADD10C,0.050000*%
%ADD11C,0.200000*%
%ADD12C,0.100000*%
G04 APERTURE END LIST*
D10*
X7350000Y-8500000D02*
G75*
G02*
X7050000Y-8500000I-150000J0D01*
G01*
X7050000Y-8500000D02*
G75*
G02*
X7350000Y-8500000I150000J0D01*
G01*
X10850000Y-8500000D02*
G75*
G02*
X10550000Y-8500000I-150000J0D01*
G01*
X10550000Y-8500000D02*
G75*
G02*
X10850000Y-8500000I150000J0D01*
G01*
X6950000Y-4750000D02*
X10950000Y-4750000D01*
X10950000Y-8750000D01*
X6950000Y-8750000D01*
X6950000Y-4750000D01*
X7350000Y-5000000D02*
G75*
G02*
X7050000Y-5000000I-150000J0D01*
G01*
X7050000Y-5000000D02*
G75*
G02*
X7350000Y-5000000I150000J0D01*
G01*
D11*
D12*
X8625700Y-5069080D02*
X8705700Y-5149080D01*
X8705700Y-5069080D02*
X8625700Y-5149080D01*
X8625700Y-5323080D02*
X8705700Y-5403080D01*
X8705700Y-5323080D02*
X8625700Y-5403080D01*
X8625700Y-5577080D02*
X8705700Y-5657080D01*
X8705700Y-5577080D02*
X8625700Y-5657080D01*
X8625700Y-5831080D02*
X8705700Y-5911080D01*
X8705700Y-5831080D02*
X8625700Y-5911080D01*
X8625700Y-6085080D02*
X8705700Y-6165080D01*
X8705700Y-6085080D02*
X8625700Y-6165080D01*
X8625700Y-6339080D02*
X8705700Y-6419080D01*
X8705700Y-6339080D02*
X8625700Y-6419080D01*
X8625700Y-6593080D02*
X8705700Y-6673080D01*
X8705700Y-6593080D02*
X8625700Y-6673080D01*
X8625700Y-6847080D02*
X8705700Y-6927080D01*
X8705700Y-6847080D02*
X8625700Y-6927080D01*
X8625700Y-7101080D02*
X8705700Y-7181080D01*
X8705700Y-7101080D02*
X8625700Y-7181080D01*
X8625700Y-7355080D02*
X8705700Y-7435080D01*
X8705700Y-7355080D02*
X8625700Y-7435080D01*
X8625700Y-7609080D02*
X8705700Y-7689080D01*
X8705700Y-7609080D02*
X8625700Y-7689080D01*
X8625700Y-7863080D02*
X8705700Y-7943080D01*
X8705700Y-7863080D02*
X8625700Y-7943080D01*
X8625700Y-8117080D02*
X8705700Y-8197080D01*
X8705700Y-8117080D02*
X8625700Y-8197080D01*
X8625700Y-8371080D02*
X8705700Y-8451080D01*
X8705700Y-8371080D02*
X8625700Y-8451080D01*
X10149700Y-5069080D02*
X10229700Y-5149080D01*
X10229700Y-5069080D02*
X10149700Y-5149080D01*
X10149700Y-5323080D02*
X10229700Y-5403080D01*
X10229700Y-5323080D02*
X10149700Y-5403080D01*
X10149700Y-5577080D02*
X10229700Y-5657080D01*
X10229700Y-5577080D02*
X10149700Y-5657080D01*
X10149700Y-5831080D02*
X10229700Y-5911080D01*
X10229700Y-5831080D02*
X10149700Y-5911080D01*
X10149700Y-6085080D02*
X10229700Y-6165080D01*
X10229700Y-6085080D02*
X10149700Y-6165080D01*
X10149700Y-6339080D02*
X10229700Y-6419080D01*
X10229700Y-6339080D02*
X10149700Y-6419080D01*
X10149700Y-6593080D02*
X10229700Y-6673080D01*
X10229700Y-6593080D02*
X10149700Y-6673080D01*
X10149700Y-6847080D02*
X10229700Y-6927080D01*
X10229700Y-6847080D02*
X10149700Y-6927080D01*
X10149700Y-7101080D02*
X10229700Y-7181080D01*
X10229700Y-7101080D02*
X10149700Y-7181080D01*
X10149700Y-7355080D02*
X10229700Y-7435080D01*
X10229700Y-7355080D02*
X10149700Y-7435080D01*
X10149700Y-7609080D02*
X10229700Y-7689080D01*
X10229700Y-7609080D02*
X10149700Y-7689080D01*
X10149700Y-7863080D02*
X10229700Y-7943080D01*
X10229700Y-7863080D02*
X10149700Y-7943080D01*
X10149700Y-8117080D02*
X10229700Y-8197080D01*
X10229700Y-8117080D02*
X10149700Y-8197080D01*
X10149700Y-8371080D02*
X10229700Y-8451080D01*
X10229700Y-8371080D02*
X10149700Y-8451080D01*
X7250000Y-5650000D02*
G75*
G02*
X7150000Y-5650000I-50000J0D01*
G01*
X7150000Y-5650000D02*
G75*
G02*
X7250000Y-5650000I50000J0D01*
G01*
X7175000Y-5700000D02*
X7225000Y-5700000D01*
X7225000Y-5600000D02*
G75*
G02*
X7225000Y-5700000I0J-50000D01*
G01*
X7225000Y-5600000D02*
X7175000Y-5600000D01*
X7175000Y-5600000D02*
G75*
G03*
X7175000Y-5700000I0J-50000D01*
G01*
X7250000Y-6250000D02*
G75*
G02*
X7150000Y-6250000I-50000J0D01*
G01*
X7150000Y-6250000D02*
G75*
G02*
X7250000Y-6250000I50000J0D01*
G01*
X7175000Y-6300000D02*
X7225000Y-6300000D01*
X7225000Y-6200000D02*
G75*
G02*
X7225000Y-6300000I0J-50000D01*
G01*
X7225000Y-6200000D02*
X7175000Y-6200000D01*
X7175000Y-6200000D02*
G75*
G03*
X7175000Y-6300000I0J-50000D01*
G01*
X7250000Y-6850000D02*
G75*
G02*
X7150000Y-6850000I-50000J0D01*
G01*
X7150000Y-6850000D02*
G75*
G02*
X7250000Y-6850000I50000J0D01*
G01*
X7175000Y-6900000D02*
X7225000Y-6900000D01*
X7225000Y-6800000D02*
G75*
G02*
X7225000Y-6900000I0J-50000D01*
G01*
X7225000Y-6800000D02*
X7175000Y-6800000D01*
X7175000Y-6800000D02*
G75*
G03*
X7175000Y-6900000I0J-50000D01*
G01*
X7250560Y-7450000D02*
G75*
G02*
X7150560Y-7450000I-50000J0D01*
G01*
X7150560Y-7450000D02*
G75*
G02*
X7250560Y-7450000I50000J0D01*
G01*
X7175560Y-7500000D02*
X7225560Y-7500000D01*
X7225560Y-7400000D02*
G75*
G02*
X7225560Y-7500000I0J-50000D01*
G01*
X7225560Y-7400000D02*
X7175560Y-7400000D01*
X7175560Y-7400000D02*
G75*
G03*
X7175560Y-7500000I0J-50000D01*
G01*
X7250560Y-8050000D02*
G75*
G02*
X7150560Y-8050000I-50000J0D01*
G01*
X7150560Y-8050000D02*
G75*
G02*
X7250560Y-8050000I50000J0D01*
G01*
X7175560Y-8100000D02*
X7225560Y-8100000D01*
X7225560Y-8000000D02*
G75*
G02*
X7225560Y-8100000I0J-50000D01*
G01*
X7225560Y-8000000D02*
X7175560Y-8000000D01*
X7175560Y-8000000D02*
G75*
G03*
X7175560Y-8100000I0J-50000D01*
G01*
X7849440Y-5650000D02*
G75*
G02*
X7749440Y-5650000I-50000J0D01*
G01*
X7749440Y-5650000D02*
G75*
G02*
X7849440Y-5650000I50000J0D01*
G01*
X7774440Y-5700000D02*
X7824440Y-5700000D01*
X7824440Y-5600000D02*
G75*
G02*
X7824440Y-5700000I0J-50000D01*
G01*
X7824440Y-5600000D02*
X7774440Y-5600000D01*
X7774440Y-5600000D02*
G75*
G03*
X7774440Y-5700000I0J-50000D01*
G01*
X7849440Y-6250000D02*
G75*
G02*
X7749440Y-6250000I-50000J0D01*
G01*
X7749440Y-6250000D02*
G75*
G02*
X7849440Y-6250000I50000J0D01*
G01*
X7774440Y-6300000D02*
X7824440Y-6300000D01*
X7824440Y-6200000D02*
G75*
G02*
X7824440Y-6300000I0J-50000D01*
G01*
X7824440Y-6200000D02*
X7774440Y-6200000D01*
X7774440Y-6200000D02*
G75*
G03*
X7774440Y-6300000I0J-50000D01*
G01*
X7849440Y-6850000D02*
G75*
G02*
X7749440Y-6850000I-50000J0D01*
G01*
X7749440Y-6850000D02*
G75*
G02*
X7849440Y-6850000I50000J0D01*
G01*
X7774440Y-6900000D02*
X7824440Y-6900000D01*
X7824440Y-6800000D02*
G75*
G02*
X7824440Y-6900000I0J-50000D01*
G01*
X7824440Y-6800000D02*
X7774440Y-6800000D01*
X7774440Y-6800000D02*
G75*
G03*
X7774440Y-6900000I0J-50000D01*
G01*
X7850000Y-7450000D02*
G75*
G02*
X7750000Y-7450000I-50000J0D01*
G01*
X7750000Y-7450000D02*
G75*
G02*
X7850000Y-7450000I50000J0D01*
G01*
X7775000Y-7500000D02*
X7825000Y-7500000D01*
X7825000Y-7400000D02*
G75*
G02*
X7825000Y-7500000I0J-50000D01*
G01*
X7825000Y-7400000D02*
X7775000Y-7400000D01*
X7775000Y-7400000D02*
G75*
G03*
X7775000Y-7500000I0J-50000D01*
G01*
X7850000Y-8050000D02*
G75*
G02*
X7750000Y-8050000I-50000J0D01*
G01*
X7750000Y-8050000D02*
G75*
G02*
X7850000Y-8050000I50000J0D01*
G01*
X7775000Y-8100000D02*
X7825000Y-8100000D01*
X7825000Y-8000000D02*
G75*
G02*
X7825000Y-8100000I0J-50000D01*
G01*
X7825000Y-8000000D02*
X7775000Y-8000000D01*
X7775000Y-8000000D02*
G75*
G03*
X7775000Y-8100000I0J-50000D01*
G01*
X10700000Y-5150560D02*
G75*
G02*
X10600000Y-5150560I-50000J0D01*
G01*
X10600000Y-5150560D02*
G75*
G02*
X10700000Y-5150560I50000J0D01*
G01*
X10600000Y-5125560D02*
X10600000Y-5175560D01*
X10700000Y-5175560D02*
G75*
G02*
X10600000Y-5175560I-50000J0D01*
G01*
X10700000Y-5175560D02*
X10700000Y-5125560D01*
X10700000Y-5125560D02*
G75*
G03*
X10600000Y-5125560I-50000J0D01*
G01*
X10700000Y-5750000D02*
G75*
G02*
X10600000Y-5750000I-50000J0D01*
G01*
X10600000Y-5750000D02*
G75*
G02*
X10700000Y-5750000I50000J0D01*
G01*
X10600000Y-5725000D02*
X10600000Y-5775000D01*
X10700000Y-5775000D02*
G75*
G02*
X10600000Y-5775000I-50000J0D01*
G01*
X10700000Y-5775000D02*
X10700000Y-5725000D01*
X10700000Y-5725000D02*
G75*
G03*
X10600000Y-5725000I-50000J0D01*
G01*
X10700000Y-6300560D02*
G75*
G02*
X10600000Y-6300560I-50000J0D01*
G01*
X10600000Y-6300560D02*
G75*
G02*
X10700000Y-6300560I50000J0D01*
G01*
X10600000Y-6275560D02*
X10600000Y-6325560D01*
X10700000Y-6325560D02*
G75*
G02*
X10600000Y-6325560I-50000J0D01*
G01*
X10700000Y-6325560D02*
X10700000Y-6275560D01*
X10700000Y-6275560D02*
G75*
G03*
X10600000Y-6275560I-50000J0D01*
G01*
X10700000Y-6900000D02*
G75*
G02*
X10600000Y-6900000I-50000J0D01*
G01*
X10600000Y-6900000D02*
G75*
G02*
X10700000Y-6900000I50000J0D01*
G01*
X10600000Y-6875000D02*
X10600000Y-6925000D01*
X10700000Y-6925000D02*
G75*
G02*
X10600000Y-6925000I-50000J0D01*
G01*
X10700000Y-6925000D02*
X10700000Y-6875000D01*
X10700000Y-6875000D02*
G75*
G03*
X10600000Y-6875000I-50000J0D01*
G01*
X10700000Y-7450560D02*
G75*
G02*
X10600000Y-7450560I-50000J0D01*
G01*
X10600000Y-7450560D02*
G75*
G02*
X10700000Y-7450560I50000J0D01*
G01*
X10600000Y-7425560D02*
X10600000Y-7475560D01*
X10700000Y-7475560D02*
G75*
G02*
X10600000Y-7475560I-50000J0D01*
G01*
X10700000Y-7475560D02*
X10700000Y-7425560D01*
X10700000Y-7425560D02*
G75*
G03*
X10600000Y-7425560I-50000J0D01*
G01*
X10700000Y-8050000D02*
G75*
G02*
X10600000Y-8050000I-50000J0D01*
G01*
X10600000Y-8050000D02*
G75*
G02*
X10700000Y-8050000I50000J0D01*
G01*
X10600000Y-8025000D02*
X10600000Y-8075000D01*
X10700000Y-8075000D02*
G75*
G02*
X10600000Y-8075000I-50000J0D01*
G01*
X10700000Y-8075000D02*
X10700000Y-8025000D01*
X10700000Y-8025000D02*
G75*
G03*
X10600000Y-8025000I-50000J0D01*
G01*
D11*
X7208277Y-9063984D02*
X7208277Y-8863984D01*
X7208277Y-8863984D02*
X7255896Y-8863984D01*
X7255896Y-8863984D02*
X7284467Y-8873508D01*
X7284467Y-8873508D02*
X7303515Y-8892555D01*
X7303515Y-8892555D02*
X7313039Y-8911603D01*
X7313039Y-8911603D02*
X7322562Y-8949698D01*
X7322562Y-8949698D02*
X7322562Y-8978270D01*
X7322562Y-8978270D02*
X7313039Y-9016365D01*
X7313039Y-9016365D02*
X7303515Y-9035412D01*
X7303515Y-9035412D02*
X7284467Y-9054460D01*
X7284467Y-9054460D02*
X7255896Y-9063984D01*
X7255896Y-9063984D02*
X7208277Y-9063984D01*
X7408277Y-9063984D02*
X7408277Y-8930650D01*
X7408277Y-8968746D02*
X7417801Y-8949698D01*
X7417801Y-8949698D02*
X7427324Y-8940174D01*
X7427324Y-8940174D02*
X7446372Y-8930650D01*
X7446372Y-8930650D02*
X7465420Y-8930650D01*
X7532086Y-9063984D02*
X7532086Y-8930650D01*
X7532086Y-8863984D02*
X7522562Y-8873508D01*
X7522562Y-8873508D02*
X7532086Y-8883031D01*
X7532086Y-8883031D02*
X7541610Y-8873508D01*
X7541610Y-8873508D02*
X7532086Y-8863984D01*
X7532086Y-8863984D02*
X7532086Y-8883031D01*
X7655896Y-9063984D02*
X7636848Y-9054460D01*
X7636848Y-9054460D02*
X7627324Y-9035412D01*
X7627324Y-9035412D02*
X7627324Y-8863984D01*
X7760658Y-9063984D02*
X7741610Y-9054460D01*
X7741610Y-9054460D02*
X7732086Y-9035412D01*
X7732086Y-9035412D02*
X7732086Y-8863984D01*
X7989229Y-9063984D02*
X7989229Y-8863984D01*
X7989229Y-8863984D02*
X8055896Y-9006841D01*
X8055896Y-9006841D02*
X8122562Y-8863984D01*
X8122562Y-8863984D02*
X8122562Y-9063984D01*
X8303515Y-9063984D02*
X8303515Y-8959222D01*
X8303515Y-8959222D02*
X8293991Y-8940174D01*
X8293991Y-8940174D02*
X8274943Y-8930650D01*
X8274943Y-8930650D02*
X8236848Y-8930650D01*
X8236848Y-8930650D02*
X8217801Y-8940174D01*
X8303515Y-9054460D02*
X8284467Y-9063984D01*
X8284467Y-9063984D02*
X8236848Y-9063984D01*
X8236848Y-9063984D02*
X8217801Y-9054460D01*
X8217801Y-9054460D02*
X8208277Y-9035412D01*
X8208277Y-9035412D02*
X8208277Y-9016365D01*
X8208277Y-9016365D02*
X8217801Y-8997317D01*
X8217801Y-8997317D02*
X8236848Y-8987793D01*
X8236848Y-8987793D02*
X8284467Y-8987793D01*
X8284467Y-8987793D02*
X8303515Y-8978270D01*
X8398753Y-8930650D02*
X8398753Y-9130650D01*
X8398753Y-8940174D02*
X8417801Y-8930650D01*
X8417801Y-8930650D02*
X8455896Y-8930650D01*
X8455896Y-8930650D02*
X8474944Y-8940174D01*
X8474944Y-8940174D02*
X8484467Y-8949698D01*
X8484467Y-8949698D02*
X8493991Y-8968746D01*
X8493991Y-8968746D02*
X8493991Y-9025889D01*
X8493991Y-9025889D02*
X8484467Y-9044936D01*
X8484467Y-9044936D02*
X8474944Y-9054460D01*
X8474944Y-9054460D02*
X8455896Y-9063984D01*
X8455896Y-9063984D02*
X8417801Y-9063984D01*
X8417801Y-9063984D02*
X8398753Y-9054460D01*
X8579705Y-9044936D02*
X8589229Y-9054460D01*
X8589229Y-9054460D02*
X8579705Y-9063984D01*
X8579705Y-9063984D02*
X8570182Y-9054460D01*
X8570182Y-9054460D02*
X8579705Y-9044936D01*
X8579705Y-9044936D02*
X8579705Y-9063984D01*
X8579705Y-8940174D02*
X8589229Y-8949698D01*
X8589229Y-8949698D02*
X8579705Y-8959222D01*
X8579705Y-8959222D02*
X8570182Y-8949698D01*
X8570182Y-8949698D02*
X8579705Y-8940174D01*
X8579705Y-8940174D02*
X8579705Y-8959222D01*
D12*
X6867500Y-9352500D02*
X6947500Y-9432500D01*
X6947500Y-9352500D02*
X6867500Y-9432500D01*
D11*
X7246372Y-9283984D02*
X7265420Y-9283984D01*
X7265420Y-9283984D02*
X7284467Y-9293508D01*
X7284467Y-9293508D02*
X7293991Y-9303031D01*
X7293991Y-9303031D02*
X7303515Y-9322079D01*
X7303515Y-9322079D02*
X7313039Y-9360174D01*
X7313039Y-9360174D02*
X7313039Y-9407793D01*
X7313039Y-9407793D02*
X7303515Y-9445889D01*
X7303515Y-9445889D02*
X7293991Y-9464936D01*
X7293991Y-9464936D02*
X7284467Y-9474460D01*
X7284467Y-9474460D02*
X7265420Y-9483984D01*
X7265420Y-9483984D02*
X7246372Y-9483984D01*
X7246372Y-9483984D02*
X7227324Y-9474460D01*
X7227324Y-9474460D02*
X7217801Y-9464936D01*
X7217801Y-9464936D02*
X7208277Y-9445889D01*
X7208277Y-9445889D02*
X7198753Y-9407793D01*
X7198753Y-9407793D02*
X7198753Y-9360174D01*
X7198753Y-9360174D02*
X7208277Y-9322079D01*
X7208277Y-9322079D02*
X7217801Y-9303031D01*
X7217801Y-9303031D02*
X7227324Y-9293508D01*
X7227324Y-9293508D02*
X7246372Y-9283984D01*
X7398753Y-9464936D02*
X7408277Y-9474460D01*
X7408277Y-9474460D02*
X7398753Y-9483984D01*
X7398753Y-9483984D02*
X7389229Y-9474460D01*
X7389229Y-9474460D02*
X7398753Y-9464936D01*
X7398753Y-9464936D02*
X7398753Y-9483984D01*
X7522562Y-9369698D02*
X7503515Y-9360174D01*
X7503515Y-9360174D02*
X7493991Y-9350650D01*
X7493991Y-9350650D02*
X7484467Y-9331603D01*
X7484467Y-9331603D02*
X7484467Y-9322079D01*
X7484467Y-9322079D02*
X7493991Y-9303031D01*
X7493991Y-9303031D02*
X7503515Y-9293508D01*
X7503515Y-9293508D02*
X7522562Y-9283984D01*
X7522562Y-9283984D02*
X7560658Y-9283984D01*
X7560658Y-9283984D02*
X7579705Y-9293508D01*
X7579705Y-9293508D02*
X7589229Y-9303031D01*
X7589229Y-9303031D02*
X7598753Y-9322079D01*
X7598753Y-9322079D02*
X7598753Y-9331603D01*
X7598753Y-9331603D02*
X7589229Y-9350650D01*
X7589229Y-9350650D02*
X7579705Y-9360174D01*
X7579705Y-9360174D02*
X7560658Y-9369698D01*
X7560658Y-9369698D02*
X7522562Y-9369698D01*
X7522562Y-9369698D02*
X7503515Y-9379222D01*
X7503515Y-9379222D02*
X7493991Y-9388746D01*
X7493991Y-9388746D02*
X7484467Y-9407793D01*
X7484467Y-9407793D02*
X7484467Y-9445889D01*
X7484467Y-9445889D02*
X7493991Y-9464936D01*
X7493991Y-9464936D02*
X7503515Y-9474460D01*
X7503515Y-9474460D02*
X7522562Y-9483984D01*
X7522562Y-9483984D02*
X7560658Y-9483984D01*
X7560658Y-9483984D02*
X7579705Y-9474460D01*
X7579705Y-9474460D02*
X7589229Y-9464936D01*
X7589229Y-9464936D02*
X7598753Y-9445889D01*
X7598753Y-9445889D02*
X7598753Y-9407793D01*
X7598753Y-9407793D02*
X7589229Y-9388746D01*
X7589229Y-9388746D02*
X7579705Y-9379222D01*
X7579705Y-9379222D02*
X7560658Y-9369698D01*
X7722562Y-9283984D02*
X7741610Y-9283984D01*
X7741610Y-9283984D02*
X7760658Y-9293508D01*
X7760658Y-9293508D02*
X7770182Y-9303031D01*
X7770182Y-9303031D02*
X7779705Y-9322079D01*
X7779705Y-9322079D02*
X7789229Y-9360174D01*
X7789229Y-9360174D02*
X7789229Y-9407793D01*
X7789229Y-9407793D02*
X7779705Y-9445889D01*
X7779705Y-9445889D02*
X7770182Y-9464936D01*
X7770182Y-9464936D02*
X7760658Y-9474460D01*
X7760658Y-9474460D02*
X7741610Y-9483984D01*
X7741610Y-9483984D02*
X7722562Y-9483984D01*
X7722562Y-9483984D02*
X7703515Y-9474460D01*
X7703515Y-9474460D02*
X7693991Y-9464936D01*
X7693991Y-9464936D02*
X7684467Y-9445889D01*
X7684467Y-9445889D02*
X7674943Y-9407793D01*
X7674943Y-9407793D02*
X7674943Y-9360174D01*
X7674943Y-9360174D02*
X7684467Y-9322079D01*
X7684467Y-9322079D02*
X7693991Y-9303031D01*
X7693991Y-9303031D02*
X7703515Y-9293508D01*
X7703515Y-9293508D02*
X7722562Y-9283984D01*
X7913039Y-9283984D02*
X7932086Y-9283984D01*
X7932086Y-9283984D02*
X7951134Y-9293508D01*
X7951134Y-9293508D02*
X7960658Y-9303031D01*
X7960658Y-9303031D02*
X7970182Y-9322079D01*
X7970182Y-9322079D02*
X7979705Y-9360174D01*
X7979705Y-9360174D02*
X7979705Y-9407793D01*
X7979705Y-9407793D02*
X7970182Y-9445889D01*
X7970182Y-9445889D02*
X7960658Y-9464936D01*
X7960658Y-9464936D02*
X7951134Y-9474460D01*
X7951134Y-9474460D02*
X7932086Y-9483984D01*
X7932086Y-9483984D02*
X7913039Y-9483984D01*
X7913039Y-9483984D02*
X7893991Y-9474460D01*
X7893991Y-9474460D02*
X7884467Y-9464936D01*
X7884467Y-9464936D02*
X7874943Y-9445889D01*
X7874943Y-9445889D02*
X7865420Y-9407793D01*
X7865420Y-9407793D02*
X7865420Y-9360174D01*
X7865420Y-9360174D02*
X7874943Y-9322079D01*
X7874943Y-9322079D02*
X7884467Y-9303031D01*
X7884467Y-9303031D02*
X7893991Y-9293508D01*
X7893991Y-9293508D02*
X7913039Y-9283984D01*
X8065420Y-9483984D02*
X8065420Y-9350650D01*
X8065420Y-9369698D02*
X8074943Y-9360174D01*
X8074943Y-9360174D02*
X8093991Y-9350650D01*
X8093991Y-9350650D02*
X8122563Y-9350650D01*
X8122563Y-9350650D02*
X8141610Y-9360174D01*
X8141610Y-9360174D02*
X8151134Y-9379222D01*
X8151134Y-9379222D02*
X8151134Y-9483984D01*
X8151134Y-9379222D02*
X8160658Y-9360174D01*
X8160658Y-9360174D02*
X8179705Y-9350650D01*
X8179705Y-9350650D02*
X8208277Y-9350650D01*
X8208277Y-9350650D02*
X8227324Y-9360174D01*
X8227324Y-9360174D02*
X8236848Y-9379222D01*
X8236848Y-9379222D02*
X8236848Y-9483984D01*
X8332086Y-9483984D02*
X8332086Y-9350650D01*
X8332086Y-9369698D02*
X8341610Y-9360174D01*
X8341610Y-9360174D02*
X8360658Y-9350650D01*
X8360658Y-9350650D02*
X8389229Y-9350650D01*
X8389229Y-9350650D02*
X8408277Y-9360174D01*
X8408277Y-9360174D02*
X8417801Y-9379222D01*
X8417801Y-9379222D02*
X8417801Y-9483984D01*
X8417801Y-9379222D02*
X8427325Y-9360174D01*
X8427325Y-9360174D02*
X8446372Y-9350650D01*
X8446372Y-9350650D02*
X8474944Y-9350650D01*
X8474944Y-9350650D02*
X8493991Y-9360174D01*
X8493991Y-9360174D02*
X8503515Y-9379222D01*
X8503515Y-9379222D02*
X8503515Y-9483984D01*
X8893991Y-9274460D02*
X8722563Y-9531603D01*
X9151134Y-9283984D02*
X9170182Y-9283984D01*
X9170182Y-9283984D02*
X9189229Y-9293508D01*
X9189229Y-9293508D02*
X9198753Y-9303031D01*
X9198753Y-9303031D02*
X9208277Y-9322079D01*
X9208277Y-9322079D02*
X9217801Y-9360174D01*
X9217801Y-9360174D02*
X9217801Y-9407793D01*
X9217801Y-9407793D02*
X9208277Y-9445889D01*
X9208277Y-9445889D02*
X9198753Y-9464936D01*
X9198753Y-9464936D02*
X9189229Y-9474460D01*
X9189229Y-9474460D02*
X9170182Y-9483984D01*
X9170182Y-9483984D02*
X9151134Y-9483984D01*
X9151134Y-9483984D02*
X9132087Y-9474460D01*
X9132087Y-9474460D02*
X9122563Y-9464936D01*
X9122563Y-9464936D02*
X9113039Y-9445889D01*
X9113039Y-9445889D02*
X9103515Y-9407793D01*
X9103515Y-9407793D02*
X9103515Y-9360174D01*
X9103515Y-9360174D02*
X9113039Y-9322079D01*
X9113039Y-9322079D02*
X9122563Y-9303031D01*
X9122563Y-9303031D02*
X9132087Y-9293508D01*
X9132087Y-9293508D02*
X9151134Y-9283984D01*
X9303515Y-9464936D02*
X9313039Y-9474460D01*
X9313039Y-9474460D02*
X9303515Y-9483984D01*
X9303515Y-9483984D02*
X9293991Y-9474460D01*
X9293991Y-9474460D02*
X9303515Y-9464936D01*
X9303515Y-9464936D02*
X9303515Y-9483984D01*
X9436848Y-9283984D02*
X9455896Y-9283984D01*
X9455896Y-9283984D02*
X9474944Y-9293508D01*
X9474944Y-9293508D02*
X9484468Y-9303031D01*
X9484468Y-9303031D02*
X9493991Y-9322079D01*
X9493991Y-9322079D02*
X9503515Y-9360174D01*
X9503515Y-9360174D02*
X9503515Y-9407793D01*
X9503515Y-9407793D02*
X9493991Y-9445889D01*
X9493991Y-9445889D02*
X9484468Y-9464936D01*
X9484468Y-9464936D02*
X9474944Y-9474460D01*
X9474944Y-9474460D02*
X9455896Y-9483984D01*
X9455896Y-9483984D02*
X9436848Y-9483984D01*
X9436848Y-9483984D02*
X9417801Y-9474460D01*
X9417801Y-9474460D02*
X9408277Y-9464936D01*
X9408277Y-9464936D02*
X9398753Y-9445889D01*
X9398753Y-9445889D02*
X9389229Y-9407793D01*
X9389229Y-9407793D02*
X9389229Y-9360174D01*
X9389229Y-9360174D02*
X9398753Y-9322079D01*
X9398753Y-9322079D02*
X9408277Y-9303031D01*
X9408277Y-9303031D02*
X9417801Y-9293508D01*
X9417801Y-9293508D02*
X9436848Y-9283984D01*
X9570182Y-9283984D02*
X9693991Y-9283984D01*
X9693991Y-9283984D02*
X9627325Y-9360174D01*
X9627325Y-9360174D02*
X9655896Y-9360174D01*
X9655896Y-9360174D02*
X9674944Y-9369698D01*
X9674944Y-9369698D02*
X9684468Y-9379222D01*
X9684468Y-9379222D02*
X9693991Y-9398270D01*
X9693991Y-9398270D02*
X9693991Y-9445889D01*
X9693991Y-9445889D02*
X9684468Y-9464936D01*
X9684468Y-9464936D02*
X9674944Y-9474460D01*
X9674944Y-9474460D02*
X9655896Y-9483984D01*
X9655896Y-9483984D02*
X9598753Y-9483984D01*
X9598753Y-9483984D02*
X9579706Y-9474460D01*
X9579706Y-9474460D02*
X9570182Y-9464936D01*
X9884468Y-9483984D02*
X9770182Y-9483984D01*
X9827325Y-9483984D02*
X9827325Y-9283984D01*
X9827325Y-9283984D02*
X9808277Y-9312555D01*
X9808277Y-9312555D02*
X9789229Y-9331603D01*
X9789229Y-9331603D02*
X9770182Y-9341127D01*
X10065420Y-9283984D02*
X9970182Y-9283984D01*
X9970182Y-9283984D02*
X9960658Y-9379222D01*
X9960658Y-9379222D02*
X9970182Y-9369698D01*
X9970182Y-9369698D02*
X9989229Y-9360174D01*
X9989229Y-9360174D02*
X10036849Y-9360174D01*
X10036849Y-9360174D02*
X10055896Y-9369698D01*
X10055896Y-9369698D02*
X10065420Y-9379222D01*
X10065420Y-9379222D02*
X10074944Y-9398270D01*
X10074944Y-9398270D02*
X10074944Y-9445889D01*
X10074944Y-9445889D02*
X10065420Y-9464936D01*
X10065420Y-9464936D02*
X10055896Y-9474460D01*
X10055896Y-9474460D02*
X10036849Y-9483984D01*
X10036849Y-9483984D02*
X9989229Y-9483984D01*
X9989229Y-9483984D02*
X9970182Y-9474460D01*
X9970182Y-9474460D02*
X9960658Y-9464936D01*
X10151134Y-9283984D02*
X10151134Y-9322079D01*
X10227325Y-9283984D02*
X10227325Y-9322079D01*
X10522563Y-9560174D02*
X10513039Y-9550650D01*
X10513039Y-9550650D02*
X10493991Y-9522079D01*
X10493991Y-9522079D02*
X10484468Y-9503031D01*
X10484468Y-9503031D02*
X10474944Y-9474460D01*
X10474944Y-9474460D02*
X10465420Y-9426841D01*
X10465420Y-9426841D02*
X10465420Y-9388746D01*
X10465420Y-9388746D02*
X10474944Y-9341127D01*
X10474944Y-9341127D02*
X10484468Y-9312555D01*
X10484468Y-9312555D02*
X10493991Y-9293508D01*
X10493991Y-9293508D02*
X10513039Y-9264936D01*
X10513039Y-9264936D02*
X10522563Y-9255412D01*
X10589230Y-9303031D02*
X10598753Y-9293508D01*
X10598753Y-9293508D02*
X10617801Y-9283984D01*
X10617801Y-9283984D02*
X10665420Y-9283984D01*
X10665420Y-9283984D02*
X10684468Y-9293508D01*
X10684468Y-9293508D02*
X10693991Y-9303031D01*
X10693991Y-9303031D02*
X10703515Y-9322079D01*
X10703515Y-9322079D02*
X10703515Y-9341127D01*
X10703515Y-9341127D02*
X10693991Y-9369698D01*
X10693991Y-9369698D02*
X10579706Y-9483984D01*
X10579706Y-9483984D02*
X10703515Y-9483984D01*
X10817801Y-9369698D02*
X10798753Y-9360174D01*
X10798753Y-9360174D02*
X10789230Y-9350650D01*
X10789230Y-9350650D02*
X10779706Y-9331603D01*
X10779706Y-9331603D02*
X10779706Y-9322079D01*
X10779706Y-9322079D02*
X10789230Y-9303031D01*
X10789230Y-9303031D02*
X10798753Y-9293508D01*
X10798753Y-9293508D02*
X10817801Y-9283984D01*
X10817801Y-9283984D02*
X10855896Y-9283984D01*
X10855896Y-9283984D02*
X10874944Y-9293508D01*
X10874944Y-9293508D02*
X10884468Y-9303031D01*
X10884468Y-9303031D02*
X10893991Y-9322079D01*
X10893991Y-9322079D02*
X10893991Y-9331603D01*
X10893991Y-9331603D02*
X10884468Y-9350650D01*
X10884468Y-9350650D02*
X10874944Y-9360174D01*
X10874944Y-9360174D02*
X10855896Y-9369698D01*
X10855896Y-9369698D02*
X10817801Y-9369698D01*
X10817801Y-9369698D02*
X10798753Y-9379222D01*
X10798753Y-9379222D02*
X10789230Y-9388746D01*
X10789230Y-9388746D02*
X10779706Y-9407793D01*
X10779706Y-9407793D02*
X10779706Y-9445889D01*
X10779706Y-9445889D02*
X10789230Y-9464936D01*
X10789230Y-9464936D02*
X10798753Y-9474460D01*
X10798753Y-9474460D02*
X10817801Y-9483984D01*
X10817801Y-9483984D02*
X10855896Y-9483984D01*
X10855896Y-9483984D02*
X10874944Y-9474460D01*
X10874944Y-9474460D02*
X10884468Y-9464936D01*
X10884468Y-9464936D02*
X10893991Y-9445889D01*
X10893991Y-9445889D02*
X10893991Y-9407793D01*
X10893991Y-9407793D02*
X10884468Y-9388746D01*
X10884468Y-9388746D02*
X10874944Y-9379222D01*
X10874944Y-9379222D02*
X10855896Y-9369698D01*
X11132087Y-9483984D02*
X11132087Y-9283984D01*
X11217801Y-9483984D02*
X11217801Y-9379222D01*
X11217801Y-9379222D02*
X11208277Y-9360174D01*
X11208277Y-9360174D02*
X11189230Y-9350650D01*
X11189230Y-9350650D02*
X11160658Y-9350650D01*
X11160658Y-9350650D02*
X11141611Y-9360174D01*
X11141611Y-9360174D02*
X11132087Y-9369698D01*
X11341610Y-9483984D02*
X11322563Y-9474460D01*
X11322563Y-9474460D02*
X11313039Y-9464936D01*
X11313039Y-9464936D02*
X11303515Y-9445889D01*
X11303515Y-9445889D02*
X11303515Y-9388746D01*
X11303515Y-9388746D02*
X11313039Y-9369698D01*
X11313039Y-9369698D02*
X11322563Y-9360174D01*
X11322563Y-9360174D02*
X11341610Y-9350650D01*
X11341610Y-9350650D02*
X11370182Y-9350650D01*
X11370182Y-9350650D02*
X11389230Y-9360174D01*
X11389230Y-9360174D02*
X11398753Y-9369698D01*
X11398753Y-9369698D02*
X11408277Y-9388746D01*
X11408277Y-9388746D02*
X11408277Y-9445889D01*
X11408277Y-9445889D02*
X11398753Y-9464936D01*
X11398753Y-9464936D02*
X11389230Y-9474460D01*
X11389230Y-9474460D02*
X11370182Y-9483984D01*
X11370182Y-9483984D02*
X11341610Y-9483984D01*
X11522563Y-9483984D02*
X11503515Y-9474460D01*
X11503515Y-9474460D02*
X11493991Y-9455412D01*
X11493991Y-9455412D02*
X11493991Y-9283984D01*
X11674944Y-9474460D02*
X11655896Y-9483984D01*
X11655896Y-9483984D02*
X11617801Y-9483984D01*
X11617801Y-9483984D02*
X11598753Y-9474460D01*
X11598753Y-9474460D02*
X11589230Y-9455412D01*
X11589230Y-9455412D02*
X11589230Y-9379222D01*
X11589230Y-9379222D02*
X11598753Y-9360174D01*
X11598753Y-9360174D02*
X11617801Y-9350650D01*
X11617801Y-9350650D02*
X11655896Y-9350650D01*
X11655896Y-9350650D02*
X11674944Y-9360174D01*
X11674944Y-9360174D02*
X11684468Y-9379222D01*
X11684468Y-9379222D02*
X11684468Y-9398270D01*
X11684468Y-9398270D02*
X11589230Y-9417317D01*
X11760658Y-9474460D02*
X11779706Y-9483984D01*
X11779706Y-9483984D02*
X11817801Y-9483984D01*
X11817801Y-9483984D02*
X11836849Y-9474460D01*
X11836849Y-9474460D02*
X11846372Y-9455412D01*
X11846372Y-9455412D02*
X11846372Y-9445889D01*
X11846372Y-9445889D02*
X11836849Y-9426841D01*
X11836849Y-9426841D02*
X11817801Y-9417317D01*
X11817801Y-9417317D02*
X11789230Y-9417317D01*
X11789230Y-9417317D02*
X11770182Y-9407793D01*
X11770182Y-9407793D02*
X11760658Y-9388746D01*
X11760658Y-9388746D02*
X11760658Y-9379222D01*
X11760658Y-9379222D02*
X11770182Y-9360174D01*
X11770182Y-9360174D02*
X11789230Y-9350650D01*
X11789230Y-9350650D02*
X11817801Y-9350650D01*
X11817801Y-9350650D02*
X11836849Y-9360174D01*
X11913039Y-9560174D02*
X11922563Y-9550650D01*
X11922563Y-9550650D02*
X11941611Y-9522079D01*
X11941611Y-9522079D02*
X11951134Y-9503031D01*
X11951134Y-9503031D02*
X11960658Y-9474460D01*
X11960658Y-9474460D02*
X11970182Y-9426841D01*
X11970182Y-9426841D02*
X11970182Y-9388746D01*
X11970182Y-9388746D02*
X11960658Y-9341127D01*
X11960658Y-9341127D02*
X11951134Y-9312555D01*
X11951134Y-9312555D02*
X11941611Y-9293508D01*
X11941611Y-9293508D02*
X11922563Y-9264936D01*
X11922563Y-9264936D02*
X11913039Y-9255412D01*
D12*
X6947500Y-9656500D02*
G75*
G02*
X6847500Y-9656500I-50000J0D01*
G01*
X6847500Y-9656500D02*
G75*
G02*
X6947500Y-9656500I50000J0D01*
G01*
D11*
X7313039Y-9747984D02*
X7198753Y-9747984D01*
X7255896Y-9747984D02*
X7255896Y-9547984D01*
X7255896Y-9547984D02*
X7236848Y-9576555D01*
X7236848Y-9576555D02*
X7217801Y-9595603D01*
X7217801Y-9595603D02*
X7198753Y-9605127D01*
X7398753Y-9728936D02*
X7408277Y-9738460D01*
X7408277Y-9738460D02*
X7398753Y-9747984D01*
X7398753Y-9747984D02*
X7389229Y-9738460D01*
X7389229Y-9738460D02*
X7398753Y-9728936D01*
X7398753Y-9728936D02*
X7398753Y-9747984D01*
X7532086Y-9547984D02*
X7551134Y-9547984D01*
X7551134Y-9547984D02*
X7570182Y-9557508D01*
X7570182Y-9557508D02*
X7579705Y-9567031D01*
X7579705Y-9567031D02*
X7589229Y-9586079D01*
X7589229Y-9586079D02*
X7598753Y-9624174D01*
X7598753Y-9624174D02*
X7598753Y-9671793D01*
X7598753Y-9671793D02*
X7589229Y-9709889D01*
X7589229Y-9709889D02*
X7579705Y-9728936D01*
X7579705Y-9728936D02*
X7570182Y-9738460D01*
X7570182Y-9738460D02*
X7551134Y-9747984D01*
X7551134Y-9747984D02*
X7532086Y-9747984D01*
X7532086Y-9747984D02*
X7513039Y-9738460D01*
X7513039Y-9738460D02*
X7503515Y-9728936D01*
X7503515Y-9728936D02*
X7493991Y-9709889D01*
X7493991Y-9709889D02*
X7484467Y-9671793D01*
X7484467Y-9671793D02*
X7484467Y-9624174D01*
X7484467Y-9624174D02*
X7493991Y-9586079D01*
X7493991Y-9586079D02*
X7503515Y-9567031D01*
X7503515Y-9567031D02*
X7513039Y-9557508D01*
X7513039Y-9557508D02*
X7532086Y-9547984D01*
X7722562Y-9547984D02*
X7741610Y-9547984D01*
X7741610Y-9547984D02*
X7760658Y-9557508D01*
X7760658Y-9557508D02*
X7770182Y-9567031D01*
X7770182Y-9567031D02*
X7779705Y-9586079D01*
X7779705Y-9586079D02*
X7789229Y-9624174D01*
X7789229Y-9624174D02*
X7789229Y-9671793D01*
X7789229Y-9671793D02*
X7779705Y-9709889D01*
X7779705Y-9709889D02*
X7770182Y-9728936D01*
X7770182Y-9728936D02*
X7760658Y-9738460D01*
X7760658Y-9738460D02*
X7741610Y-9747984D01*
X7741610Y-9747984D02*
X7722562Y-9747984D01*
X7722562Y-9747984D02*
X7703515Y-9738460D01*
X7703515Y-9738460D02*
X7693991Y-9728936D01*
X7693991Y-9728936D02*
X7684467Y-9709889D01*
X7684467Y-9709889D02*
X7674943Y-9671793D01*
X7674943Y-9671793D02*
X7674943Y-9624174D01*
X7674943Y-9624174D02*
X7684467Y-9586079D01*
X7684467Y-9586079D02*
X7693991Y-9567031D01*
X7693991Y-9567031D02*
X7703515Y-9557508D01*
X7703515Y-9557508D02*
X7722562Y-9547984D01*
X7913039Y-9547984D02*
X7932086Y-9547984D01*
X7932086Y-9547984D02*
X7951134Y-9557508D01*
X7951134Y-9557508D02*
X7960658Y-9567031D01*
X7960658Y-9567031D02*
X7970182Y-9586079D01*
X7970182Y-9586079D02*
X7979705Y-9624174D01*
X7979705Y-9624174D02*
X7979705Y-9671793D01*
X7979705Y-9671793D02*
X7970182Y-9709889D01*
X7970182Y-9709889D02*
X7960658Y-9728936D01*
X7960658Y-9728936D02*
X7951134Y-9738460D01*
X7951134Y-9738460D02*
X7932086Y-9747984D01*
X7932086Y-9747984D02*
X7913039Y-9747984D01*
X7913039Y-9747984D02*
X7893991Y-9738460D01*
X7893991Y-9738460D02*
X7884467Y-9728936D01*
X7884467Y-9728936D02*
X7874943Y-9709889D01*
X7874943Y-9709889D02*
X7865420Y-9671793D01*
X7865420Y-9671793D02*
X7865420Y-9624174D01*
X7865420Y-9624174D02*
X7874943Y-9586079D01*
X7874943Y-9586079D02*
X7884467Y-9567031D01*
X7884467Y-9567031D02*
X7893991Y-9557508D01*
X7893991Y-9557508D02*
X7913039Y-9547984D01*
X8065420Y-9747984D02*
X8065420Y-9614650D01*
X8065420Y-9633698D02*
X8074943Y-9624174D01*
X8074943Y-9624174D02*
X8093991Y-9614650D01*
X8093991Y-9614650D02*
X8122563Y-9614650D01*
X8122563Y-9614650D02*
X8141610Y-9624174D01*
X8141610Y-9624174D02*
X8151134Y-9643222D01*
X8151134Y-9643222D02*
X8151134Y-9747984D01*
X8151134Y-9643222D02*
X8160658Y-9624174D01*
X8160658Y-9624174D02*
X8179705Y-9614650D01*
X8179705Y-9614650D02*
X8208277Y-9614650D01*
X8208277Y-9614650D02*
X8227324Y-9624174D01*
X8227324Y-9624174D02*
X8236848Y-9643222D01*
X8236848Y-9643222D02*
X8236848Y-9747984D01*
X8332086Y-9747984D02*
X8332086Y-9614650D01*
X8332086Y-9633698D02*
X8341610Y-9624174D01*
X8341610Y-9624174D02*
X8360658Y-9614650D01*
X8360658Y-9614650D02*
X8389229Y-9614650D01*
X8389229Y-9614650D02*
X8408277Y-9624174D01*
X8408277Y-9624174D02*
X8417801Y-9643222D01*
X8417801Y-9643222D02*
X8417801Y-9747984D01*
X8417801Y-9643222D02*
X8427325Y-9624174D01*
X8427325Y-9624174D02*
X8446372Y-9614650D01*
X8446372Y-9614650D02*
X8474944Y-9614650D01*
X8474944Y-9614650D02*
X8493991Y-9624174D01*
X8493991Y-9624174D02*
X8503515Y-9643222D01*
X8503515Y-9643222D02*
X8503515Y-9747984D01*
X8893991Y-9538460D02*
X8722563Y-9795603D01*
X9151134Y-9547984D02*
X9170182Y-9547984D01*
X9170182Y-9547984D02*
X9189229Y-9557508D01*
X9189229Y-9557508D02*
X9198753Y-9567031D01*
X9198753Y-9567031D02*
X9208277Y-9586079D01*
X9208277Y-9586079D02*
X9217801Y-9624174D01*
X9217801Y-9624174D02*
X9217801Y-9671793D01*
X9217801Y-9671793D02*
X9208277Y-9709889D01*
X9208277Y-9709889D02*
X9198753Y-9728936D01*
X9198753Y-9728936D02*
X9189229Y-9738460D01*
X9189229Y-9738460D02*
X9170182Y-9747984D01*
X9170182Y-9747984D02*
X9151134Y-9747984D01*
X9151134Y-9747984D02*
X9132087Y-9738460D01*
X9132087Y-9738460D02*
X9122563Y-9728936D01*
X9122563Y-9728936D02*
X9113039Y-9709889D01*
X9113039Y-9709889D02*
X9103515Y-9671793D01*
X9103515Y-9671793D02*
X9103515Y-9624174D01*
X9103515Y-9624174D02*
X9113039Y-9586079D01*
X9113039Y-9586079D02*
X9122563Y-9567031D01*
X9122563Y-9567031D02*
X9132087Y-9557508D01*
X9132087Y-9557508D02*
X9151134Y-9547984D01*
X9303515Y-9728936D02*
X9313039Y-9738460D01*
X9313039Y-9738460D02*
X9303515Y-9747984D01*
X9303515Y-9747984D02*
X9293991Y-9738460D01*
X9293991Y-9738460D02*
X9303515Y-9728936D01*
X9303515Y-9728936D02*
X9303515Y-9747984D01*
X9436848Y-9547984D02*
X9455896Y-9547984D01*
X9455896Y-9547984D02*
X9474944Y-9557508D01*
X9474944Y-9557508D02*
X9484468Y-9567031D01*
X9484468Y-9567031D02*
X9493991Y-9586079D01*
X9493991Y-9586079D02*
X9503515Y-9624174D01*
X9503515Y-9624174D02*
X9503515Y-9671793D01*
X9503515Y-9671793D02*
X9493991Y-9709889D01*
X9493991Y-9709889D02*
X9484468Y-9728936D01*
X9484468Y-9728936D02*
X9474944Y-9738460D01*
X9474944Y-9738460D02*
X9455896Y-9747984D01*
X9455896Y-9747984D02*
X9436848Y-9747984D01*
X9436848Y-9747984D02*
X9417801Y-9738460D01*
X9417801Y-9738460D02*
X9408277Y-9728936D01*
X9408277Y-9728936D02*
X9398753Y-9709889D01*
X9398753Y-9709889D02*
X9389229Y-9671793D01*
X9389229Y-9671793D02*
X9389229Y-9624174D01*
X9389229Y-9624174D02*
X9398753Y-9586079D01*
X9398753Y-9586079D02*
X9408277Y-9567031D01*
X9408277Y-9567031D02*
X9417801Y-9557508D01*
X9417801Y-9557508D02*
X9436848Y-9547984D01*
X9570182Y-9547984D02*
X9693991Y-9547984D01*
X9693991Y-9547984D02*
X9627325Y-9624174D01*
X9627325Y-9624174D02*
X9655896Y-9624174D01*
X9655896Y-9624174D02*
X9674944Y-9633698D01*
X9674944Y-9633698D02*
X9684468Y-9643222D01*
X9684468Y-9643222D02*
X9693991Y-9662270D01*
X9693991Y-9662270D02*
X9693991Y-9709889D01*
X9693991Y-9709889D02*
X9684468Y-9728936D01*
X9684468Y-9728936D02*
X9674944Y-9738460D01*
X9674944Y-9738460D02*
X9655896Y-9747984D01*
X9655896Y-9747984D02*
X9598753Y-9747984D01*
X9598753Y-9747984D02*
X9579706Y-9738460D01*
X9579706Y-9738460D02*
X9570182Y-9728936D01*
X9789229Y-9747984D02*
X9827325Y-9747984D01*
X9827325Y-9747984D02*
X9846372Y-9738460D01*
X9846372Y-9738460D02*
X9855896Y-9728936D01*
X9855896Y-9728936D02*
X9874944Y-9700365D01*
X9874944Y-9700365D02*
X9884468Y-9662270D01*
X9884468Y-9662270D02*
X9884468Y-9586079D01*
X9884468Y-9586079D02*
X9874944Y-9567031D01*
X9874944Y-9567031D02*
X9865420Y-9557508D01*
X9865420Y-9557508D02*
X9846372Y-9547984D01*
X9846372Y-9547984D02*
X9808277Y-9547984D01*
X9808277Y-9547984D02*
X9789229Y-9557508D01*
X9789229Y-9557508D02*
X9779706Y-9567031D01*
X9779706Y-9567031D02*
X9770182Y-9586079D01*
X9770182Y-9586079D02*
X9770182Y-9633698D01*
X9770182Y-9633698D02*
X9779706Y-9652746D01*
X9779706Y-9652746D02*
X9789229Y-9662270D01*
X9789229Y-9662270D02*
X9808277Y-9671793D01*
X9808277Y-9671793D02*
X9846372Y-9671793D01*
X9846372Y-9671793D02*
X9865420Y-9662270D01*
X9865420Y-9662270D02*
X9874944Y-9652746D01*
X9874944Y-9652746D02*
X9884468Y-9633698D01*
X10055896Y-9614650D02*
X10055896Y-9747984D01*
X10008277Y-9538460D02*
X9960658Y-9681317D01*
X9960658Y-9681317D02*
X10084468Y-9681317D01*
X10151134Y-9547984D02*
X10151134Y-9586079D01*
X10227325Y-9547984D02*
X10227325Y-9586079D01*
X10522563Y-9824174D02*
X10513039Y-9814650D01*
X10513039Y-9814650D02*
X10493991Y-9786079D01*
X10493991Y-9786079D02*
X10484468Y-9767031D01*
X10484468Y-9767031D02*
X10474944Y-9738460D01*
X10474944Y-9738460D02*
X10465420Y-9690841D01*
X10465420Y-9690841D02*
X10465420Y-9652746D01*
X10465420Y-9652746D02*
X10474944Y-9605127D01*
X10474944Y-9605127D02*
X10484468Y-9576555D01*
X10484468Y-9576555D02*
X10493991Y-9557508D01*
X10493991Y-9557508D02*
X10513039Y-9528936D01*
X10513039Y-9528936D02*
X10522563Y-9519412D01*
X10636849Y-9547984D02*
X10655896Y-9547984D01*
X10655896Y-9547984D02*
X10674944Y-9557508D01*
X10674944Y-9557508D02*
X10684468Y-9567031D01*
X10684468Y-9567031D02*
X10693991Y-9586079D01*
X10693991Y-9586079D02*
X10703515Y-9624174D01*
X10703515Y-9624174D02*
X10703515Y-9671793D01*
X10703515Y-9671793D02*
X10693991Y-9709889D01*
X10693991Y-9709889D02*
X10684468Y-9728936D01*
X10684468Y-9728936D02*
X10674944Y-9738460D01*
X10674944Y-9738460D02*
X10655896Y-9747984D01*
X10655896Y-9747984D02*
X10636849Y-9747984D01*
X10636849Y-9747984D02*
X10617801Y-9738460D01*
X10617801Y-9738460D02*
X10608277Y-9728936D01*
X10608277Y-9728936D02*
X10598753Y-9709889D01*
X10598753Y-9709889D02*
X10589230Y-9671793D01*
X10589230Y-9671793D02*
X10589230Y-9624174D01*
X10589230Y-9624174D02*
X10598753Y-9586079D01*
X10598753Y-9586079D02*
X10608277Y-9567031D01*
X10608277Y-9567031D02*
X10617801Y-9557508D01*
X10617801Y-9557508D02*
X10636849Y-9547984D01*
X10941611Y-9747984D02*
X10941611Y-9547984D01*
X11027325Y-9747984D02*
X11027325Y-9643222D01*
X11027325Y-9643222D02*
X11017801Y-9624174D01*
X11017801Y-9624174D02*
X10998753Y-9614650D01*
X10998753Y-9614650D02*
X10970182Y-9614650D01*
X10970182Y-9614650D02*
X10951134Y-9624174D01*
X10951134Y-9624174D02*
X10941611Y-9633698D01*
X11151134Y-9747984D02*
X11132087Y-9738460D01*
X11132087Y-9738460D02*
X11122563Y-9728936D01*
X11122563Y-9728936D02*
X11113039Y-9709889D01*
X11113039Y-9709889D02*
X11113039Y-9652746D01*
X11113039Y-9652746D02*
X11122563Y-9633698D01*
X11122563Y-9633698D02*
X11132087Y-9624174D01*
X11132087Y-9624174D02*
X11151134Y-9614650D01*
X11151134Y-9614650D02*
X11179706Y-9614650D01*
X11179706Y-9614650D02*
X11198753Y-9624174D01*
X11198753Y-9624174D02*
X11208277Y-9633698D01*
X11208277Y-9633698D02*
X11217801Y-9652746D01*
X11217801Y-9652746D02*
X11217801Y-9709889D01*
X11217801Y-9709889D02*
X11208277Y-9728936D01*
X11208277Y-9728936D02*
X11198753Y-9738460D01*
X11198753Y-9738460D02*
X11179706Y-9747984D01*
X11179706Y-9747984D02*
X11151134Y-9747984D01*
X11332087Y-9747984D02*
X11313039Y-9738460D01*
X11313039Y-9738460D02*
X11303515Y-9719412D01*
X11303515Y-9719412D02*
X11303515Y-9547984D01*
X11484468Y-9738460D02*
X11465420Y-9747984D01*
X11465420Y-9747984D02*
X11427325Y-9747984D01*
X11427325Y-9747984D02*
X11408277Y-9738460D01*
X11408277Y-9738460D02*
X11398753Y-9719412D01*
X11398753Y-9719412D02*
X11398753Y-9643222D01*
X11398753Y-9643222D02*
X11408277Y-9624174D01*
X11408277Y-9624174D02*
X11427325Y-9614650D01*
X11427325Y-9614650D02*
X11465420Y-9614650D01*
X11465420Y-9614650D02*
X11484468Y-9624174D01*
X11484468Y-9624174D02*
X11493991Y-9643222D01*
X11493991Y-9643222D02*
X11493991Y-9662270D01*
X11493991Y-9662270D02*
X11398753Y-9681317D01*
X11570182Y-9738460D02*
X11589230Y-9747984D01*
X11589230Y-9747984D02*
X11627325Y-9747984D01*
X11627325Y-9747984D02*
X11646372Y-9738460D01*
X11646372Y-9738460D02*
X11655896Y-9719412D01*
X11655896Y-9719412D02*
X11655896Y-9709889D01*
X11655896Y-9709889D02*
X11646372Y-9690841D01*
X11646372Y-9690841D02*
X11627325Y-9681317D01*
X11627325Y-9681317D02*
X11598753Y-9681317D01*
X11598753Y-9681317D02*
X11579706Y-9671793D01*
X11579706Y-9671793D02*
X11570182Y-9652746D01*
X11570182Y-9652746D02*
X11570182Y-9643222D01*
X11570182Y-9643222D02*
X11579706Y-9624174D01*
X11579706Y-9624174D02*
X11598753Y-9614650D01*
X11598753Y-9614650D02*
X11627325Y-9614650D01*
X11627325Y-9614650D02*
X11646372Y-9624174D01*
X11893992Y-9671793D02*
X12046373Y-9671793D01*
X11970182Y-9747984D02*
X11970182Y-9595603D01*
X12398753Y-9747984D02*
X12284468Y-9747984D01*
X12341611Y-9747984D02*
X12341611Y-9547984D01*
X12341611Y-9547984D02*
X12322563Y-9576555D01*
X12322563Y-9576555D02*
X12303515Y-9595603D01*
X12303515Y-9595603D02*
X12284468Y-9605127D01*
X12570182Y-9547984D02*
X12532087Y-9547984D01*
X12532087Y-9547984D02*
X12513039Y-9557508D01*
X12513039Y-9557508D02*
X12503515Y-9567031D01*
X12503515Y-9567031D02*
X12484468Y-9595603D01*
X12484468Y-9595603D02*
X12474944Y-9633698D01*
X12474944Y-9633698D02*
X12474944Y-9709889D01*
X12474944Y-9709889D02*
X12484468Y-9728936D01*
X12484468Y-9728936D02*
X12493992Y-9738460D01*
X12493992Y-9738460D02*
X12513039Y-9747984D01*
X12513039Y-9747984D02*
X12551134Y-9747984D01*
X12551134Y-9747984D02*
X12570182Y-9738460D01*
X12570182Y-9738460D02*
X12579706Y-9728936D01*
X12579706Y-9728936D02*
X12589230Y-9709889D01*
X12589230Y-9709889D02*
X12589230Y-9662270D01*
X12589230Y-9662270D02*
X12579706Y-9643222D01*
X12579706Y-9643222D02*
X12570182Y-9633698D01*
X12570182Y-9633698D02*
X12551134Y-9624174D01*
X12551134Y-9624174D02*
X12513039Y-9624174D01*
X12513039Y-9624174D02*
X12493992Y-9633698D01*
X12493992Y-9633698D02*
X12484468Y-9643222D01*
X12484468Y-9643222D02*
X12474944Y-9662270D01*
X12817801Y-9738460D02*
X12836849Y-9747984D01*
X12836849Y-9747984D02*
X12874944Y-9747984D01*
X12874944Y-9747984D02*
X12893992Y-9738460D01*
X12893992Y-9738460D02*
X12903515Y-9719412D01*
X12903515Y-9719412D02*
X12903515Y-9709889D01*
X12903515Y-9709889D02*
X12893992Y-9690841D01*
X12893992Y-9690841D02*
X12874944Y-9681317D01*
X12874944Y-9681317D02*
X12846373Y-9681317D01*
X12846373Y-9681317D02*
X12827325Y-9671793D01*
X12827325Y-9671793D02*
X12817801Y-9652746D01*
X12817801Y-9652746D02*
X12817801Y-9643222D01*
X12817801Y-9643222D02*
X12827325Y-9624174D01*
X12827325Y-9624174D02*
X12846373Y-9614650D01*
X12846373Y-9614650D02*
X12874944Y-9614650D01*
X12874944Y-9614650D02*
X12893992Y-9624174D01*
X13017801Y-9747984D02*
X12998754Y-9738460D01*
X12998754Y-9738460D02*
X12989230Y-9719412D01*
X12989230Y-9719412D02*
X12989230Y-9547984D01*
X13122563Y-9747984D02*
X13103515Y-9738460D01*
X13103515Y-9738460D02*
X13093992Y-9728936D01*
X13093992Y-9728936D02*
X13084468Y-9709889D01*
X13084468Y-9709889D02*
X13084468Y-9652746D01*
X13084468Y-9652746D02*
X13093992Y-9633698D01*
X13093992Y-9633698D02*
X13103515Y-9624174D01*
X13103515Y-9624174D02*
X13122563Y-9614650D01*
X13122563Y-9614650D02*
X13151135Y-9614650D01*
X13151135Y-9614650D02*
X13170182Y-9624174D01*
X13170182Y-9624174D02*
X13179706Y-9633698D01*
X13179706Y-9633698D02*
X13189230Y-9652746D01*
X13189230Y-9652746D02*
X13189230Y-9709889D01*
X13189230Y-9709889D02*
X13179706Y-9728936D01*
X13179706Y-9728936D02*
X13170182Y-9738460D01*
X13170182Y-9738460D02*
X13151135Y-9747984D01*
X13151135Y-9747984D02*
X13122563Y-9747984D01*
X13246373Y-9614650D02*
X13322563Y-9614650D01*
X13274944Y-9547984D02*
X13274944Y-9719412D01*
X13274944Y-9719412D02*
X13284468Y-9738460D01*
X13284468Y-9738460D02*
X13303515Y-9747984D01*
X13303515Y-9747984D02*
X13322563Y-9747984D01*
X13379706Y-9738460D02*
X13398754Y-9747984D01*
X13398754Y-9747984D02*
X13436849Y-9747984D01*
X13436849Y-9747984D02*
X13455896Y-9738460D01*
X13455896Y-9738460D02*
X13465420Y-9719412D01*
X13465420Y-9719412D02*
X13465420Y-9709889D01*
X13465420Y-9709889D02*
X13455896Y-9690841D01*
X13455896Y-9690841D02*
X13436849Y-9681317D01*
X13436849Y-9681317D02*
X13408277Y-9681317D01*
X13408277Y-9681317D02*
X13389230Y-9671793D01*
X13389230Y-9671793D02*
X13379706Y-9652746D01*
X13379706Y-9652746D02*
X13379706Y-9643222D01*
X13379706Y-9643222D02*
X13389230Y-9624174D01*
X13389230Y-9624174D02*
X13408277Y-9614650D01*
X13408277Y-9614650D02*
X13436849Y-9614650D01*
X13436849Y-9614650D02*
X13455896Y-9624174D01*
X13532087Y-9824174D02*
X13541611Y-9814650D01*
X13541611Y-9814650D02*
X13560658Y-9786079D01*
X13560658Y-9786079D02*
X13570182Y-9767031D01*
X13570182Y-9767031D02*
X13579706Y-9738460D01*
X13579706Y-9738460D02*
X13589230Y-9690841D01*
X13589230Y-9690841D02*
X13589230Y-9652746D01*
X13589230Y-9652746D02*
X13579706Y-9605127D01*
X13579706Y-9605127D02*
X13570182Y-9576555D01*
X13570182Y-9576555D02*
X13560658Y-9557508D01*
X13560658Y-9557508D02*
X13541611Y-9528936D01*
X13541611Y-9528936D02*
X13532087Y-9519412D01*
M02*
