M48
; DRILL file {KiCad 9.0.0-9.0.0-2~ubuntu24.04.1} date 2025-04-02T00:55:09+0200
; FORMAT={-:-/ absolute / metric / decimal}
; #@! TF.CreationDate,2025-04-02T00:55:09+02:00
; #@! TF.GenerationSoftware,Kicad,Pcbnew,9.0.0-9.0.0-2~ubuntu24.04.1
; #@! TF.FileFunction,Plated,1,2,PTH
FMAT,2
METRIC
; #@! TA.AperFunction,Plated,PTH,ComponentDrill
T1C0.800
; #@! TA.AperFunction,Plated,PTH,ComponentDrill
T2C1.100
%
G90
G05
T1
X101.0Y-39.28
X101.0Y-41.82
X101.0Y-44.36
X101.0Y-46.9
X101.0Y-49.44
X101.0Y-51.98
X101.0Y-54.52
X101.0Y-57.06
X101.0Y-59.6
X101.0Y-62.14
X101.0Y-64.68
X101.0Y-67.22
X101.0Y-69.76
X101.0Y-72.3
X101.0Y-74.84
X101.0Y-77.38
X101.0Y-79.92
X101.0Y-82.46
X101.0Y-85.0
X123.606Y-39.28
X123.606Y-41.82
X123.606Y-44.36
X123.606Y-46.9
X123.606Y-49.44
X123.606Y-51.98
X123.606Y-54.52
X123.606Y-57.06
X123.606Y-59.6
X123.606Y-62.14
X123.606Y-64.68
X123.606Y-67.22
X123.606Y-69.76
X123.606Y-72.3
X123.606Y-74.84
X123.606Y-77.38
X123.606Y-79.92
X123.606Y-82.46
X123.606Y-85.0
X148.14Y-44.5
X148.14Y-47.04
X148.14Y-49.58
X148.14Y-52.12
X148.14Y-54.66
X148.14Y-57.2
X148.14Y-71.0
X148.14Y-73.54
X148.14Y-76.08
X148.14Y-78.62
X148.14Y-81.16
X148.14Y-83.7
X171.0Y-44.5
X171.0Y-47.04
X171.0Y-49.58
X171.0Y-52.12
X171.0Y-54.66
X171.0Y-57.2
X171.0Y-71.0
X171.0Y-73.54
X171.0Y-76.08
X171.0Y-78.62
X171.0Y-81.16
X171.0Y-83.7
X206.0Y-81.018
X208.54Y-81.018
X211.08Y-46.728
X211.08Y-81.018
X213.62Y-46.728
X213.62Y-81.018
X216.16Y-46.728
X216.16Y-81.018
X218.7Y-46.728
X218.7Y-81.018
X221.24Y-46.728
X221.24Y-81.018
X223.78Y-46.728
X223.78Y-81.018
X226.32Y-46.728
T2
X88.5Y-41.0
X88.5Y-46.08
X88.5Y-51.16
X88.5Y-56.24
X88.5Y-61.32
X88.5Y-66.4
X88.5Y-71.48
X88.5Y-76.56
X88.5Y-81.64
X88.5Y-86.72
M30
