M48
; DRILL file {KiCad 9.0.0-9.0.0-2~ubuntu24.04.1} date 2025-04-02T19:47:50+0200
; FORMAT={-:-/ absolute / metric / decimal}
; #@! TF.CreationDate,2025-04-02T19:47:50+02:00
; #@! TF.GenerationSoftware,Kicad,Pcbnew,9.0.0-9.0.0-2~ubuntu24.04.1
; #@! TF.FileFunction,Plated,1,2,PTH
FMAT,2
METRIC
; #@! TA.AperFunction,Plated,PTH,ComponentDrill
T1C1.000
; #@! TA.AperFunction,Plated,PTH,ComponentDrill
T2C1.200
; #@! TA.AperFunction,Plated,PTH,ComponentDrill
T3C2.600
%
G90
G05
T1
X150.5Y-89.46
X150.5Y-92.0
X150.5Y-96.96
X150.5Y-99.5
X150.5Y-105.0
X150.5Y-107.54
X152.25Y-115.3
X152.25Y-117.84
X152.25Y-120.38
X152.25Y-122.92
X152.25Y-125.46
X152.25Y-128.0
X154.5Y-89.46
X154.5Y-92.0
X154.5Y-97.0
X154.5Y-99.54
X154.5Y-105.0
X154.5Y-107.54
T2
X106.63Y-44.458
X106.63Y-61.73
X106.63Y-67.148
X106.63Y-84.42
X106.63Y-89.838
X106.63Y-107.11
X106.63Y-112.528
X106.63Y-129.8
X146.0Y-44.458
X146.0Y-61.73
X146.0Y-67.148
X146.0Y-84.42
X146.0Y-89.838
X146.0Y-107.11
X146.0Y-112.528
X146.0Y-129.8
T3
X126.369Y-39.0
X131.5Y-39.0
X151.0Y-50.5
X151.0Y-55.631
X151.0Y-73.0
X151.0Y-78.131
M30
