G04 #@! TF.GenerationSoftware,KiCad,Pcbnew,9.0.0-9.0.0-2~ubuntu24.04.1*
G04 #@! TF.CreationDate,2025-04-02T19:47:33+02:00*
G04 #@! TF.ProjectId,Buck_InterFace,4275636b-5f49-46e7-9465-72466163652e,rev?*
G04 #@! TF.SameCoordinates,Original*
G04 #@! TF.FileFunction,Copper,L2,Bot*
G04 #@! TF.FilePolarity,Positive*
%FSLAX46Y46*%
G04 Gerber Fmt 4.6, Leading zero omitted, Abs format (unit mm)*
G04 Created by KiCad (PCBNEW 9.0.0-9.0.0-2~ubuntu24.04.1) date 2025-04-02 19:47:33*
%MOMM*%
%LPD*%
G01*
G04 APERTURE LIST*
G04 Aperture macros list*
%AMRoundRect*
0 Rectangle with rounded corners*
0 $1 Rounding radius*
0 $2 $3 $4 $5 $6 $7 $8 $9 X,Y pos of 4 corners*
0 Add a 4 corners polygon primitive as box body*
4,1,4,$2,$3,$4,$5,$6,$7,$8,$9,$2,$3,0*
0 Add four circle primitives for the rounded corners*
1,1,$1+$1,$2,$3*
1,1,$1+$1,$4,$5*
1,1,$1+$1,$6,$7*
1,1,$1+$1,$8,$9*
0 Add four rect primitives between the rounded corners*
20,1,$1+$1,$2,$3,$4,$5,0*
20,1,$1+$1,$4,$5,$6,$7,0*
20,1,$1+$1,$6,$7,$8,$9,0*
20,1,$1+$1,$8,$9,$2,$3,0*%
G04 Aperture macros list end*
G04 #@! TA.AperFunction,ComponentPad*
%ADD10O,1.700000X1.700000*%
G04 #@! TD*
G04 #@! TA.AperFunction,ComponentPad*
%ADD11R,1.700000X1.700000*%
G04 #@! TD*
G04 #@! TA.AperFunction,ComponentPad*
%ADD12RoundRect,0.381000X-0.889000X-0.889000X0.889000X-0.889000X0.889000X0.889000X-0.889000X0.889000X0*%
G04 #@! TD*
G04 #@! TA.AperFunction,ComponentPad*
%ADD13RoundRect,0.637500X-1.487500X1.487500X-1.487500X-1.487500X1.487500X-1.487500X1.487500X1.487500X0*%
G04 #@! TD*
G04 #@! TA.AperFunction,ComponentPad*
%ADD14RoundRect,0.637500X-1.487500X-1.487500X1.487500X-1.487500X1.487500X1.487500X-1.487500X1.487500X0*%
G04 #@! TD*
G04 APERTURE END LIST*
D10*
X152250000Y-115300000D03*
X152250000Y-117840000D03*
X152250000Y-120380000D03*
X152250000Y-122920000D03*
X152250000Y-125460000D03*
D11*
X152250000Y-128000000D03*
X150500000Y-96960000D03*
D10*
X150500000Y-99500000D03*
D12*
X106630000Y-44458000D03*
X106630000Y-61730000D03*
X146000000Y-44458000D03*
X146000000Y-61730000D03*
D11*
X154500000Y-89460000D03*
D10*
X154500000Y-92000000D03*
D11*
X154500000Y-105000000D03*
D10*
X154500000Y-107540000D03*
D12*
X106630000Y-67148000D03*
X106630000Y-84420000D03*
X146000000Y-67148000D03*
X146000000Y-84420000D03*
D13*
X151000000Y-50500000D03*
X151000000Y-55630800D03*
D14*
X126369200Y-39000000D03*
X131500000Y-39000000D03*
D13*
X151000000Y-73000000D03*
X151000000Y-78130800D03*
D11*
X150500000Y-105000000D03*
D10*
X150500000Y-107540000D03*
D12*
X106630000Y-89838000D03*
X106630000Y-107110000D03*
X146000000Y-89838000D03*
X146000000Y-107110000D03*
X106630000Y-112528000D03*
X106630000Y-129800000D03*
X146000000Y-112528000D03*
X146000000Y-129800000D03*
D11*
X154500000Y-97000000D03*
D10*
X154500000Y-99540000D03*
D11*
X150500000Y-89460000D03*
D10*
X150500000Y-92000000D03*
G04 #@! TA.AperFunction,Conductor*
G36*
X123157870Y-36020185D02*
G01*
X123203625Y-36072989D01*
X123213569Y-36142147D01*
X123184544Y-36205703D01*
X123184291Y-36205993D01*
X123174155Y-36217616D01*
X123174147Y-36217626D01*
X123013736Y-36462192D01*
X122888120Y-36726324D01*
X122888114Y-36726338D01*
X122799637Y-37005110D01*
X122799635Y-37005119D01*
X122749938Y-37293350D01*
X122749938Y-37293352D01*
X122743700Y-37415014D01*
X122743700Y-40584944D01*
X122743702Y-40584986D01*
X122749938Y-40706648D01*
X122799635Y-40994880D01*
X122799637Y-40994889D01*
X122888114Y-41273661D01*
X122888120Y-41273675D01*
X123013736Y-41537807D01*
X123174147Y-41782373D01*
X123174148Y-41782374D01*
X123366372Y-42002827D01*
X123586825Y-42195051D01*
X123586826Y-42195052D01*
X123831392Y-42355463D01*
X124095524Y-42481079D01*
X124095538Y-42481085D01*
X124234924Y-42525323D01*
X124374315Y-42569564D01*
X124662548Y-42619261D01*
X124684679Y-42620395D01*
X124784214Y-42625499D01*
X124784227Y-42625499D01*
X124784247Y-42625500D01*
X127954152Y-42625499D01*
X128075852Y-42619261D01*
X128364085Y-42569564D01*
X128642867Y-42481083D01*
X128907004Y-42355465D01*
X129151576Y-42195050D01*
X129372027Y-42002827D01*
X129564250Y-41782376D01*
X129648535Y-41653873D01*
X129701760Y-41608613D01*
X129771008Y-41599314D01*
X129778579Y-41600716D01*
X129876838Y-41622092D01*
X129925655Y-41624999D01*
X133064338Y-41624999D01*
X133064339Y-41624998D01*
X131720605Y-40281264D01*
X131804417Y-40267990D01*
X131999027Y-40204757D01*
X132181349Y-40111860D01*
X132346893Y-39991585D01*
X132491585Y-39846893D01*
X132611860Y-39681349D01*
X132704757Y-39499027D01*
X132767990Y-39304417D01*
X132781264Y-39220604D01*
X134124998Y-40564339D01*
X134124999Y-40564338D01*
X134124999Y-38868872D01*
X149499500Y-38868872D01*
X149499500Y-39131127D01*
X149526123Y-39333339D01*
X149533730Y-39391116D01*
X149594526Y-39618010D01*
X149601602Y-39644418D01*
X149601605Y-39644428D01*
X149701953Y-39886690D01*
X149701958Y-39886700D01*
X149833075Y-40113803D01*
X149992718Y-40321851D01*
X149992726Y-40321860D01*
X150178140Y-40507274D01*
X150178148Y-40507281D01*
X150386196Y-40666924D01*
X150613299Y-40798041D01*
X150613309Y-40798046D01*
X150855571Y-40898394D01*
X150855581Y-40898398D01*
X151108884Y-40966270D01*
X151368880Y-41000500D01*
X151368887Y-41000500D01*
X151631113Y-41000500D01*
X151631120Y-41000500D01*
X151891116Y-40966270D01*
X152144419Y-40898398D01*
X152386697Y-40798043D01*
X152613803Y-40666924D01*
X152821851Y-40507282D01*
X152821855Y-40507277D01*
X152821860Y-40507274D01*
X153007274Y-40321860D01*
X153007277Y-40321855D01*
X153007282Y-40321851D01*
X153166924Y-40113803D01*
X153298043Y-39886697D01*
X153398398Y-39644419D01*
X153466270Y-39391116D01*
X153500500Y-39131120D01*
X153500500Y-38868880D01*
X153466270Y-38608884D01*
X153398398Y-38355581D01*
X153345294Y-38227376D01*
X153298046Y-38113309D01*
X153298041Y-38113299D01*
X153166924Y-37886196D01*
X153007281Y-37678148D01*
X153007274Y-37678140D01*
X152821860Y-37492726D01*
X152821851Y-37492718D01*
X152613803Y-37333075D01*
X152386700Y-37201958D01*
X152386690Y-37201953D01*
X152144428Y-37101605D01*
X152144421Y-37101603D01*
X152144419Y-37101602D01*
X151891116Y-37033730D01*
X151833339Y-37026123D01*
X151631127Y-36999500D01*
X151631120Y-36999500D01*
X151368880Y-36999500D01*
X151368872Y-36999500D01*
X151137772Y-37029926D01*
X151108884Y-37033730D01*
X150855581Y-37101602D01*
X150855571Y-37101605D01*
X150613309Y-37201953D01*
X150613299Y-37201958D01*
X150386196Y-37333075D01*
X150178148Y-37492718D01*
X149992718Y-37678148D01*
X149833075Y-37886196D01*
X149701958Y-38113299D01*
X149701953Y-38113309D01*
X149601605Y-38355571D01*
X149601602Y-38355581D01*
X149547539Y-38557350D01*
X149533730Y-38608885D01*
X149499500Y-38868872D01*
X134124999Y-38868872D01*
X134124999Y-37435660D01*
X134124998Y-37435659D01*
X132781264Y-38779394D01*
X132767990Y-38695583D01*
X132704757Y-38500973D01*
X132611860Y-38318651D01*
X132491585Y-38153107D01*
X132346893Y-38008415D01*
X132181349Y-37888140D01*
X131999027Y-37795243D01*
X131804417Y-37732010D01*
X131720602Y-37718735D01*
X133064338Y-36375000D01*
X129925656Y-36375000D01*
X129925653Y-36375001D01*
X129876843Y-36377907D01*
X129778577Y-36399283D01*
X129758101Y-36397818D01*
X129737873Y-36401283D01*
X129723961Y-36395375D01*
X129708885Y-36394297D01*
X129692454Y-36381996D01*
X129673561Y-36373974D01*
X129656754Y-36355271D01*
X129652952Y-36352425D01*
X129649741Y-36347931D01*
X129649135Y-36347042D01*
X129564250Y-36217624D01*
X129549245Y-36200415D01*
X129545089Y-36194315D01*
X129536530Y-36167819D01*
X129524886Y-36142529D01*
X129525940Y-36135031D01*
X129523613Y-36127827D01*
X129530737Y-36100910D01*
X129534614Y-36073340D01*
X129539553Y-36067603D01*
X129541491Y-36060284D01*
X129562037Y-36041492D01*
X129580204Y-36020394D01*
X129587461Y-36018238D01*
X129593048Y-36013129D01*
X129620491Y-36008428D01*
X129647182Y-36000501D01*
X129647568Y-36000500D01*
X155875500Y-36000500D01*
X155942539Y-36020185D01*
X155988294Y-36072989D01*
X155999500Y-36124500D01*
X155999500Y-87071259D01*
X155979815Y-87138298D01*
X155927011Y-87184053D01*
X155857853Y-87193997D01*
X155830425Y-87186776D01*
X155779625Y-87166953D01*
X155779615Y-87166950D01*
X155536238Y-87115919D01*
X155536235Y-87115918D01*
X155432850Y-87109500D01*
X155432842Y-87109500D01*
X153567158Y-87109500D01*
X153567149Y-87109500D01*
X153463764Y-87115918D01*
X153463761Y-87115919D01*
X153220384Y-87166950D01*
X153220374Y-87166953D01*
X152988730Y-87257342D01*
X152775097Y-87384639D01*
X152581436Y-87548664D01*
X152580141Y-87547135D01*
X152526358Y-87576503D01*
X152456666Y-87571519D01*
X152419459Y-87547606D01*
X152418564Y-87548664D01*
X152224902Y-87384639D01*
X152178330Y-87356888D01*
X152011273Y-87257344D01*
X152011271Y-87257343D01*
X152011269Y-87257342D01*
X151779625Y-87166953D01*
X151779615Y-87166950D01*
X151536238Y-87115919D01*
X151536235Y-87115918D01*
X151432850Y-87109500D01*
X151432842Y-87109500D01*
X149567158Y-87109500D01*
X149567149Y-87109500D01*
X149463764Y-87115918D01*
X149463761Y-87115919D01*
X149220384Y-87166950D01*
X149220374Y-87166953D01*
X148988730Y-87257342D01*
X148775097Y-87384639D01*
X148585350Y-87545348D01*
X148585348Y-87545350D01*
X148471022Y-87680335D01*
X148412674Y-87718770D01*
X148342808Y-87719557D01*
X148288719Y-87687875D01*
X148122056Y-87521212D01*
X148122049Y-87521206D01*
X148122047Y-87521204D01*
X148122042Y-87521200D01*
X148122037Y-87521196D01*
X147901022Y-87356888D01*
X147658427Y-87226505D01*
X147658422Y-87226503D01*
X147658420Y-87226502D01*
X147399423Y-87132830D01*
X147129547Y-87077866D01*
X146967620Y-87067500D01*
X145032380Y-87067500D01*
X144870453Y-87077866D01*
X144600577Y-87132830D01*
X144341580Y-87226502D01*
X144341572Y-87226505D01*
X144098977Y-87356888D01*
X143877962Y-87521196D01*
X143877943Y-87521212D01*
X143683212Y-87715943D01*
X143683196Y-87715962D01*
X143518888Y-87936977D01*
X143388505Y-88179572D01*
X143388502Y-88179579D01*
X143388502Y-88179580D01*
X143294830Y-88438577D01*
X143239866Y-88708453D01*
X143229500Y-88870380D01*
X143229500Y-90805620D01*
X143239866Y-90967547D01*
X143294830Y-91237423D01*
X143388502Y-91496420D01*
X143388505Y-91496427D01*
X143518888Y-91739022D01*
X143683196Y-91960037D01*
X143683212Y-91960056D01*
X143877943Y-92154787D01*
X143877949Y-92154792D01*
X143877953Y-92154796D01*
X143877958Y-92154800D01*
X143877962Y-92154803D01*
X144098977Y-92319111D01*
X144098980Y-92319112D01*
X144098982Y-92319114D01*
X144222882Y-92385704D01*
X144341572Y-92449494D01*
X144341573Y-92449494D01*
X144341580Y-92449498D01*
X144600577Y-92543170D01*
X144870453Y-92598134D01*
X145032380Y-92608500D01*
X145032390Y-92608500D01*
X146967610Y-92608500D01*
X146967620Y-92608500D01*
X147129547Y-92598134D01*
X147399423Y-92543170D01*
X147658420Y-92449498D01*
X147901018Y-92319114D01*
X148122047Y-92154796D01*
X148316796Y-91960047D01*
X148481114Y-91739018D01*
X148575792Y-91562855D01*
X148624867Y-91513126D01*
X148693039Y-91497821D01*
X148758664Y-91521802D01*
X148765154Y-91526937D01*
X148775106Y-91535366D01*
X148988727Y-91662656D01*
X149035058Y-91680734D01*
X149220374Y-91753046D01*
X149220381Y-91753048D01*
X149220386Y-91753050D01*
X149463763Y-91804081D01*
X149567158Y-91810500D01*
X149567169Y-91810500D01*
X150033139Y-91810500D01*
X150000000Y-91934174D01*
X150000000Y-92065826D01*
X150034075Y-92192993D01*
X150099901Y-92307007D01*
X150192993Y-92400099D01*
X150307007Y-92465925D01*
X150434174Y-92500000D01*
X150565826Y-92500000D01*
X150692993Y-92465925D01*
X150807007Y-92400099D01*
X150900099Y-92307007D01*
X150965925Y-92192993D01*
X151000000Y-92065826D01*
X151000000Y-91934174D01*
X150966861Y-91810500D01*
X151432831Y-91810500D01*
X151432842Y-91810500D01*
X151536237Y-91804081D01*
X151779614Y-91753050D01*
X151779621Y-91753046D01*
X151779625Y-91753046D01*
X151933526Y-91692993D01*
X152011273Y-91662656D01*
X152224894Y-91535366D01*
X152224898Y-91535361D01*
X152224902Y-91535360D01*
X152418564Y-91371336D01*
X152419858Y-91372864D01*
X152473642Y-91343497D01*
X152543334Y-91348481D01*
X152580540Y-91372393D01*
X152581436Y-91371336D01*
X152775097Y-91535360D01*
X152775103Y-91535363D01*
X152775106Y-91535366D01*
X152988727Y-91662656D01*
X153035058Y-91680734D01*
X153220374Y-91753046D01*
X153220381Y-91753048D01*
X153220386Y-91753050D01*
X153463763Y-91804081D01*
X153567158Y-91810500D01*
X153567169Y-91810500D01*
X154033139Y-91810500D01*
X154000000Y-91934174D01*
X154000000Y-92065826D01*
X154034075Y-92192993D01*
X154099901Y-92307007D01*
X154192993Y-92400099D01*
X154307007Y-92465925D01*
X154434174Y-92500000D01*
X154565826Y-92500000D01*
X154692993Y-92465925D01*
X154807007Y-92400099D01*
X154900099Y-92307007D01*
X154965925Y-92192993D01*
X155000000Y-92065826D01*
X155000000Y-92000000D01*
X155126000Y-92000000D01*
X155193039Y-92019685D01*
X155238794Y-92072489D01*
X155250000Y-92124000D01*
X155250000Y-93123782D01*
X155379466Y-93029721D01*
X155529723Y-92879464D01*
X155529727Y-92879459D01*
X155654620Y-92707557D01*
X155751093Y-92518221D01*
X155757568Y-92498294D01*
X155797005Y-92440618D01*
X155861363Y-92413419D01*
X155930210Y-92425333D01*
X155981686Y-92472576D01*
X155999500Y-92536611D01*
X155999500Y-94611259D01*
X155979815Y-94678298D01*
X155927011Y-94724053D01*
X155857853Y-94733997D01*
X155830425Y-94726776D01*
X155779625Y-94706953D01*
X155779615Y-94706950D01*
X155536238Y-94655919D01*
X155536235Y-94655918D01*
X155432850Y-94649500D01*
X155432842Y-94649500D01*
X153567158Y-94649500D01*
X153567149Y-94649500D01*
X153463764Y-94655918D01*
X153463761Y-94655919D01*
X153220384Y-94706950D01*
X153220374Y-94706953D01*
X152988730Y-94797342D01*
X152775101Y-94924637D01*
X152600301Y-95072686D01*
X152536422Y-95100992D01*
X152467380Y-95090269D01*
X152425538Y-95058205D01*
X152414647Y-95045347D01*
X152224902Y-94884639D01*
X152224894Y-94884634D01*
X152011273Y-94757344D01*
X152011271Y-94757343D01*
X152011269Y-94757342D01*
X151779625Y-94666953D01*
X151779615Y-94666950D01*
X151536238Y-94615919D01*
X151536235Y-94615918D01*
X151432850Y-94609500D01*
X151432842Y-94609500D01*
X149567158Y-94609500D01*
X149567149Y-94609500D01*
X149463764Y-94615918D01*
X149463761Y-94615919D01*
X149220384Y-94666950D01*
X149220374Y-94666953D01*
X148988730Y-94757342D01*
X148775097Y-94884639D01*
X148585350Y-95045348D01*
X148585348Y-95045350D01*
X148424639Y-95235097D01*
X148297342Y-95448730D01*
X148206953Y-95680374D01*
X148206950Y-95680384D01*
X148155919Y-95923761D01*
X148155918Y-95923764D01*
X148149500Y-96027149D01*
X148149500Y-97892850D01*
X148155918Y-97996235D01*
X148155919Y-97996238D01*
X148206950Y-98239615D01*
X148206953Y-98239625D01*
X148297342Y-98471269D01*
X148424639Y-98684902D01*
X148585348Y-98874649D01*
X148585350Y-98874651D01*
X148775097Y-99035360D01*
X148775103Y-99035363D01*
X148775106Y-99035366D01*
X148988727Y-99162656D01*
X148988730Y-99162657D01*
X149220374Y-99253046D01*
X149220381Y-99253048D01*
X149220386Y-99253050D01*
X149463763Y-99304081D01*
X149567158Y-99310500D01*
X149567169Y-99310500D01*
X150033139Y-99310500D01*
X150000000Y-99434174D01*
X150000000Y-99565826D01*
X150034075Y-99692993D01*
X150099901Y-99807007D01*
X150192993Y-99900099D01*
X150307007Y-99965925D01*
X150434174Y-100000000D01*
X150565826Y-100000000D01*
X150692993Y-99965925D01*
X150807007Y-99900099D01*
X150900099Y-99807007D01*
X150965925Y-99692993D01*
X151000000Y-99565826D01*
X151000000Y-99434174D01*
X150966861Y-99310500D01*
X151432831Y-99310500D01*
X151432842Y-99310500D01*
X151536237Y-99304081D01*
X151779614Y-99253050D01*
X151779621Y-99253046D01*
X151779625Y-99253046D01*
X151896991Y-99207249D01*
X152011273Y-99162656D01*
X152224894Y-99035366D01*
X152399700Y-98887311D01*
X152463576Y-98859006D01*
X152532618Y-98869728D01*
X152574461Y-98901793D01*
X152581403Y-98909989D01*
X152585353Y-98914654D01*
X152775097Y-99075360D01*
X152775103Y-99075363D01*
X152775106Y-99075366D01*
X152988727Y-99202656D01*
X152988730Y-99202657D01*
X153220374Y-99293046D01*
X153220381Y-99293048D01*
X153220386Y-99293050D01*
X153463763Y-99344081D01*
X153567158Y-99350500D01*
X153567169Y-99350500D01*
X154033139Y-99350500D01*
X154000000Y-99474174D01*
X154000000Y-99605826D01*
X154034075Y-99732993D01*
X154099901Y-99847007D01*
X154192993Y-99940099D01*
X154307007Y-100005925D01*
X154434174Y-100040000D01*
X154565826Y-100040000D01*
X154692993Y-100005925D01*
X154807007Y-99940099D01*
X154900099Y-99847007D01*
X154965925Y-99732993D01*
X155000000Y-99605826D01*
X155000000Y-99540000D01*
X155126000Y-99540000D01*
X155193039Y-99559685D01*
X155238794Y-99612489D01*
X155250000Y-99664000D01*
X155250000Y-100663782D01*
X155379466Y-100569721D01*
X155529723Y-100419464D01*
X155529727Y-100419459D01*
X155654620Y-100247557D01*
X155751093Y-100058221D01*
X155757568Y-100038294D01*
X155797005Y-99980618D01*
X155861363Y-99953419D01*
X155930210Y-99965333D01*
X155981686Y-100012576D01*
X155999500Y-100076611D01*
X155999500Y-102611259D01*
X155979815Y-102678298D01*
X155927011Y-102724053D01*
X155857853Y-102733997D01*
X155830425Y-102726776D01*
X155779625Y-102706953D01*
X155779615Y-102706950D01*
X155536238Y-102655919D01*
X155536235Y-102655918D01*
X155432850Y-102649500D01*
X155432842Y-102649500D01*
X153567158Y-102649500D01*
X153567149Y-102649500D01*
X153463764Y-102655918D01*
X153463761Y-102655919D01*
X153220384Y-102706950D01*
X153220374Y-102706953D01*
X152988730Y-102797342D01*
X152775097Y-102924639D01*
X152581436Y-103088664D01*
X152580141Y-103087135D01*
X152526358Y-103116503D01*
X152456666Y-103111519D01*
X152419459Y-103087606D01*
X152418564Y-103088664D01*
X152224902Y-102924639D01*
X152224894Y-102924634D01*
X152011273Y-102797344D01*
X152011271Y-102797343D01*
X152011269Y-102797342D01*
X151779625Y-102706953D01*
X151779615Y-102706950D01*
X151536238Y-102655919D01*
X151536235Y-102655918D01*
X151432850Y-102649500D01*
X151432842Y-102649500D01*
X149567158Y-102649500D01*
X149567149Y-102649500D01*
X149463764Y-102655918D01*
X149463761Y-102655919D01*
X149220384Y-102706950D01*
X149220374Y-102706953D01*
X148988730Y-102797342D01*
X148775097Y-102924639D01*
X148585350Y-103085348D01*
X148585348Y-103085350D01*
X148424639Y-103275097D01*
X148297342Y-103488730D01*
X148206953Y-103720374D01*
X148206950Y-103720384D01*
X148155919Y-103963761D01*
X148155918Y-103963764D01*
X148149500Y-104067149D01*
X148149500Y-105932850D01*
X148155918Y-106036235D01*
X148155919Y-106036238D01*
X148206950Y-106279615D01*
X148206953Y-106279625D01*
X148296847Y-106510000D01*
X148297344Y-106511273D01*
X148410153Y-106700592D01*
X148424639Y-106724902D01*
X148585348Y-106914649D01*
X148585350Y-106914651D01*
X148775097Y-107075360D01*
X148775103Y-107075363D01*
X148775106Y-107075366D01*
X148988727Y-107202656D01*
X149000498Y-107207249D01*
X149220374Y-107293046D01*
X149220381Y-107293048D01*
X149220386Y-107293050D01*
X149463763Y-107344081D01*
X149567158Y-107350500D01*
X149567169Y-107350500D01*
X150033139Y-107350500D01*
X150000000Y-107474174D01*
X150000000Y-107605826D01*
X150034075Y-107732993D01*
X150099901Y-107847007D01*
X150192993Y-107940099D01*
X150307007Y-108005925D01*
X150434174Y-108040000D01*
X150565826Y-108040000D01*
X150692993Y-108005925D01*
X150807007Y-107940099D01*
X150900099Y-107847007D01*
X150965925Y-107732993D01*
X151000000Y-107605826D01*
X151000000Y-107474174D01*
X150966861Y-107350500D01*
X151432831Y-107350500D01*
X151432842Y-107350500D01*
X151536237Y-107344081D01*
X151779614Y-107293050D01*
X151779621Y-107293046D01*
X151779625Y-107293046D01*
X151933526Y-107232993D01*
X152011273Y-107202656D01*
X152224894Y-107075366D01*
X152224898Y-107075361D01*
X152224902Y-107075360D01*
X152418564Y-106911336D01*
X152419858Y-106912864D01*
X152473642Y-106883497D01*
X152543334Y-106888481D01*
X152580540Y-106912393D01*
X152581436Y-106911336D01*
X152775097Y-107075360D01*
X152775103Y-107075363D01*
X152775106Y-107075366D01*
X152988727Y-107202656D01*
X153000498Y-107207249D01*
X153220374Y-107293046D01*
X153220381Y-107293048D01*
X153220386Y-107293050D01*
X153463763Y-107344081D01*
X153567158Y-107350500D01*
X153567169Y-107350500D01*
X154033139Y-107350500D01*
X154000000Y-107474174D01*
X154000000Y-107605826D01*
X154034075Y-107732993D01*
X154099901Y-107847007D01*
X154192993Y-107940099D01*
X154307007Y-108005925D01*
X154434174Y-108040000D01*
X154565826Y-108040000D01*
X154692993Y-108005925D01*
X154807007Y-107940099D01*
X154900099Y-107847007D01*
X154965925Y-107732993D01*
X155000000Y-107605826D01*
X155000000Y-107540000D01*
X155126000Y-107540000D01*
X155193039Y-107559685D01*
X155238794Y-107612489D01*
X155250000Y-107664000D01*
X155250000Y-108663782D01*
X155379466Y-108569721D01*
X155529723Y-108419464D01*
X155529727Y-108419459D01*
X155654620Y-108247557D01*
X155751093Y-108058221D01*
X155757568Y-108038294D01*
X155797005Y-107980618D01*
X155861363Y-107953419D01*
X155930210Y-107965333D01*
X155981686Y-108012576D01*
X155999500Y-108076611D01*
X155999500Y-134875500D01*
X155979815Y-134942539D01*
X155927011Y-134988294D01*
X155875500Y-134999500D01*
X153122414Y-134999500D01*
X153055375Y-134979815D01*
X153009620Y-134927011D01*
X152999676Y-134857853D01*
X153024039Y-134800013D01*
X153166924Y-134613803D01*
X153298041Y-134386700D01*
X153298046Y-134386690D01*
X153398394Y-134144428D01*
X153398398Y-134144419D01*
X153466270Y-133891116D01*
X153500500Y-133631120D01*
X153500500Y-133368880D01*
X153466270Y-133108884D01*
X153398398Y-132855581D01*
X153300204Y-132618520D01*
X153298046Y-132613309D01*
X153298041Y-132613299D01*
X153166924Y-132386196D01*
X153007281Y-132178148D01*
X153007274Y-132178140D01*
X152821860Y-131992726D01*
X152821851Y-131992718D01*
X152613803Y-131833075D01*
X152386700Y-131701958D01*
X152386690Y-131701953D01*
X152144428Y-131601605D01*
X152144421Y-131601603D01*
X152144419Y-131601602D01*
X151891116Y-131533730D01*
X151833339Y-131526123D01*
X151631127Y-131499500D01*
X151631120Y-131499500D01*
X151368880Y-131499500D01*
X151368872Y-131499500D01*
X151137772Y-131529926D01*
X151108884Y-131533730D01*
X150973526Y-131569999D01*
X150855581Y-131601602D01*
X150855571Y-131601605D01*
X150613309Y-131701953D01*
X150613299Y-131701958D01*
X150386196Y-131833075D01*
X150178148Y-131992718D01*
X149992718Y-132178148D01*
X149833075Y-132386196D01*
X149701958Y-132613299D01*
X149701953Y-132613309D01*
X149601605Y-132855571D01*
X149601602Y-132855581D01*
X149533730Y-133108885D01*
X149499500Y-133368872D01*
X149499500Y-133631127D01*
X149520436Y-133790140D01*
X149533730Y-133891116D01*
X149555178Y-133971161D01*
X149601602Y-134144418D01*
X149601605Y-134144428D01*
X149701953Y-134386690D01*
X149701958Y-134386700D01*
X149833075Y-134613803D01*
X149975961Y-134800013D01*
X150001156Y-134865182D01*
X149987118Y-134933627D01*
X149938304Y-134983617D01*
X149877586Y-134999500D01*
X114622414Y-134999500D01*
X114555375Y-134979815D01*
X114509620Y-134927011D01*
X114499676Y-134857853D01*
X114524039Y-134800013D01*
X114666924Y-134613803D01*
X114798041Y-134386700D01*
X114798046Y-134386690D01*
X114898394Y-134144428D01*
X114898398Y-134144419D01*
X114966270Y-133891116D01*
X115000500Y-133631120D01*
X115000500Y-133368880D01*
X114966270Y-133108884D01*
X114898398Y-132855581D01*
X114800204Y-132618520D01*
X114798046Y-132613309D01*
X114798041Y-132613299D01*
X114666924Y-132386196D01*
X114507281Y-132178148D01*
X114507274Y-132178140D01*
X114321860Y-131992726D01*
X114321851Y-131992718D01*
X114113803Y-131833075D01*
X113886700Y-131701958D01*
X113886690Y-131701953D01*
X113644428Y-131601605D01*
X113644421Y-131601603D01*
X113644419Y-131601602D01*
X113391116Y-131533730D01*
X113333339Y-131526123D01*
X113131127Y-131499500D01*
X113131120Y-131499500D01*
X112868880Y-131499500D01*
X112868872Y-131499500D01*
X112637772Y-131529926D01*
X112608884Y-131533730D01*
X112473526Y-131569999D01*
X112355581Y-131601602D01*
X112355571Y-131601605D01*
X112113309Y-131701953D01*
X112113299Y-131701958D01*
X111886196Y-131833075D01*
X111678148Y-131992718D01*
X111492718Y-132178148D01*
X111333075Y-132386196D01*
X111201958Y-132613299D01*
X111201953Y-132613309D01*
X111101605Y-132855571D01*
X111101602Y-132855581D01*
X111033730Y-133108885D01*
X110999500Y-133368872D01*
X110999500Y-133631127D01*
X111020436Y-133790140D01*
X111033730Y-133891116D01*
X111055178Y-133971161D01*
X111101602Y-134144418D01*
X111101605Y-134144428D01*
X111201953Y-134386690D01*
X111201958Y-134386700D01*
X111333075Y-134613803D01*
X111475961Y-134800013D01*
X111501156Y-134865182D01*
X111487118Y-134933627D01*
X111438304Y-134983617D01*
X111377586Y-134999500D01*
X105124500Y-134999500D01*
X105057461Y-134979815D01*
X105011706Y-134927011D01*
X105000500Y-134875500D01*
X105000500Y-131482873D01*
X105020185Y-131415834D01*
X105072989Y-131370079D01*
X105142147Y-131360135D01*
X105202188Y-131386227D01*
X105263724Y-131435692D01*
X105435397Y-131520834D01*
X105621361Y-131567081D01*
X105621357Y-131567081D01*
X105664395Y-131569999D01*
X107339338Y-131569999D01*
X107339339Y-131569998D01*
X106187351Y-130418010D01*
X106153866Y-130356687D01*
X106158850Y-130286995D01*
X106187351Y-130242648D01*
X106205735Y-130224262D01*
X106261592Y-130280119D01*
X106398409Y-130359111D01*
X106551009Y-130400000D01*
X106708991Y-130400000D01*
X106861591Y-130359111D01*
X106998408Y-130280119D01*
X107110119Y-130168408D01*
X107189111Y-130031591D01*
X107230000Y-129878991D01*
X107230000Y-129799999D01*
X107690660Y-129799999D01*
X107690660Y-129800001D01*
X108399998Y-130509339D01*
X108399999Y-130509338D01*
X108399999Y-129339094D01*
X139010218Y-129339094D01*
X139010218Y-129613623D01*
X139040061Y-129840296D01*
X139046050Y-129885782D01*
X139117099Y-130150942D01*
X139117102Y-130150952D01*
X139222149Y-130404557D01*
X139222154Y-130404568D01*
X139359404Y-130642290D01*
X139359415Y-130642306D01*
X139526520Y-130860083D01*
X139526526Y-130860090D01*
X139720627Y-131054191D01*
X139720633Y-131054196D01*
X139938420Y-131221309D01*
X139938427Y-131221313D01*
X140176149Y-131358563D01*
X140176154Y-131358565D01*
X140176157Y-131358567D01*
X140429775Y-131463619D01*
X140694936Y-131534668D01*
X140941133Y-131567081D01*
X140963296Y-131569999D01*
X140967102Y-131570500D01*
X140967109Y-131570500D01*
X141241609Y-131570500D01*
X141241616Y-131570500D01*
X141245429Y-131569998D01*
X145290659Y-131569998D01*
X145290660Y-131569999D01*
X146709339Y-131569999D01*
X146709339Y-131569998D01*
X146000000Y-130860660D01*
X145290659Y-131569998D01*
X141245429Y-131569998D01*
X141513782Y-131534668D01*
X141778943Y-131463619D01*
X141846365Y-131435692D01*
X141868936Y-131426343D01*
X141922049Y-131404342D01*
X142032561Y-131358567D01*
X142270298Y-131221309D01*
X142488085Y-131054196D01*
X142682196Y-130860085D01*
X142849309Y-130642298D01*
X142926073Y-130509339D01*
X144230000Y-130509339D01*
X144939340Y-129800000D01*
X144939340Y-129799999D01*
X144860350Y-129721009D01*
X145400000Y-129721009D01*
X145400000Y-129878991D01*
X145440889Y-130031591D01*
X145519881Y-130168408D01*
X145631592Y-130280119D01*
X145768409Y-130359111D01*
X145921009Y-130400000D01*
X146078991Y-130400000D01*
X146231591Y-130359111D01*
X146368408Y-130280119D01*
X146480119Y-130168408D01*
X146559111Y-130031591D01*
X146600000Y-129878991D01*
X146600000Y-129799999D01*
X147060660Y-129799999D01*
X147060660Y-129800001D01*
X147769998Y-130509339D01*
X147769999Y-130509338D01*
X147769999Y-129090660D01*
X147769998Y-129090659D01*
X147060660Y-129799999D01*
X146600000Y-129799999D01*
X146600000Y-129721009D01*
X146559111Y-129568409D01*
X146480119Y-129431592D01*
X146368408Y-129319881D01*
X146231591Y-129240889D01*
X146078991Y-129200000D01*
X145921009Y-129200000D01*
X145768409Y-129240889D01*
X145631592Y-129319881D01*
X145519881Y-129431592D01*
X145440889Y-129568409D01*
X145400000Y-129721009D01*
X144860350Y-129721009D01*
X144230000Y-129090659D01*
X144230000Y-130509339D01*
X142926073Y-130509339D01*
X142986567Y-130404561D01*
X143091619Y-130150943D01*
X143162668Y-129885782D01*
X143198500Y-129613616D01*
X143198500Y-129339102D01*
X143162668Y-129066936D01*
X143117360Y-128897844D01*
X150900000Y-128897844D01*
X150906401Y-128957372D01*
X150906403Y-128957379D01*
X150956645Y-129092086D01*
X150956649Y-129092093D01*
X151042809Y-129207187D01*
X151042812Y-129207190D01*
X151157906Y-129293350D01*
X151157913Y-129293354D01*
X151292620Y-129343596D01*
X151292627Y-129343598D01*
X151352155Y-129349999D01*
X151352172Y-129350000D01*
X151500000Y-129350000D01*
X153000000Y-129350000D01*
X153147828Y-129350000D01*
X153147844Y-129349999D01*
X153207372Y-129343598D01*
X153207379Y-129343596D01*
X153342086Y-129293354D01*
X153342093Y-129293350D01*
X153457187Y-129207190D01*
X153457190Y-129207187D01*
X153543350Y-129092093D01*
X153543354Y-129092086D01*
X153593596Y-128957379D01*
X153593598Y-128957372D01*
X153599999Y-128897844D01*
X153600000Y-128897827D01*
X153600000Y-128750000D01*
X153000000Y-128750000D01*
X153000000Y-129350000D01*
X151500000Y-129350000D01*
X151500000Y-128750000D01*
X150900000Y-128750000D01*
X150900000Y-128897844D01*
X143117360Y-128897844D01*
X143091619Y-128801775D01*
X142986567Y-128548157D01*
X142986565Y-128548154D01*
X142986563Y-128548149D01*
X142849313Y-128310427D01*
X142849309Y-128310420D01*
X142759205Y-128192993D01*
X142714384Y-128134581D01*
X142682197Y-128092634D01*
X142682191Y-128092627D01*
X142619564Y-128030000D01*
X145290659Y-128030000D01*
X146000000Y-128739340D01*
X146000001Y-128739340D01*
X146128384Y-128610957D01*
X146709339Y-128030000D01*
X145290659Y-128030000D01*
X142619564Y-128030000D01*
X142523738Y-127934174D01*
X151750000Y-127934174D01*
X151750000Y-128065826D01*
X151784075Y-128192993D01*
X151849901Y-128307007D01*
X151942993Y-128400099D01*
X152057007Y-128465925D01*
X152184174Y-128500000D01*
X152315826Y-128500000D01*
X152442993Y-128465925D01*
X152557007Y-128400099D01*
X152650099Y-128307007D01*
X152715925Y-128192993D01*
X152750000Y-128065826D01*
X152750000Y-127934174D01*
X152715925Y-127807007D01*
X152650099Y-127692993D01*
X152557007Y-127599901D01*
X152442993Y-127534075D01*
X152315826Y-127500000D01*
X152184174Y-127500000D01*
X152057007Y-127534075D01*
X151942993Y-127599901D01*
X151849901Y-127692993D01*
X151784075Y-127807007D01*
X151750000Y-127934174D01*
X142523738Y-127934174D01*
X142488090Y-127898526D01*
X142488083Y-127898520D01*
X142270306Y-127731415D01*
X142270304Y-127731413D01*
X142270298Y-127731409D01*
X142270293Y-127731406D01*
X142270290Y-127731404D01*
X142032568Y-127594154D01*
X142032557Y-127594149D01*
X141778952Y-127489102D01*
X141778945Y-127489100D01*
X141778943Y-127489099D01*
X141513782Y-127418050D01*
X141468296Y-127412061D01*
X141241623Y-127382218D01*
X141241616Y-127382218D01*
X140967102Y-127382218D01*
X140967094Y-127382218D01*
X140708038Y-127416324D01*
X140694936Y-127418050D01*
X140429775Y-127489099D01*
X140429765Y-127489102D01*
X140176160Y-127594149D01*
X140176149Y-127594154D01*
X139938427Y-127731404D01*
X139938411Y-127731415D01*
X139720634Y-127898520D01*
X139720627Y-127898526D01*
X139526526Y-128092627D01*
X139526520Y-128092634D01*
X139359415Y-128310411D01*
X139359404Y-128310427D01*
X139222154Y-128548149D01*
X139222149Y-128548160D01*
X139117102Y-128801765D01*
X139117099Y-128801775D01*
X139053295Y-129039899D01*
X139046051Y-129066933D01*
X139046049Y-129066944D01*
X139010218Y-129339094D01*
X108399999Y-129339094D01*
X108399999Y-129090660D01*
X108399998Y-129090659D01*
X107690660Y-129799999D01*
X107230000Y-129799999D01*
X107230000Y-129721009D01*
X107189111Y-129568409D01*
X107110119Y-129431592D01*
X106998408Y-129319881D01*
X106861591Y-129240889D01*
X106708991Y-129200000D01*
X106551009Y-129200000D01*
X106398409Y-129240889D01*
X106261592Y-129319881D01*
X106205736Y-129375736D01*
X106187350Y-129357350D01*
X106153865Y-129296027D01*
X106158849Y-129226335D01*
X106187350Y-129181988D01*
X107339338Y-128030000D01*
X105664394Y-128030000D01*
X105664390Y-128030001D01*
X105621367Y-128032917D01*
X105621365Y-128032917D01*
X105435397Y-128079165D01*
X105263724Y-128164307D01*
X105202187Y-128213773D01*
X105137603Y-128240432D01*
X105068859Y-128227942D01*
X105017781Y-128180268D01*
X105000500Y-128117126D01*
X105000500Y-127102155D01*
X150900000Y-127102155D01*
X150900000Y-127250000D01*
X151500000Y-127250000D01*
X153000000Y-127250000D01*
X153600000Y-127250000D01*
X153600000Y-127102172D01*
X153599999Y-127102155D01*
X153593598Y-127042627D01*
X153593596Y-127042620D01*
X153543354Y-126907913D01*
X153543350Y-126907906D01*
X153457190Y-126792812D01*
X153457187Y-126792809D01*
X153342093Y-126706649D01*
X153342086Y-126706645D01*
X153210013Y-126657385D01*
X153154079Y-126615514D01*
X153129662Y-126550049D01*
X153144514Y-126481776D01*
X153165665Y-126453521D01*
X153279724Y-126339462D01*
X153373783Y-126210000D01*
X153000000Y-126210000D01*
X153000000Y-127250000D01*
X151500000Y-127250000D01*
X151500000Y-126210000D01*
X151126217Y-126210000D01*
X151220278Y-126339466D01*
X151334334Y-126453522D01*
X151367819Y-126514845D01*
X151362835Y-126584537D01*
X151320963Y-126640470D01*
X151289987Y-126657385D01*
X151157911Y-126706646D01*
X151157906Y-126706649D01*
X151042812Y-126792809D01*
X151042809Y-126792812D01*
X150956649Y-126907906D01*
X150956645Y-126907913D01*
X150906403Y-127042620D01*
X150906401Y-127042627D01*
X150900000Y-127102155D01*
X105000500Y-127102155D01*
X105000500Y-125394174D01*
X151750000Y-125394174D01*
X151750000Y-125525826D01*
X151784075Y-125652993D01*
X151849901Y-125767007D01*
X151942993Y-125860099D01*
X152057007Y-125925925D01*
X152184174Y-125960000D01*
X152315826Y-125960000D01*
X152442993Y-125925925D01*
X152557007Y-125860099D01*
X152650099Y-125767007D01*
X152715925Y-125652993D01*
X152750000Y-125525826D01*
X152750000Y-125394174D01*
X152715925Y-125267007D01*
X152650099Y-125152993D01*
X152557007Y-125059901D01*
X152442993Y-124994075D01*
X152315826Y-124960000D01*
X152184174Y-124960000D01*
X152057007Y-124994075D01*
X151942993Y-125059901D01*
X151849901Y-125152993D01*
X151784075Y-125267007D01*
X151750000Y-125394174D01*
X105000500Y-125394174D01*
X105000500Y-124710000D01*
X151126217Y-124710000D01*
X151500000Y-124710000D01*
X153000000Y-124710000D01*
X153373783Y-124710000D01*
X153279721Y-124580533D01*
X153129468Y-124430280D01*
X153000000Y-124336215D01*
X153000000Y-124710000D01*
X151500000Y-124710000D01*
X151500000Y-124336215D01*
X151499999Y-124336215D01*
X151370532Y-124430280D01*
X151370531Y-124430280D01*
X151220278Y-124580533D01*
X151126217Y-124710000D01*
X105000500Y-124710000D01*
X105000500Y-123670000D01*
X151126217Y-123670000D01*
X151220278Y-123799466D01*
X151370533Y-123949721D01*
X151500000Y-124043783D01*
X151500000Y-124043782D01*
X153000000Y-124043782D01*
X153129466Y-123949721D01*
X153279721Y-123799466D01*
X153373783Y-123670000D01*
X153000000Y-123670000D01*
X153000000Y-124043782D01*
X151500000Y-124043782D01*
X151500000Y-123670000D01*
X151126217Y-123670000D01*
X105000500Y-123670000D01*
X105000500Y-115326665D01*
X105020185Y-115259626D01*
X105072989Y-115213871D01*
X105142147Y-115203927D01*
X105166672Y-115210057D01*
X105230577Y-115233170D01*
X105500453Y-115288134D01*
X105662380Y-115298500D01*
X105662390Y-115298500D01*
X107597610Y-115298500D01*
X107597620Y-115298500D01*
X107759547Y-115288134D01*
X108029423Y-115233170D01*
X108288420Y-115139498D01*
X108531018Y-115009114D01*
X108752047Y-114844796D01*
X108946796Y-114650047D01*
X109111114Y-114429018D01*
X109241498Y-114186420D01*
X109335170Y-113927423D01*
X109385521Y-113680193D01*
X109418188Y-113618434D01*
X109479061Y-113584138D01*
X109548812Y-113588196D01*
X109605297Y-113629320D01*
X109621587Y-113657490D01*
X109621611Y-113657547D01*
X109643447Y-113710264D01*
X109780713Y-113948016D01*
X109780715Y-113948019D01*
X109780716Y-113948020D01*
X109947836Y-114165815D01*
X109947842Y-114165822D01*
X110141956Y-114359936D01*
X110141962Y-114359941D01*
X110359763Y-114527066D01*
X110597515Y-114664332D01*
X110851151Y-114769391D01*
X111116329Y-114840446D01*
X111320467Y-114867320D01*
X111388512Y-114876279D01*
X111388513Y-114876279D01*
X111663046Y-114876279D01*
X111717481Y-114869112D01*
X111935229Y-114840446D01*
X112200407Y-114769391D01*
X112454043Y-114664332D01*
X112691795Y-114527066D01*
X112909596Y-114359941D01*
X113103720Y-114165817D01*
X113270845Y-113948016D01*
X113408111Y-113710264D01*
X113513170Y-113456628D01*
X113584225Y-113191450D01*
X113620058Y-112919266D01*
X113620058Y-112644734D01*
X113584225Y-112372550D01*
X113513170Y-112107372D01*
X113408111Y-111853736D01*
X113270845Y-111615984D01*
X113228179Y-111560380D01*
X143229500Y-111560380D01*
X143229500Y-113495620D01*
X143239866Y-113657547D01*
X143294830Y-113927423D01*
X143388502Y-114186420D01*
X143388505Y-114186427D01*
X143518888Y-114429022D01*
X143683196Y-114650037D01*
X143683212Y-114650056D01*
X143877943Y-114844787D01*
X143877949Y-114844792D01*
X143877953Y-114844796D01*
X143877958Y-114844800D01*
X143877962Y-114844803D01*
X144098977Y-115009111D01*
X144098980Y-115009112D01*
X144098982Y-115009114D01*
X144222882Y-115075704D01*
X144341572Y-115139494D01*
X144341573Y-115139494D01*
X144341580Y-115139498D01*
X144600577Y-115233170D01*
X144870453Y-115288134D01*
X145032380Y-115298500D01*
X145032390Y-115298500D01*
X146967610Y-115298500D01*
X146967620Y-115298500D01*
X147129547Y-115288134D01*
X147399423Y-115233170D01*
X147658420Y-115139498D01*
X147901018Y-115009114D01*
X148122047Y-114844796D01*
X148316796Y-114650047D01*
X148481114Y-114429018D01*
X148611498Y-114186420D01*
X148705170Y-113927423D01*
X148760134Y-113657547D01*
X148770500Y-113495620D01*
X148770500Y-111560380D01*
X148760134Y-111398453D01*
X148754109Y-111368872D01*
X149499500Y-111368872D01*
X149499500Y-111631127D01*
X149507527Y-111692091D01*
X149533730Y-111891116D01*
X149598831Y-112134076D01*
X149601602Y-112144418D01*
X149601605Y-112144428D01*
X149701953Y-112386690D01*
X149701958Y-112386700D01*
X149833075Y-112613803D01*
X149992718Y-112821851D01*
X149992726Y-112821860D01*
X150178140Y-113007274D01*
X150178148Y-113007281D01*
X150178149Y-113007282D01*
X150200134Y-113024152D01*
X150386196Y-113166924D01*
X150613299Y-113298041D01*
X150613301Y-113298041D01*
X150613303Y-113298043D01*
X150664720Y-113319340D01*
X150719122Y-113363180D01*
X150741188Y-113429473D01*
X150723910Y-113497173D01*
X150699027Y-113527128D01*
X150696880Y-113529010D01*
X150479013Y-113746877D01*
X150479007Y-113746884D01*
X150291441Y-113991325D01*
X150137381Y-114258162D01*
X150137376Y-114258173D01*
X150019464Y-114542837D01*
X149939717Y-114840457D01*
X149899501Y-115145930D01*
X149899500Y-115145946D01*
X149899500Y-115454053D01*
X149899501Y-115454069D01*
X149939717Y-115759542D01*
X150019464Y-116057162D01*
X150137375Y-116341823D01*
X150137383Y-116341840D01*
X150233315Y-116508001D01*
X150249788Y-116575901D01*
X150233315Y-116631999D01*
X150137383Y-116798159D01*
X150137375Y-116798176D01*
X150019464Y-117082837D01*
X149939717Y-117380457D01*
X149899501Y-117685930D01*
X149899500Y-117685946D01*
X149899500Y-117994053D01*
X149899501Y-117994069D01*
X149939717Y-118299542D01*
X150019464Y-118597162D01*
X150137375Y-118881823D01*
X150137383Y-118881840D01*
X150233315Y-119048001D01*
X150249788Y-119115901D01*
X150233315Y-119171999D01*
X150137383Y-119338159D01*
X150137375Y-119338176D01*
X150019464Y-119622837D01*
X149939717Y-119920457D01*
X149899501Y-120225930D01*
X149899500Y-120225946D01*
X149899500Y-120534053D01*
X149899501Y-120534069D01*
X149939717Y-120839542D01*
X150019464Y-121137162D01*
X150137376Y-121421826D01*
X150137381Y-121421837D01*
X150230014Y-121582280D01*
X150291438Y-121688670D01*
X150291440Y-121688673D01*
X150291441Y-121688674D01*
X150479007Y-121933115D01*
X150479013Y-121933122D01*
X150696877Y-122150986D01*
X150696883Y-122150991D01*
X150941330Y-122338562D01*
X151082385Y-122420000D01*
X151208162Y-122492618D01*
X151208167Y-122492620D01*
X151208170Y-122492622D01*
X151492836Y-122610535D01*
X151790456Y-122690282D01*
X151804231Y-122692095D01*
X151784075Y-122727007D01*
X151750000Y-122854174D01*
X151750000Y-122985826D01*
X151784075Y-123112993D01*
X151849901Y-123227007D01*
X151942993Y-123320099D01*
X152057007Y-123385925D01*
X152184174Y-123420000D01*
X152315826Y-123420000D01*
X152442993Y-123385925D01*
X152557007Y-123320099D01*
X152650099Y-123227007D01*
X152715925Y-123112993D01*
X152750000Y-122985826D01*
X152750000Y-122854174D01*
X152715925Y-122727007D01*
X152695768Y-122692095D01*
X152709544Y-122690282D01*
X153007164Y-122610535D01*
X153291830Y-122492622D01*
X153558670Y-122338562D01*
X153803117Y-122150991D01*
X154020991Y-121933117D01*
X154208562Y-121688670D01*
X154362622Y-121421830D01*
X154480535Y-121137164D01*
X154560282Y-120839544D01*
X154600500Y-120534060D01*
X154600500Y-120225940D01*
X154560282Y-119920456D01*
X154480535Y-119622836D01*
X154362622Y-119338170D01*
X154266682Y-119171997D01*
X154250210Y-119104101D01*
X154266681Y-119048003D01*
X154362622Y-118881830D01*
X154480535Y-118597164D01*
X154560282Y-118299544D01*
X154600500Y-117994060D01*
X154600500Y-117685940D01*
X154560282Y-117380456D01*
X154480535Y-117082836D01*
X154362622Y-116798170D01*
X154266682Y-116631997D01*
X154250210Y-116564101D01*
X154266681Y-116508003D01*
X154362622Y-116341830D01*
X154480535Y-116057164D01*
X154560282Y-115759544D01*
X154600500Y-115454060D01*
X154600500Y-115145940D01*
X154560282Y-114840456D01*
X154480535Y-114542836D01*
X154362622Y-114258170D01*
X154362620Y-114258167D01*
X154362618Y-114258162D01*
X154290863Y-114133880D01*
X154208562Y-113991330D01*
X154020991Y-113746883D01*
X154020986Y-113746877D01*
X153803122Y-113529013D01*
X153803115Y-113529007D01*
X153558674Y-113341441D01*
X153558673Y-113341440D01*
X153558670Y-113341438D01*
X153452280Y-113280014D01*
X153291837Y-113187381D01*
X153291826Y-113187376D01*
X153003610Y-113067993D01*
X152949207Y-113024152D01*
X152927142Y-112957858D01*
X152944421Y-112890158D01*
X152963383Y-112865750D01*
X153007274Y-112821859D01*
X153007282Y-112821851D01*
X153166924Y-112613803D01*
X153298043Y-112386697D01*
X153398398Y-112144419D01*
X153466270Y-111891116D01*
X153500500Y-111631120D01*
X153500500Y-111368880D01*
X153466270Y-111108884D01*
X153398398Y-110855581D01*
X153328868Y-110687721D01*
X153298046Y-110613309D01*
X153298041Y-110613299D01*
X153166924Y-110386196D01*
X153007281Y-110178148D01*
X153007274Y-110178140D01*
X152821860Y-109992726D01*
X152821851Y-109992718D01*
X152613803Y-109833075D01*
X152386700Y-109701958D01*
X152386690Y-109701953D01*
X152144428Y-109601605D01*
X152144421Y-109601603D01*
X152144419Y-109601602D01*
X151891116Y-109533730D01*
X151833339Y-109526123D01*
X151631127Y-109499500D01*
X151631120Y-109499500D01*
X151368880Y-109499500D01*
X151368872Y-109499500D01*
X151137772Y-109529926D01*
X151108884Y-109533730D01*
X150855581Y-109601602D01*
X150855571Y-109601605D01*
X150613309Y-109701953D01*
X150613299Y-109701958D01*
X150386196Y-109833075D01*
X150178148Y-109992718D01*
X149992718Y-110178148D01*
X149833075Y-110386196D01*
X149701958Y-110613299D01*
X149701953Y-110613309D01*
X149601605Y-110855571D01*
X149601602Y-110855581D01*
X149533730Y-111108885D01*
X149499500Y-111368872D01*
X148754109Y-111368872D01*
X148705170Y-111128577D01*
X148611498Y-110869580D01*
X148603974Y-110855581D01*
X148535071Y-110727376D01*
X148481114Y-110626982D01*
X148481112Y-110626980D01*
X148481111Y-110626977D01*
X148316803Y-110405962D01*
X148316800Y-110405958D01*
X148316796Y-110405953D01*
X148316792Y-110405949D01*
X148316787Y-110405943D01*
X148122056Y-110211212D01*
X148122049Y-110211206D01*
X148122047Y-110211204D01*
X148122042Y-110211200D01*
X148122037Y-110211196D01*
X147901022Y-110046888D01*
X147658427Y-109916505D01*
X147658422Y-109916503D01*
X147658420Y-109916502D01*
X147399423Y-109822830D01*
X147129547Y-109767866D01*
X146967620Y-109757500D01*
X145032380Y-109757500D01*
X144870453Y-109767866D01*
X144600577Y-109822830D01*
X144341580Y-109916502D01*
X144341572Y-109916505D01*
X144098977Y-110046888D01*
X143877962Y-110211196D01*
X143877943Y-110211212D01*
X143683212Y-110405943D01*
X143683196Y-110405962D01*
X143518888Y-110626977D01*
X143388505Y-110869572D01*
X143388502Y-110869579D01*
X143388502Y-110869580D01*
X143294830Y-111128577D01*
X143239866Y-111398453D01*
X143229500Y-111560380D01*
X113228179Y-111560380D01*
X113201906Y-111526141D01*
X113103721Y-111398184D01*
X113103715Y-111398177D01*
X112909601Y-111204063D01*
X112909594Y-111204057D01*
X112691799Y-111036937D01*
X112691798Y-111036936D01*
X112691795Y-111036934D01*
X112454043Y-110899668D01*
X112381385Y-110869572D01*
X112200411Y-110794610D01*
X111935225Y-110723553D01*
X111663046Y-110687721D01*
X111663045Y-110687721D01*
X111388513Y-110687721D01*
X111388512Y-110687721D01*
X111116332Y-110723553D01*
X110851146Y-110794610D01*
X110597521Y-110899665D01*
X110597512Y-110899669D01*
X110359758Y-111036937D01*
X110141963Y-111204057D01*
X110141956Y-111204063D01*
X109947842Y-111398177D01*
X109947836Y-111398184D01*
X109780716Y-111615979D01*
X109643448Y-111853733D01*
X109643443Y-111853742D01*
X109639061Y-111864324D01*
X109595220Y-111918727D01*
X109528926Y-111940792D01*
X109461226Y-111923513D01*
X109413616Y-111872375D01*
X109400500Y-111816871D01*
X109400500Y-111560389D01*
X109400500Y-111560380D01*
X109390134Y-111398453D01*
X109335170Y-111128577D01*
X109241498Y-110869580D01*
X109233974Y-110855581D01*
X109165071Y-110727376D01*
X109111114Y-110626982D01*
X109111112Y-110626980D01*
X109111111Y-110626977D01*
X108946803Y-110405962D01*
X108946800Y-110405958D01*
X108946796Y-110405953D01*
X108946792Y-110405949D01*
X108946787Y-110405943D01*
X108752056Y-110211212D01*
X108752049Y-110211206D01*
X108752047Y-110211204D01*
X108752042Y-110211200D01*
X108752037Y-110211196D01*
X108531022Y-110046888D01*
X108288427Y-109916505D01*
X108288422Y-109916503D01*
X108288420Y-109916502D01*
X108029423Y-109822830D01*
X107759547Y-109767866D01*
X107597620Y-109757500D01*
X105662380Y-109757500D01*
X105500453Y-109767866D01*
X105230577Y-109822830D01*
X105230570Y-109822832D01*
X105166673Y-109845942D01*
X105096935Y-109850231D01*
X105035949Y-109816137D01*
X105003077Y-109754483D01*
X105000500Y-109729334D01*
X105000500Y-108792873D01*
X105020185Y-108725834D01*
X105072989Y-108680079D01*
X105142147Y-108670135D01*
X105202188Y-108696227D01*
X105263724Y-108745692D01*
X105435397Y-108830834D01*
X105621361Y-108877081D01*
X105621357Y-108877081D01*
X105664395Y-108879999D01*
X107339338Y-108879999D01*
X107339339Y-108879998D01*
X106187351Y-107728010D01*
X106153866Y-107666687D01*
X106158850Y-107596995D01*
X106187351Y-107552648D01*
X106205735Y-107534262D01*
X106261592Y-107590119D01*
X106398409Y-107669111D01*
X106551009Y-107710000D01*
X106708991Y-107710000D01*
X106861591Y-107669111D01*
X106998408Y-107590119D01*
X107110119Y-107478408D01*
X107189111Y-107341591D01*
X107230000Y-107188991D01*
X107230000Y-107109999D01*
X107690660Y-107109999D01*
X107690660Y-107110001D01*
X108399998Y-107819339D01*
X108399999Y-107819338D01*
X108399999Y-106649094D01*
X139010218Y-106649094D01*
X139010218Y-106923623D01*
X139038693Y-107139901D01*
X139046050Y-107195782D01*
X139117099Y-107460942D01*
X139117102Y-107460952D01*
X139222149Y-107714557D01*
X139222154Y-107714568D01*
X139359404Y-107952290D01*
X139359415Y-107952306D01*
X139526520Y-108170083D01*
X139526526Y-108170090D01*
X139720627Y-108364191D01*
X139720634Y-108364197D01*
X139875702Y-108483184D01*
X139938420Y-108531309D01*
X139938427Y-108531313D01*
X140176149Y-108668563D01*
X140176154Y-108668565D01*
X140176157Y-108668567D01*
X140429775Y-108773619D01*
X140694936Y-108844668D01*
X140941133Y-108877081D01*
X140963296Y-108879999D01*
X140967102Y-108880500D01*
X140967109Y-108880500D01*
X141241609Y-108880500D01*
X141241616Y-108880500D01*
X141245429Y-108879998D01*
X145290659Y-108879998D01*
X145290660Y-108879999D01*
X146709339Y-108879999D01*
X146709339Y-108879998D01*
X146218431Y-108389091D01*
X146119340Y-108290000D01*
X149376217Y-108290000D01*
X149470278Y-108419466D01*
X149620533Y-108569721D01*
X149750000Y-108663783D01*
X149750000Y-108663782D01*
X151250000Y-108663782D01*
X151379466Y-108569721D01*
X151529721Y-108419466D01*
X151623783Y-108290000D01*
X153376217Y-108290000D01*
X153470278Y-108419466D01*
X153620533Y-108569721D01*
X153750000Y-108663783D01*
X153750000Y-108290000D01*
X153376217Y-108290000D01*
X151623783Y-108290000D01*
X151250000Y-108290000D01*
X151250000Y-108663782D01*
X149750000Y-108663782D01*
X149750000Y-108290000D01*
X149376217Y-108290000D01*
X146119340Y-108290000D01*
X146000000Y-108170660D01*
X145290659Y-108879998D01*
X141245429Y-108879998D01*
X141513782Y-108844668D01*
X141778943Y-108773619D01*
X141846365Y-108745692D01*
X141868936Y-108736343D01*
X141922049Y-108714342D01*
X142032561Y-108668567D01*
X142270298Y-108531309D01*
X142488085Y-108364196D01*
X142682196Y-108170085D01*
X142849309Y-107952298D01*
X142926073Y-107819339D01*
X144230000Y-107819339D01*
X144939340Y-107110000D01*
X144939340Y-107109999D01*
X144860350Y-107031009D01*
X145400000Y-107031009D01*
X145400000Y-107188991D01*
X145440889Y-107341591D01*
X145519881Y-107478408D01*
X145631592Y-107590119D01*
X145768409Y-107669111D01*
X145921009Y-107710000D01*
X146078991Y-107710000D01*
X146231591Y-107669111D01*
X146368408Y-107590119D01*
X146480119Y-107478408D01*
X146559111Y-107341591D01*
X146600000Y-107188991D01*
X146600000Y-107109999D01*
X147060660Y-107109999D01*
X147060660Y-107110001D01*
X147769998Y-107819339D01*
X147769999Y-107819338D01*
X147769999Y-106400660D01*
X147769998Y-106400659D01*
X147060660Y-107109999D01*
X146600000Y-107109999D01*
X146600000Y-107031009D01*
X146559111Y-106878409D01*
X146480119Y-106741592D01*
X146368408Y-106629881D01*
X146231591Y-106550889D01*
X146078991Y-106510000D01*
X145921009Y-106510000D01*
X145768409Y-106550889D01*
X145631592Y-106629881D01*
X145519881Y-106741592D01*
X145440889Y-106878409D01*
X145400000Y-107031009D01*
X144860350Y-107031009D01*
X144230000Y-106400659D01*
X144230000Y-107819339D01*
X142926073Y-107819339D01*
X142986567Y-107714561D01*
X143091619Y-107460943D01*
X143162668Y-107195782D01*
X143198500Y-106923616D01*
X143198500Y-106649102D01*
X143162668Y-106376936D01*
X143091619Y-106111775D01*
X142986567Y-105858157D01*
X142986565Y-105858154D01*
X142986563Y-105858149D01*
X142849313Y-105620427D01*
X142849309Y-105620420D01*
X142775150Y-105523773D01*
X142714384Y-105444581D01*
X142682197Y-105402634D01*
X142682191Y-105402627D01*
X142619564Y-105340000D01*
X145290659Y-105340000D01*
X146000000Y-106049340D01*
X146000001Y-106049340D01*
X146709339Y-105340000D01*
X145290659Y-105340000D01*
X142619564Y-105340000D01*
X142488090Y-105208526D01*
X142488083Y-105208520D01*
X142270306Y-105041415D01*
X142270304Y-105041413D01*
X142270298Y-105041409D01*
X142270293Y-105041406D01*
X142270290Y-105041404D01*
X142032568Y-104904154D01*
X142032557Y-104904149D01*
X141778952Y-104799102D01*
X141778945Y-104799100D01*
X141778943Y-104799099D01*
X141513782Y-104728050D01*
X141468296Y-104722061D01*
X141241623Y-104692218D01*
X141241616Y-104692218D01*
X140967102Y-104692218D01*
X140967094Y-104692218D01*
X140708038Y-104726324D01*
X140694936Y-104728050D01*
X140429775Y-104799099D01*
X140429765Y-104799102D01*
X140176160Y-104904149D01*
X140176149Y-104904154D01*
X139938427Y-105041404D01*
X139938411Y-105041415D01*
X139720634Y-105208520D01*
X139720627Y-105208526D01*
X139526526Y-105402627D01*
X139526520Y-105402634D01*
X139359415Y-105620411D01*
X139359404Y-105620427D01*
X139222154Y-105858149D01*
X139222149Y-105858160D01*
X139117102Y-106111765D01*
X139117099Y-106111775D01*
X139053295Y-106349899D01*
X139046051Y-106376933D01*
X139046049Y-106376944D01*
X139010218Y-106649094D01*
X108399999Y-106649094D01*
X108399999Y-106400660D01*
X108399998Y-106400659D01*
X107690660Y-107109999D01*
X107230000Y-107109999D01*
X107230000Y-107031009D01*
X107189111Y-106878409D01*
X107110119Y-106741592D01*
X106998408Y-106629881D01*
X106861591Y-106550889D01*
X106708991Y-106510000D01*
X106551009Y-106510000D01*
X106398409Y-106550889D01*
X106261592Y-106629881D01*
X106205736Y-106685736D01*
X106187350Y-106667350D01*
X106153865Y-106606027D01*
X106158849Y-106536335D01*
X106187350Y-106491988D01*
X107339338Y-105340000D01*
X105664394Y-105340000D01*
X105664390Y-105340001D01*
X105621367Y-105342917D01*
X105621365Y-105342917D01*
X105435397Y-105389165D01*
X105263724Y-105474307D01*
X105202187Y-105523773D01*
X105137603Y-105550432D01*
X105068859Y-105537942D01*
X105017781Y-105490268D01*
X105000500Y-105427126D01*
X105000500Y-100250000D01*
X149376217Y-100250000D01*
X149470278Y-100379466D01*
X149620533Y-100529721D01*
X149750000Y-100623783D01*
X149750000Y-100623782D01*
X151250000Y-100623782D01*
X151379466Y-100529721D01*
X151529727Y-100379460D01*
X151594722Y-100290000D01*
X153376217Y-100290000D01*
X153470278Y-100419466D01*
X153620533Y-100569721D01*
X153750000Y-100663783D01*
X153750000Y-100290000D01*
X153376217Y-100290000D01*
X151594722Y-100290000D01*
X151623783Y-100250000D01*
X151250000Y-100250000D01*
X151250000Y-100623782D01*
X149750000Y-100623782D01*
X149750000Y-100250000D01*
X149376217Y-100250000D01*
X105000500Y-100250000D01*
X105000500Y-92750000D01*
X149376217Y-92750000D01*
X149470278Y-92879466D01*
X149620533Y-93029721D01*
X149750000Y-93123783D01*
X149750000Y-93123782D01*
X151250000Y-93123782D01*
X151379466Y-93029721D01*
X151529721Y-92879466D01*
X151623783Y-92750000D01*
X153376217Y-92750000D01*
X153470278Y-92879466D01*
X153620533Y-93029721D01*
X153750000Y-93123783D01*
X153750000Y-92750000D01*
X153376217Y-92750000D01*
X151623783Y-92750000D01*
X151250000Y-92750000D01*
X151250000Y-93123782D01*
X149750000Y-93123782D01*
X149750000Y-92750000D01*
X149376217Y-92750000D01*
X105000500Y-92750000D01*
X105000500Y-92636665D01*
X105020185Y-92569626D01*
X105072989Y-92523871D01*
X105142147Y-92513927D01*
X105166672Y-92520057D01*
X105230577Y-92543170D01*
X105500453Y-92598134D01*
X105662380Y-92608500D01*
X105662390Y-92608500D01*
X107597610Y-92608500D01*
X107597620Y-92608500D01*
X107759547Y-92598134D01*
X108029423Y-92543170D01*
X108288420Y-92449498D01*
X108531018Y-92319114D01*
X108752047Y-92154796D01*
X108946796Y-91960047D01*
X109111114Y-91739018D01*
X109241498Y-91496420D01*
X109335170Y-91237423D01*
X109385521Y-90990193D01*
X109418188Y-90928434D01*
X109479061Y-90894138D01*
X109548812Y-90898196D01*
X109605297Y-90939320D01*
X109621587Y-90967490D01*
X109621611Y-90967547D01*
X109643447Y-91020264D01*
X109780713Y-91258016D01*
X109780715Y-91258019D01*
X109780716Y-91258020D01*
X109947836Y-91475815D01*
X109947842Y-91475822D01*
X110141956Y-91669936D01*
X110141962Y-91669941D01*
X110359763Y-91837066D01*
X110597515Y-91974332D01*
X110851151Y-92079391D01*
X111116329Y-92150446D01*
X111320467Y-92177320D01*
X111388512Y-92186279D01*
X111388513Y-92186279D01*
X111663046Y-92186279D01*
X111717481Y-92179112D01*
X111935229Y-92150446D01*
X112200407Y-92079391D01*
X112454043Y-91974332D01*
X112691795Y-91837066D01*
X112909596Y-91669941D01*
X113103720Y-91475817D01*
X113270845Y-91258016D01*
X113408111Y-91020264D01*
X113513170Y-90766628D01*
X113584225Y-90501450D01*
X113620058Y-90229266D01*
X113620058Y-89954734D01*
X113584225Y-89682550D01*
X113513170Y-89417372D01*
X113408111Y-89163736D01*
X113270845Y-88925984D01*
X113103720Y-88708183D01*
X113103715Y-88708177D01*
X112909601Y-88514063D01*
X112909594Y-88514057D01*
X112691799Y-88346937D01*
X112691798Y-88346936D01*
X112691795Y-88346934D01*
X112454043Y-88209668D01*
X112381385Y-88179572D01*
X112200411Y-88104610D01*
X111935225Y-88033553D01*
X111663046Y-87997721D01*
X111663045Y-87997721D01*
X111388513Y-87997721D01*
X111388512Y-87997721D01*
X111116332Y-88033553D01*
X110851146Y-88104610D01*
X110597521Y-88209665D01*
X110597512Y-88209669D01*
X110359758Y-88346937D01*
X110141963Y-88514057D01*
X110141956Y-88514063D01*
X109947842Y-88708177D01*
X109947836Y-88708184D01*
X109780716Y-88925979D01*
X109643448Y-89163733D01*
X109643443Y-89163742D01*
X109639061Y-89174324D01*
X109595220Y-89228727D01*
X109528926Y-89250792D01*
X109461226Y-89233513D01*
X109413616Y-89182375D01*
X109400500Y-89126871D01*
X109400500Y-88870389D01*
X109400500Y-88870380D01*
X109390134Y-88708453D01*
X109335170Y-88438577D01*
X109241498Y-88179580D01*
X109201205Y-88104610D01*
X109177704Y-88060882D01*
X109111114Y-87936982D01*
X109111112Y-87936980D01*
X109111111Y-87936977D01*
X108946803Y-87715962D01*
X108946800Y-87715958D01*
X108946796Y-87715953D01*
X108946792Y-87715949D01*
X108946787Y-87715943D01*
X108752056Y-87521212D01*
X108752049Y-87521206D01*
X108752047Y-87521204D01*
X108752042Y-87521200D01*
X108752037Y-87521196D01*
X108531022Y-87356888D01*
X108288427Y-87226505D01*
X108288422Y-87226503D01*
X108288420Y-87226502D01*
X108029423Y-87132830D01*
X107759547Y-87077866D01*
X107597620Y-87067500D01*
X105662380Y-87067500D01*
X105500453Y-87077866D01*
X105230577Y-87132830D01*
X105230570Y-87132832D01*
X105166673Y-87155942D01*
X105096935Y-87160231D01*
X105035949Y-87126137D01*
X105003077Y-87064483D01*
X105000500Y-87039334D01*
X105000500Y-86102873D01*
X105020185Y-86035834D01*
X105072989Y-85990079D01*
X105142147Y-85980135D01*
X105202188Y-86006227D01*
X105263724Y-86055692D01*
X105435397Y-86140834D01*
X105621361Y-86187081D01*
X105621357Y-86187081D01*
X105664395Y-86189999D01*
X107339338Y-86189999D01*
X107339339Y-86189998D01*
X106187351Y-85038010D01*
X106153866Y-84976687D01*
X106158850Y-84906995D01*
X106187351Y-84862648D01*
X106205735Y-84844262D01*
X106261592Y-84900119D01*
X106398409Y-84979111D01*
X106551009Y-85020000D01*
X106708991Y-85020000D01*
X106861591Y-84979111D01*
X106998408Y-84900119D01*
X107110119Y-84788408D01*
X107189111Y-84651591D01*
X107230000Y-84498991D01*
X107230000Y-84419999D01*
X107690660Y-84419999D01*
X107690660Y-84420001D01*
X108399998Y-85129339D01*
X108399999Y-85129338D01*
X108399999Y-83959094D01*
X139010218Y-83959094D01*
X139010218Y-84233623D01*
X139040061Y-84460296D01*
X139046050Y-84505782D01*
X139117099Y-84770942D01*
X139117102Y-84770952D01*
X139222149Y-85024557D01*
X139222154Y-85024568D01*
X139359404Y-85262290D01*
X139359415Y-85262306D01*
X139526520Y-85480083D01*
X139526526Y-85480090D01*
X139720627Y-85674191D01*
X139720633Y-85674196D01*
X139938420Y-85841309D01*
X139938427Y-85841313D01*
X140176149Y-85978563D01*
X140176154Y-85978565D01*
X140176157Y-85978567D01*
X140429775Y-86083619D01*
X140694936Y-86154668D01*
X140941133Y-86187081D01*
X140963296Y-86189999D01*
X140967102Y-86190500D01*
X140967109Y-86190500D01*
X141241609Y-86190500D01*
X141241616Y-86190500D01*
X141245429Y-86189998D01*
X145290659Y-86189998D01*
X145290660Y-86189999D01*
X146709339Y-86189999D01*
X146709339Y-86189998D01*
X146000000Y-85480660D01*
X145290659Y-86189998D01*
X141245429Y-86189998D01*
X141513782Y-86154668D01*
X141778943Y-86083619D01*
X141846365Y-86055692D01*
X141868936Y-86046343D01*
X141922049Y-86024342D01*
X142032561Y-85978567D01*
X142270298Y-85841309D01*
X142488085Y-85674196D01*
X142682196Y-85480085D01*
X142849309Y-85262298D01*
X142926073Y-85129339D01*
X144230000Y-85129339D01*
X144939340Y-84420000D01*
X144939340Y-84419999D01*
X144860350Y-84341009D01*
X145400000Y-84341009D01*
X145400000Y-84498991D01*
X145440889Y-84651591D01*
X145519881Y-84788408D01*
X145631592Y-84900119D01*
X145768409Y-84979111D01*
X145921009Y-85020000D01*
X146078991Y-85020000D01*
X146231591Y-84979111D01*
X146368408Y-84900119D01*
X146480119Y-84788408D01*
X146559111Y-84651591D01*
X146600000Y-84498991D01*
X146600000Y-84419999D01*
X147060660Y-84419999D01*
X147060660Y-84420001D01*
X147769998Y-85129339D01*
X147769999Y-85129338D01*
X147769999Y-84368872D01*
X149499500Y-84368872D01*
X149499500Y-84631127D01*
X149520208Y-84788408D01*
X149533730Y-84891116D01*
X149598831Y-85134076D01*
X149601602Y-85144418D01*
X149601605Y-85144428D01*
X149701953Y-85386690D01*
X149701958Y-85386700D01*
X149833075Y-85613803D01*
X149992718Y-85821851D01*
X149992726Y-85821860D01*
X150178140Y-86007274D01*
X150178148Y-86007281D01*
X150386196Y-86166924D01*
X150613299Y-86298041D01*
X150613309Y-86298046D01*
X150855571Y-86398394D01*
X150855581Y-86398398D01*
X151108884Y-86466270D01*
X151368880Y-86500500D01*
X151368887Y-86500500D01*
X151631113Y-86500500D01*
X151631120Y-86500500D01*
X151891116Y-86466270D01*
X152144419Y-86398398D01*
X152386697Y-86298043D01*
X152613803Y-86166924D01*
X152821851Y-86007282D01*
X152821855Y-86007277D01*
X152821860Y-86007274D01*
X153007274Y-85821860D01*
X153007277Y-85821855D01*
X153007282Y-85821851D01*
X153166924Y-85613803D01*
X153298043Y-85386697D01*
X153398398Y-85144419D01*
X153466270Y-84891116D01*
X153500500Y-84631120D01*
X153500500Y-84368880D01*
X153466270Y-84108884D01*
X153398398Y-83855581D01*
X153338370Y-83710660D01*
X153298046Y-83613309D01*
X153298041Y-83613299D01*
X153166924Y-83386196D01*
X153007281Y-83178148D01*
X153007274Y-83178140D01*
X152821860Y-82992726D01*
X152821851Y-82992718D01*
X152613803Y-82833075D01*
X152386700Y-82701958D01*
X152386690Y-82701953D01*
X152144428Y-82601605D01*
X152144421Y-82601603D01*
X152144419Y-82601602D01*
X151891116Y-82533730D01*
X151833339Y-82526123D01*
X151631127Y-82499500D01*
X151631120Y-82499500D01*
X151368880Y-82499500D01*
X151368872Y-82499500D01*
X151137772Y-82529926D01*
X151108884Y-82533730D01*
X150855581Y-82601602D01*
X150855571Y-82601605D01*
X150613309Y-82701953D01*
X150613299Y-82701958D01*
X150386196Y-82833075D01*
X150178148Y-82992718D01*
X149992718Y-83178148D01*
X149833075Y-83386196D01*
X149701958Y-83613299D01*
X149701953Y-83613309D01*
X149601605Y-83855571D01*
X149601602Y-83855581D01*
X149533730Y-84108885D01*
X149499500Y-84368872D01*
X147769999Y-84368872D01*
X147769999Y-83710660D01*
X147769998Y-83710659D01*
X147060660Y-84419999D01*
X146600000Y-84419999D01*
X146600000Y-84341009D01*
X146559111Y-84188409D01*
X146480119Y-84051592D01*
X146368408Y-83939881D01*
X146231591Y-83860889D01*
X146078991Y-83820000D01*
X145921009Y-83820000D01*
X145768409Y-83860889D01*
X145631592Y-83939881D01*
X145519881Y-84051592D01*
X145440889Y-84188409D01*
X145400000Y-84341009D01*
X144860350Y-84341009D01*
X144230000Y-83710659D01*
X144230000Y-85129339D01*
X142926073Y-85129339D01*
X142986567Y-85024561D01*
X143091619Y-84770943D01*
X143162668Y-84505782D01*
X143198500Y-84233616D01*
X143198500Y-83959102D01*
X143162668Y-83686936D01*
X143091619Y-83421775D01*
X142986567Y-83168157D01*
X142986565Y-83168154D01*
X142986563Y-83168149D01*
X142849313Y-82930427D01*
X142849309Y-82930420D01*
X142774614Y-82833075D01*
X142714384Y-82754581D01*
X142682197Y-82712634D01*
X142682191Y-82712627D01*
X142619564Y-82650000D01*
X145290659Y-82650000D01*
X146000000Y-83359340D01*
X146000001Y-83359340D01*
X146709339Y-82650000D01*
X145290659Y-82650000D01*
X142619564Y-82650000D01*
X142488090Y-82518526D01*
X142488083Y-82518520D01*
X142270306Y-82351415D01*
X142270304Y-82351413D01*
X142270298Y-82351409D01*
X142270293Y-82351406D01*
X142270290Y-82351404D01*
X142032568Y-82214154D01*
X142032557Y-82214149D01*
X141778952Y-82109102D01*
X141778945Y-82109100D01*
X141778943Y-82109099D01*
X141513782Y-82038050D01*
X141468296Y-82032061D01*
X141241623Y-82002218D01*
X141241616Y-82002218D01*
X140967102Y-82002218D01*
X140967094Y-82002218D01*
X140708038Y-82036324D01*
X140694936Y-82038050D01*
X140429775Y-82109099D01*
X140429765Y-82109102D01*
X140176160Y-82214149D01*
X140176149Y-82214154D01*
X139938427Y-82351404D01*
X139938411Y-82351415D01*
X139720634Y-82518520D01*
X139720627Y-82518526D01*
X139526526Y-82712627D01*
X139526520Y-82712634D01*
X139359415Y-82930411D01*
X139359404Y-82930427D01*
X139222154Y-83168149D01*
X139222149Y-83168160D01*
X139117102Y-83421765D01*
X139117099Y-83421775D01*
X139053295Y-83659899D01*
X139046051Y-83686933D01*
X139046049Y-83686944D01*
X139010218Y-83959094D01*
X108399999Y-83959094D01*
X108399999Y-83710660D01*
X108399998Y-83710659D01*
X107690660Y-84419999D01*
X107230000Y-84419999D01*
X107230000Y-84341009D01*
X107189111Y-84188409D01*
X107110119Y-84051592D01*
X106998408Y-83939881D01*
X106861591Y-83860889D01*
X106708991Y-83820000D01*
X106551009Y-83820000D01*
X106398409Y-83860889D01*
X106261592Y-83939881D01*
X106205736Y-83995736D01*
X106187350Y-83977350D01*
X106153865Y-83916027D01*
X106158849Y-83846335D01*
X106187350Y-83801988D01*
X107339338Y-82650000D01*
X105664394Y-82650000D01*
X105664390Y-82650001D01*
X105621367Y-82652917D01*
X105621365Y-82652917D01*
X105435397Y-82699165D01*
X105263724Y-82784307D01*
X105202187Y-82833773D01*
X105137603Y-82860432D01*
X105068859Y-82847942D01*
X105017781Y-82800268D01*
X105000500Y-82737126D01*
X105000500Y-71415014D01*
X147374500Y-71415014D01*
X147374500Y-74584944D01*
X147374502Y-74584986D01*
X147380738Y-74706648D01*
X147430435Y-74994880D01*
X147430437Y-74994889D01*
X147518914Y-75273661D01*
X147518920Y-75273675D01*
X147644536Y-75537807D01*
X147804947Y-75782373D01*
X147804948Y-75782374D01*
X147997172Y-76002827D01*
X148074439Y-76070199D01*
X148217624Y-76195050D01*
X148217632Y-76195055D01*
X148217633Y-76195056D01*
X148346124Y-76279334D01*
X148391385Y-76332562D01*
X148400684Y-76401810D01*
X148399283Y-76409377D01*
X148377907Y-76507643D01*
X148375000Y-76556455D01*
X148375000Y-79695138D01*
X149718735Y-78351402D01*
X149732010Y-78435217D01*
X149795243Y-78629827D01*
X149888140Y-78812149D01*
X150008415Y-78977693D01*
X150153107Y-79122385D01*
X150318651Y-79242660D01*
X150500973Y-79335557D01*
X150695583Y-79398790D01*
X150779395Y-79412064D01*
X149435659Y-80755798D01*
X149435660Y-80755799D01*
X152564339Y-80755799D01*
X152564339Y-80755798D01*
X151220604Y-79412064D01*
X151304417Y-79398790D01*
X151499027Y-79335557D01*
X151681349Y-79242660D01*
X151846893Y-79122385D01*
X151991585Y-78977693D01*
X152111860Y-78812149D01*
X152204757Y-78629827D01*
X152267990Y-78435217D01*
X152281264Y-78351405D01*
X153624998Y-79695139D01*
X153624999Y-79695138D01*
X153624999Y-76556456D01*
X153624998Y-76556453D01*
X153622092Y-76507640D01*
X153600716Y-76409379D01*
X153605700Y-76339687D01*
X153647571Y-76283753D01*
X153653854Y-76279347D01*
X153782376Y-76195050D01*
X154002827Y-76002827D01*
X154195050Y-75782376D01*
X154355465Y-75537804D01*
X154481083Y-75273667D01*
X154569564Y-74994885D01*
X154619261Y-74706652D01*
X154621043Y-74671874D01*
X154625499Y-74584985D01*
X154625499Y-74584972D01*
X154625500Y-74584953D01*
X154625499Y-71415048D01*
X154619261Y-71293348D01*
X154569564Y-71005115D01*
X154481083Y-70726333D01*
X154355465Y-70462196D01*
X154355464Y-70462195D01*
X154355463Y-70462192D01*
X154195052Y-70217626D01*
X154195051Y-70217625D01*
X154002827Y-69997172D01*
X153782374Y-69804948D01*
X153782373Y-69804947D01*
X153537807Y-69644536D01*
X153273675Y-69518920D01*
X153273661Y-69518914D01*
X152994889Y-69430437D01*
X152994880Y-69430435D01*
X152706648Y-69380738D01*
X152584966Y-69374500D01*
X149415055Y-69374500D01*
X149415013Y-69374502D01*
X149293351Y-69380738D01*
X149005119Y-69430435D01*
X149005110Y-69430437D01*
X148726338Y-69518914D01*
X148726324Y-69518920D01*
X148462192Y-69644536D01*
X148217626Y-69804947D01*
X148217625Y-69804948D01*
X147997172Y-69997172D01*
X147804948Y-70217625D01*
X147804947Y-70217626D01*
X147644536Y-70462192D01*
X147518920Y-70726324D01*
X147518914Y-70726338D01*
X147430437Y-71005110D01*
X147430435Y-71005119D01*
X147380738Y-71293350D01*
X147380738Y-71293352D01*
X147374500Y-71415014D01*
X105000500Y-71415014D01*
X105000500Y-69946665D01*
X105020185Y-69879626D01*
X105072989Y-69833871D01*
X105142147Y-69823927D01*
X105166672Y-69830057D01*
X105230577Y-69853170D01*
X105500453Y-69908134D01*
X105662380Y-69918500D01*
X105662390Y-69918500D01*
X107597610Y-69918500D01*
X107597620Y-69918500D01*
X107759547Y-69908134D01*
X108029423Y-69853170D01*
X108288420Y-69759498D01*
X108531018Y-69629114D01*
X108752047Y-69464796D01*
X108946796Y-69270047D01*
X109111114Y-69049018D01*
X109241498Y-68806420D01*
X109335170Y-68547423D01*
X109385521Y-68300193D01*
X109418188Y-68238434D01*
X109479061Y-68204138D01*
X109548812Y-68208196D01*
X109605297Y-68249320D01*
X109621587Y-68277490D01*
X109621611Y-68277547D01*
X109643447Y-68330264D01*
X109780713Y-68568016D01*
X109780715Y-68568019D01*
X109780716Y-68568020D01*
X109947836Y-68785815D01*
X109947842Y-68785822D01*
X110141956Y-68979936D01*
X110141962Y-68979941D01*
X110359763Y-69147066D01*
X110597515Y-69284332D01*
X110851151Y-69389391D01*
X111116329Y-69460446D01*
X111320467Y-69487320D01*
X111388512Y-69496279D01*
X111388513Y-69496279D01*
X111663046Y-69496279D01*
X111717481Y-69489112D01*
X111935229Y-69460446D01*
X112200407Y-69389391D01*
X112454043Y-69284332D01*
X112691795Y-69147066D01*
X112909596Y-68979941D01*
X113103720Y-68785817D01*
X113270845Y-68568016D01*
X113408111Y-68330264D01*
X113513170Y-68076628D01*
X113584225Y-67811450D01*
X113620058Y-67539266D01*
X113620058Y-67264734D01*
X113584225Y-66992550D01*
X113513170Y-66727372D01*
X113408111Y-66473736D01*
X113270845Y-66235984D01*
X113228178Y-66180380D01*
X143229500Y-66180380D01*
X143229500Y-68115620D01*
X143239866Y-68277547D01*
X143294830Y-68547423D01*
X143388502Y-68806420D01*
X143388505Y-68806427D01*
X143518888Y-69049022D01*
X143683196Y-69270037D01*
X143683212Y-69270056D01*
X143877943Y-69464787D01*
X143877949Y-69464792D01*
X143877953Y-69464796D01*
X143877958Y-69464800D01*
X143877962Y-69464803D01*
X144098977Y-69629111D01*
X144098980Y-69629112D01*
X144098982Y-69629114D01*
X144127675Y-69644535D01*
X144341572Y-69759494D01*
X144341573Y-69759494D01*
X144341580Y-69759498D01*
X144600577Y-69853170D01*
X144870453Y-69908134D01*
X145032380Y-69918500D01*
X145032390Y-69918500D01*
X146967610Y-69918500D01*
X146967620Y-69918500D01*
X147129547Y-69908134D01*
X147399423Y-69853170D01*
X147658420Y-69759498D01*
X147901018Y-69629114D01*
X148122047Y-69464796D01*
X148316796Y-69270047D01*
X148481114Y-69049018D01*
X148611498Y-68806420D01*
X148705170Y-68547423D01*
X148760134Y-68277547D01*
X148770500Y-68115620D01*
X148770500Y-66180380D01*
X148760134Y-66018453D01*
X148705170Y-65748577D01*
X148611498Y-65489580D01*
X148571205Y-65414610D01*
X148547704Y-65370882D01*
X148481114Y-65246982D01*
X148481112Y-65246980D01*
X148481111Y-65246977D01*
X148316803Y-65025962D01*
X148316800Y-65025958D01*
X148316796Y-65025953D01*
X148316792Y-65025949D01*
X148316787Y-65025943D01*
X148122056Y-64831212D01*
X148122049Y-64831206D01*
X148122047Y-64831204D01*
X148122042Y-64831200D01*
X148122037Y-64831196D01*
X147901022Y-64666888D01*
X147658427Y-64536505D01*
X147658422Y-64536503D01*
X147658420Y-64536502D01*
X147399423Y-64442830D01*
X147129547Y-64387866D01*
X146967620Y-64377500D01*
X145032380Y-64377500D01*
X144870453Y-64387866D01*
X144600577Y-64442830D01*
X144341580Y-64536502D01*
X144341572Y-64536505D01*
X144098977Y-64666888D01*
X143877962Y-64831196D01*
X143877943Y-64831212D01*
X143683212Y-65025943D01*
X143683196Y-65025962D01*
X143518888Y-65246977D01*
X143388505Y-65489572D01*
X143388502Y-65489579D01*
X143388502Y-65489580D01*
X143294830Y-65748577D01*
X143239866Y-66018453D01*
X143229500Y-66180380D01*
X113228178Y-66180380D01*
X113103720Y-66018183D01*
X113103715Y-66018177D01*
X112909601Y-65824063D01*
X112909594Y-65824057D01*
X112691799Y-65656937D01*
X112691798Y-65656936D01*
X112691795Y-65656934D01*
X112454043Y-65519668D01*
X112454036Y-65519665D01*
X112200411Y-65414610D01*
X111935225Y-65343553D01*
X111663046Y-65307721D01*
X111663045Y-65307721D01*
X111388513Y-65307721D01*
X111388512Y-65307721D01*
X111116332Y-65343553D01*
X110851146Y-65414610D01*
X110597521Y-65519665D01*
X110597512Y-65519669D01*
X110359758Y-65656937D01*
X110141963Y-65824057D01*
X110141956Y-65824063D01*
X109947842Y-66018177D01*
X109947836Y-66018184D01*
X109780716Y-66235979D01*
X109643448Y-66473733D01*
X109643443Y-66473742D01*
X109639061Y-66484324D01*
X109595220Y-66538727D01*
X109528926Y-66560792D01*
X109461226Y-66543513D01*
X109413616Y-66492375D01*
X109400500Y-66436871D01*
X109400500Y-66180389D01*
X109400500Y-66180380D01*
X109390134Y-66018453D01*
X109335170Y-65748577D01*
X109241498Y-65489580D01*
X109201205Y-65414610D01*
X109177704Y-65370882D01*
X109111114Y-65246982D01*
X109111112Y-65246980D01*
X109111111Y-65246977D01*
X108946803Y-65025962D01*
X108946800Y-65025958D01*
X108946796Y-65025953D01*
X108946792Y-65025949D01*
X108946787Y-65025943D01*
X108752056Y-64831212D01*
X108752049Y-64831206D01*
X108752047Y-64831204D01*
X108752042Y-64831200D01*
X108752037Y-64831196D01*
X108531022Y-64666888D01*
X108288427Y-64536505D01*
X108288422Y-64536503D01*
X108288420Y-64536502D01*
X108029423Y-64442830D01*
X107759547Y-64387866D01*
X107597620Y-64377500D01*
X105662380Y-64377500D01*
X105500453Y-64387866D01*
X105230577Y-64442830D01*
X105230570Y-64442832D01*
X105166673Y-64465942D01*
X105096935Y-64470231D01*
X105035949Y-64436137D01*
X105003077Y-64374483D01*
X105002502Y-64368872D01*
X149499500Y-64368872D01*
X149499500Y-64631127D01*
X149520436Y-64790140D01*
X149533730Y-64891116D01*
X149569862Y-65025962D01*
X149601602Y-65144418D01*
X149601605Y-65144428D01*
X149701953Y-65386690D01*
X149701958Y-65386700D01*
X149833075Y-65613803D01*
X149992718Y-65821851D01*
X149992726Y-65821860D01*
X150178140Y-66007274D01*
X150178148Y-66007281D01*
X150178149Y-66007282D01*
X150192357Y-66018184D01*
X150386196Y-66166924D01*
X150613299Y-66298041D01*
X150613309Y-66298046D01*
X150855571Y-66398394D01*
X150855581Y-66398398D01*
X151108884Y-66466270D01*
X151368880Y-66500500D01*
X151368887Y-66500500D01*
X151631113Y-66500500D01*
X151631120Y-66500500D01*
X151891116Y-66466270D01*
X152144419Y-66398398D01*
X152386697Y-66298043D01*
X152613803Y-66166924D01*
X152821851Y-66007282D01*
X152821855Y-66007277D01*
X152821860Y-66007274D01*
X153007274Y-65821860D01*
X153007277Y-65821855D01*
X153007282Y-65821851D01*
X153166924Y-65613803D01*
X153298043Y-65386697D01*
X153398398Y-65144419D01*
X153466270Y-64891116D01*
X153500500Y-64631120D01*
X153500500Y-64368880D01*
X153466270Y-64108884D01*
X153398398Y-63855581D01*
X153300204Y-63618520D01*
X153298046Y-63613309D01*
X153298041Y-63613299D01*
X153166924Y-63386196D01*
X153007281Y-63178148D01*
X153007274Y-63178140D01*
X152821860Y-62992726D01*
X152821851Y-62992718D01*
X152613803Y-62833075D01*
X152386700Y-62701958D01*
X152386690Y-62701953D01*
X152144428Y-62601605D01*
X152144421Y-62601603D01*
X152144419Y-62601602D01*
X151891116Y-62533730D01*
X151833339Y-62526123D01*
X151631127Y-62499500D01*
X151631120Y-62499500D01*
X151368880Y-62499500D01*
X151368872Y-62499500D01*
X151137772Y-62529926D01*
X151108884Y-62533730D01*
X150964946Y-62572298D01*
X150855581Y-62601602D01*
X150855571Y-62601605D01*
X150613309Y-62701953D01*
X150613299Y-62701958D01*
X150386196Y-62833075D01*
X150178148Y-62992718D01*
X149992718Y-63178148D01*
X149833075Y-63386196D01*
X149701958Y-63613299D01*
X149701953Y-63613309D01*
X149601605Y-63855571D01*
X149601602Y-63855581D01*
X149533730Y-64108885D01*
X149499500Y-64368872D01*
X105002502Y-64368872D01*
X105000500Y-64349334D01*
X105000500Y-63412873D01*
X105020185Y-63345834D01*
X105072989Y-63300079D01*
X105142147Y-63290135D01*
X105202188Y-63316227D01*
X105263724Y-63365692D01*
X105435397Y-63450834D01*
X105621361Y-63497081D01*
X105621357Y-63497081D01*
X105664395Y-63499999D01*
X107339338Y-63499999D01*
X107339339Y-63499998D01*
X106187351Y-62348010D01*
X106153866Y-62286687D01*
X106158850Y-62216995D01*
X106187351Y-62172648D01*
X106205735Y-62154262D01*
X106261592Y-62210119D01*
X106398409Y-62289111D01*
X106551009Y-62330000D01*
X106708991Y-62330000D01*
X106861591Y-62289111D01*
X106998408Y-62210119D01*
X107110119Y-62098408D01*
X107189111Y-61961591D01*
X107230000Y-61808991D01*
X107230000Y-61729999D01*
X107690660Y-61729999D01*
X107690660Y-61730001D01*
X108399998Y-62439339D01*
X108399999Y-62439338D01*
X108399999Y-61269094D01*
X139010218Y-61269094D01*
X139010218Y-61543623D01*
X139040061Y-61770296D01*
X139046050Y-61815782D01*
X139117099Y-62080942D01*
X139117102Y-62080952D01*
X139222149Y-62334557D01*
X139222154Y-62334568D01*
X139359404Y-62572290D01*
X139359415Y-62572306D01*
X139526520Y-62790083D01*
X139526526Y-62790090D01*
X139720627Y-62984191D01*
X139720634Y-62984197D01*
X139875702Y-63103184D01*
X139938420Y-63151309D01*
X139938427Y-63151313D01*
X140176149Y-63288563D01*
X140176154Y-63288565D01*
X140176157Y-63288567D01*
X140242934Y-63316227D01*
X140411856Y-63386197D01*
X140429775Y-63393619D01*
X140694936Y-63464668D01*
X140941133Y-63497081D01*
X140963296Y-63499999D01*
X140967102Y-63500500D01*
X140967109Y-63500500D01*
X141241609Y-63500500D01*
X141241616Y-63500500D01*
X141245429Y-63499998D01*
X145290659Y-63499998D01*
X145290660Y-63499999D01*
X146709339Y-63499999D01*
X146709339Y-63499998D01*
X146000000Y-62790660D01*
X145290659Y-63499998D01*
X141245429Y-63499998D01*
X141513782Y-63464668D01*
X141778943Y-63393619D01*
X141846365Y-63365692D01*
X141868936Y-63356343D01*
X141922049Y-63334342D01*
X142032561Y-63288567D01*
X142270298Y-63151309D01*
X142488085Y-62984196D01*
X142682196Y-62790085D01*
X142849309Y-62572298D01*
X142926073Y-62439339D01*
X144230000Y-62439339D01*
X144939340Y-61729999D01*
X144860350Y-61651009D01*
X145400000Y-61651009D01*
X145400000Y-61808991D01*
X145440889Y-61961591D01*
X145519881Y-62098408D01*
X145631592Y-62210119D01*
X145768409Y-62289111D01*
X145921009Y-62330000D01*
X146078991Y-62330000D01*
X146231591Y-62289111D01*
X146368408Y-62210119D01*
X146480119Y-62098408D01*
X146559111Y-61961591D01*
X146600000Y-61808991D01*
X146600000Y-61729999D01*
X147060660Y-61729999D01*
X147060660Y-61730001D01*
X147769998Y-62439339D01*
X147769999Y-62439338D01*
X147769999Y-61020660D01*
X147769998Y-61020659D01*
X147060660Y-61729999D01*
X146600000Y-61729999D01*
X146600000Y-61651009D01*
X146559111Y-61498409D01*
X146480119Y-61361592D01*
X146368408Y-61249881D01*
X146231591Y-61170889D01*
X146078991Y-61130000D01*
X145921009Y-61130000D01*
X145768409Y-61170889D01*
X145631592Y-61249881D01*
X145519881Y-61361592D01*
X145440889Y-61498409D01*
X145400000Y-61651009D01*
X144860350Y-61651009D01*
X144230000Y-61020659D01*
X144230000Y-62439339D01*
X142926073Y-62439339D01*
X142986567Y-62334561D01*
X143091619Y-62080943D01*
X143162668Y-61815782D01*
X143198500Y-61543616D01*
X143198500Y-61269102D01*
X143162668Y-60996936D01*
X143091619Y-60731775D01*
X142986567Y-60478157D01*
X142986565Y-60478154D01*
X142986563Y-60478149D01*
X142849313Y-60240427D01*
X142849309Y-60240420D01*
X142775150Y-60143773D01*
X142714384Y-60064581D01*
X142682197Y-60022634D01*
X142682191Y-60022627D01*
X142619564Y-59960000D01*
X145290659Y-59960000D01*
X146000000Y-60669340D01*
X146000001Y-60669340D01*
X146709339Y-59960000D01*
X145290659Y-59960000D01*
X142619564Y-59960000D01*
X142488090Y-59828526D01*
X142488083Y-59828520D01*
X142270306Y-59661415D01*
X142270304Y-59661413D01*
X142270298Y-59661409D01*
X142270293Y-59661406D01*
X142270290Y-59661404D01*
X142032568Y-59524154D01*
X142032557Y-59524149D01*
X141778952Y-59419102D01*
X141778945Y-59419100D01*
X141778943Y-59419099D01*
X141513782Y-59348050D01*
X141468296Y-59342061D01*
X141241623Y-59312218D01*
X141241616Y-59312218D01*
X140967102Y-59312218D01*
X140967094Y-59312218D01*
X140708038Y-59346324D01*
X140694936Y-59348050D01*
X140429775Y-59419099D01*
X140429765Y-59419102D01*
X140176160Y-59524149D01*
X140176149Y-59524154D01*
X139938427Y-59661404D01*
X139938411Y-59661415D01*
X139720634Y-59828520D01*
X139720627Y-59828526D01*
X139526526Y-60022627D01*
X139526520Y-60022634D01*
X139359415Y-60240411D01*
X139359404Y-60240427D01*
X139222154Y-60478149D01*
X139222149Y-60478160D01*
X139117102Y-60731765D01*
X139117099Y-60731775D01*
X139053295Y-60969899D01*
X139046051Y-60996933D01*
X139046049Y-60996944D01*
X139010218Y-61269094D01*
X108399999Y-61269094D01*
X108399999Y-61020660D01*
X108399998Y-61020659D01*
X107690660Y-61729999D01*
X107230000Y-61729999D01*
X107230000Y-61651009D01*
X107189111Y-61498409D01*
X107110119Y-61361592D01*
X106998408Y-61249881D01*
X106861591Y-61170889D01*
X106708991Y-61130000D01*
X106551009Y-61130000D01*
X106398409Y-61170889D01*
X106261592Y-61249881D01*
X106205736Y-61305736D01*
X106187350Y-61287350D01*
X106153865Y-61226027D01*
X106158849Y-61156335D01*
X106187350Y-61111988D01*
X107339338Y-59960000D01*
X105664394Y-59960000D01*
X105664390Y-59960001D01*
X105621367Y-59962917D01*
X105621365Y-59962917D01*
X105435397Y-60009165D01*
X105263724Y-60094307D01*
X105202187Y-60143773D01*
X105137603Y-60170432D01*
X105068859Y-60157942D01*
X105017781Y-60110268D01*
X105000500Y-60047126D01*
X105000500Y-48915014D01*
X147374500Y-48915014D01*
X147374500Y-52084944D01*
X147374502Y-52084986D01*
X147380738Y-52206648D01*
X147430435Y-52494880D01*
X147430437Y-52494889D01*
X147518914Y-52773661D01*
X147518920Y-52773675D01*
X147644536Y-53037807D01*
X147804947Y-53282373D01*
X147804948Y-53282374D01*
X147997172Y-53502827D01*
X148074439Y-53570199D01*
X148217624Y-53695050D01*
X148217632Y-53695055D01*
X148217633Y-53695056D01*
X148346124Y-53779334D01*
X148391385Y-53832562D01*
X148400684Y-53901810D01*
X148399283Y-53909377D01*
X148377907Y-54007643D01*
X148375000Y-54056455D01*
X148375000Y-57195138D01*
X149718735Y-55851402D01*
X149732010Y-55935217D01*
X149795243Y-56129827D01*
X149888140Y-56312149D01*
X150008415Y-56477693D01*
X150153107Y-56622385D01*
X150318651Y-56742660D01*
X150500973Y-56835557D01*
X150695583Y-56898790D01*
X150779395Y-56912064D01*
X149435659Y-58255798D01*
X149435660Y-58255799D01*
X152564339Y-58255799D01*
X152564339Y-58255798D01*
X151220604Y-56912064D01*
X151304417Y-56898790D01*
X151499027Y-56835557D01*
X151681349Y-56742660D01*
X151846893Y-56622385D01*
X151991585Y-56477693D01*
X152111860Y-56312149D01*
X152204757Y-56129827D01*
X152267990Y-55935217D01*
X152281264Y-55851405D01*
X153624998Y-57195139D01*
X153624999Y-57195138D01*
X153624999Y-54056456D01*
X153624998Y-54056453D01*
X153622092Y-54007640D01*
X153600716Y-53909379D01*
X153605700Y-53839687D01*
X153647571Y-53783753D01*
X153653854Y-53779347D01*
X153782376Y-53695050D01*
X154002827Y-53502827D01*
X154195050Y-53282376D01*
X154355465Y-53037804D01*
X154481083Y-52773667D01*
X154569564Y-52494885D01*
X154619261Y-52206652D01*
X154621043Y-52171874D01*
X154625499Y-52084985D01*
X154625499Y-52084972D01*
X154625500Y-52084953D01*
X154625499Y-48915048D01*
X154619261Y-48793348D01*
X154569564Y-48505115D01*
X154481083Y-48226333D01*
X154355465Y-47962196D01*
X154355464Y-47962195D01*
X154355463Y-47962192D01*
X154195052Y-47717626D01*
X154195051Y-47717625D01*
X154002827Y-47497172D01*
X153782374Y-47304948D01*
X153782373Y-47304947D01*
X153537807Y-47144536D01*
X153273675Y-47018920D01*
X153273661Y-47018914D01*
X152994889Y-46930437D01*
X152994880Y-46930435D01*
X152706648Y-46880738D01*
X152584966Y-46874500D01*
X149415055Y-46874500D01*
X149415013Y-46874502D01*
X149293351Y-46880738D01*
X149005119Y-46930435D01*
X149005110Y-46930437D01*
X148726338Y-47018914D01*
X148726324Y-47018920D01*
X148462192Y-47144536D01*
X148217626Y-47304947D01*
X148217625Y-47304948D01*
X147997172Y-47497172D01*
X147804948Y-47717625D01*
X147804947Y-47717626D01*
X147644536Y-47962192D01*
X147518920Y-48226324D01*
X147518914Y-48226338D01*
X147430437Y-48505110D01*
X147430435Y-48505119D01*
X147380738Y-48793350D01*
X147380738Y-48793352D01*
X147374500Y-48915014D01*
X105000500Y-48915014D01*
X105000500Y-47256665D01*
X105020185Y-47189626D01*
X105072989Y-47143871D01*
X105142147Y-47133927D01*
X105166672Y-47140057D01*
X105230577Y-47163170D01*
X105500453Y-47218134D01*
X105662380Y-47228500D01*
X105662390Y-47228500D01*
X107597610Y-47228500D01*
X107597620Y-47228500D01*
X107759547Y-47218134D01*
X108029423Y-47163170D01*
X108288420Y-47069498D01*
X108531018Y-46939114D01*
X108752047Y-46774796D01*
X108946796Y-46580047D01*
X109111114Y-46359018D01*
X109241498Y-46116420D01*
X109335170Y-45857423D01*
X109385521Y-45610193D01*
X109418188Y-45548434D01*
X109479061Y-45514138D01*
X109548812Y-45518196D01*
X109605297Y-45559320D01*
X109621587Y-45587490D01*
X109621611Y-45587547D01*
X109643447Y-45640264D01*
X109780713Y-45878016D01*
X109780715Y-45878019D01*
X109780716Y-45878020D01*
X109947836Y-46095815D01*
X109947842Y-46095822D01*
X110141956Y-46289936D01*
X110141962Y-46289941D01*
X110359763Y-46457066D01*
X110597515Y-46594332D01*
X110851151Y-46699391D01*
X111116329Y-46770446D01*
X111320467Y-46797320D01*
X111388512Y-46806279D01*
X111388513Y-46806279D01*
X111663046Y-46806279D01*
X111717481Y-46799112D01*
X111935229Y-46770446D01*
X112200407Y-46699391D01*
X112454043Y-46594332D01*
X112691795Y-46457066D01*
X112909596Y-46289941D01*
X113103720Y-46095817D01*
X113270845Y-45878016D01*
X113408111Y-45640264D01*
X113513170Y-45386628D01*
X113584225Y-45121450D01*
X113620058Y-44849266D01*
X113620058Y-44574734D01*
X113584225Y-44302550D01*
X113513170Y-44037372D01*
X113408111Y-43783736D01*
X113270845Y-43545984D01*
X113228178Y-43490380D01*
X143229500Y-43490380D01*
X143229500Y-45425620D01*
X143239866Y-45587547D01*
X143294830Y-45857423D01*
X143388502Y-46116420D01*
X143388505Y-46116427D01*
X143518888Y-46359022D01*
X143683196Y-46580037D01*
X143683212Y-46580056D01*
X143877943Y-46774787D01*
X143877949Y-46774792D01*
X143877953Y-46774796D01*
X143877958Y-46774800D01*
X143877962Y-46774803D01*
X144098977Y-46939111D01*
X144098980Y-46939112D01*
X144098982Y-46939114D01*
X144222882Y-47005704D01*
X144341572Y-47069494D01*
X144341573Y-47069494D01*
X144341580Y-47069498D01*
X144600577Y-47163170D01*
X144870453Y-47218134D01*
X145032380Y-47228500D01*
X145032390Y-47228500D01*
X146967610Y-47228500D01*
X146967620Y-47228500D01*
X147129547Y-47218134D01*
X147399423Y-47163170D01*
X147658420Y-47069498D01*
X147901018Y-46939114D01*
X148122047Y-46774796D01*
X148316796Y-46580047D01*
X148481114Y-46359018D01*
X148611498Y-46116420D01*
X148705170Y-45857423D01*
X148760134Y-45587547D01*
X148770500Y-45425620D01*
X148770500Y-43490380D01*
X148760134Y-43328453D01*
X148705170Y-43058577D01*
X148611498Y-42799580D01*
X148571205Y-42724610D01*
X148547704Y-42680882D01*
X148481114Y-42556982D01*
X148481112Y-42556980D01*
X148481111Y-42556977D01*
X148316803Y-42335962D01*
X148316800Y-42335958D01*
X148316796Y-42335953D01*
X148316792Y-42335949D01*
X148316787Y-42335943D01*
X148122056Y-42141212D01*
X148122049Y-42141206D01*
X148122047Y-42141204D01*
X148122042Y-42141200D01*
X148122037Y-42141196D01*
X147901022Y-41976888D01*
X147658427Y-41846505D01*
X147658422Y-41846503D01*
X147658420Y-41846502D01*
X147399423Y-41752830D01*
X147129547Y-41697866D01*
X146967620Y-41687500D01*
X145032380Y-41687500D01*
X144870453Y-41697866D01*
X144600577Y-41752830D01*
X144341580Y-41846502D01*
X144341572Y-41846505D01*
X144098977Y-41976888D01*
X143877962Y-42141196D01*
X143877943Y-42141212D01*
X143683212Y-42335943D01*
X143683196Y-42335962D01*
X143518888Y-42556977D01*
X143388505Y-42799572D01*
X143388502Y-42799579D01*
X143388502Y-42799580D01*
X143294830Y-43058577D01*
X143239866Y-43328453D01*
X143229500Y-43490380D01*
X113228178Y-43490380D01*
X113103720Y-43328183D01*
X113103715Y-43328177D01*
X112909601Y-43134063D01*
X112909594Y-43134057D01*
X112691799Y-42966937D01*
X112691798Y-42966936D01*
X112691795Y-42966934D01*
X112454043Y-42829668D01*
X112381385Y-42799572D01*
X112200411Y-42724610D01*
X111935225Y-42653553D01*
X111663046Y-42617721D01*
X111663045Y-42617721D01*
X111388513Y-42617721D01*
X111388512Y-42617721D01*
X111116332Y-42653553D01*
X110851146Y-42724610D01*
X110597521Y-42829665D01*
X110597512Y-42829669D01*
X110359758Y-42966937D01*
X110141963Y-43134057D01*
X110141956Y-43134063D01*
X109947842Y-43328177D01*
X109947836Y-43328184D01*
X109780716Y-43545979D01*
X109643448Y-43783733D01*
X109643443Y-43783742D01*
X109639061Y-43794324D01*
X109595220Y-43848727D01*
X109528926Y-43870792D01*
X109461226Y-43853513D01*
X109413616Y-43802375D01*
X109400500Y-43746871D01*
X109400500Y-43490389D01*
X109400500Y-43490380D01*
X109390134Y-43328453D01*
X109335170Y-43058577D01*
X109241498Y-42799580D01*
X109201205Y-42724610D01*
X109177704Y-42680882D01*
X109111114Y-42556982D01*
X109111112Y-42556980D01*
X109111111Y-42556977D01*
X108946803Y-42335962D01*
X108946800Y-42335958D01*
X108946796Y-42335953D01*
X108946792Y-42335949D01*
X108946787Y-42335943D01*
X108752056Y-42141212D01*
X108752049Y-42141206D01*
X108752047Y-42141204D01*
X108752042Y-42141200D01*
X108752037Y-42141196D01*
X108531022Y-41976888D01*
X108288427Y-41846505D01*
X108288422Y-41846503D01*
X108288420Y-41846502D01*
X108029423Y-41752830D01*
X107759547Y-41697866D01*
X107597620Y-41687500D01*
X105662380Y-41687500D01*
X105500453Y-41697866D01*
X105230577Y-41752830D01*
X105230570Y-41752832D01*
X105166673Y-41775942D01*
X105096935Y-41780231D01*
X105035949Y-41746137D01*
X105003077Y-41684483D01*
X105000500Y-41659334D01*
X105000500Y-38868872D01*
X107499500Y-38868872D01*
X107499500Y-39131127D01*
X107526123Y-39333339D01*
X107533730Y-39391116D01*
X107594526Y-39618010D01*
X107601602Y-39644418D01*
X107601605Y-39644428D01*
X107701953Y-39886690D01*
X107701958Y-39886700D01*
X107833075Y-40113803D01*
X107992718Y-40321851D01*
X107992726Y-40321860D01*
X108178140Y-40507274D01*
X108178148Y-40507281D01*
X108386196Y-40666924D01*
X108613299Y-40798041D01*
X108613309Y-40798046D01*
X108855571Y-40898394D01*
X108855581Y-40898398D01*
X109108884Y-40966270D01*
X109368880Y-41000500D01*
X109368887Y-41000500D01*
X109631113Y-41000500D01*
X109631120Y-41000500D01*
X109891116Y-40966270D01*
X110144419Y-40898398D01*
X110386697Y-40798043D01*
X110613803Y-40666924D01*
X110821851Y-40507282D01*
X110821855Y-40507277D01*
X110821860Y-40507274D01*
X111007274Y-40321860D01*
X111007277Y-40321855D01*
X111007282Y-40321851D01*
X111166924Y-40113803D01*
X111298043Y-39886697D01*
X111398398Y-39644419D01*
X111466270Y-39391116D01*
X111500500Y-39131120D01*
X111500500Y-38868880D01*
X111466270Y-38608884D01*
X111398398Y-38355581D01*
X111345294Y-38227376D01*
X111298046Y-38113309D01*
X111298041Y-38113299D01*
X111166924Y-37886196D01*
X111007281Y-37678148D01*
X111007274Y-37678140D01*
X110821860Y-37492726D01*
X110821851Y-37492718D01*
X110613803Y-37333075D01*
X110386700Y-37201958D01*
X110386690Y-37201953D01*
X110144428Y-37101605D01*
X110144421Y-37101603D01*
X110144419Y-37101602D01*
X109891116Y-37033730D01*
X109833339Y-37026123D01*
X109631127Y-36999500D01*
X109631120Y-36999500D01*
X109368880Y-36999500D01*
X109368872Y-36999500D01*
X109137772Y-37029926D01*
X109108884Y-37033730D01*
X108855581Y-37101602D01*
X108855571Y-37101605D01*
X108613309Y-37201953D01*
X108613299Y-37201958D01*
X108386196Y-37333075D01*
X108178148Y-37492718D01*
X107992718Y-37678148D01*
X107833075Y-37886196D01*
X107701958Y-38113299D01*
X107701953Y-38113309D01*
X107601605Y-38355571D01*
X107601602Y-38355581D01*
X107547539Y-38557350D01*
X107533730Y-38608885D01*
X107499500Y-38868872D01*
X105000500Y-38868872D01*
X105000500Y-36124500D01*
X105020185Y-36057461D01*
X105072989Y-36011706D01*
X105124500Y-36000500D01*
X123090831Y-36000500D01*
X123157870Y-36020185D01*
G37*
G04 #@! TD.AperFunction*
M02*
