%TF.GenerationSoftware,KiCad,Pcbnew,9.0.0-9.0.0-2~ubuntu24.04.1*%
%TF.CreationDate,2025-04-02T19:47:50+02:00*%
%TF.ProjectId,Buck_InterFace,4275636b-5f49-46e7-9465-72466163652e,rev?*%
%TF.SameCoordinates,Original*%
%TF.FileFunction,Drillmap*%
%TF.FilePolarity,Positive*%
%FSLAX45Y45*%
G04 Gerber Fmt 4.5, Leading zero omitted, Abs format (unit mm)*
G04 Created by KiCad (PCBNEW 9.0.0-9.0.0-2~ubuntu24.04.1) date 2025-04-02 19:47:50*
%MOMM*%
%LPD*%
G01*
G04 APERTURE LIST*
%ADD10C,0.050000*%
%ADD11C,0.200000*%
%ADD12C,0.100000*%
%ADD13C,0.120000*%
%ADD14C,0.260000*%
G04 APERTURE END LIST*
D10*
X15300000Y-8450000D02*
G75*
G02*
X15000000Y-8450000I-150000J0D01*
G01*
X15000000Y-8450000D02*
G75*
G02*
X15300000Y-8450000I150000J0D01*
G01*
X11100000Y-3900000D02*
G75*
G02*
X10800000Y-3900000I-150000J0D01*
G01*
X10800000Y-3900000D02*
G75*
G02*
X11100000Y-3900000I150000J0D01*
G01*
X10450000Y-3550000D02*
X15650000Y-3550000D01*
X15650000Y-13550000D01*
X10450000Y-13550000D01*
X10450000Y-3550000D01*
X15300000Y-3900000D02*
G75*
G02*
X15000000Y-3900000I-150000J0D01*
G01*
X15000000Y-3900000D02*
G75*
G02*
X15300000Y-3900000I150000J0D01*
G01*
X15300000Y-6450000D02*
G75*
G02*
X15000000Y-6450000I-150000J0D01*
G01*
X15000000Y-6450000D02*
G75*
G02*
X15300000Y-6450000I150000J0D01*
G01*
X15300000Y-11150000D02*
G75*
G02*
X15000000Y-11150000I-150000J0D01*
G01*
X15000000Y-11150000D02*
G75*
G02*
X15300000Y-11150000I150000J0D01*
G01*
X11450000Y-13350000D02*
G75*
G02*
X11150000Y-13350000I-150000J0D01*
G01*
X11150000Y-13350000D02*
G75*
G02*
X11450000Y-13350000I150000J0D01*
G01*
X15300000Y-13350000D02*
G75*
G02*
X15000000Y-13350000I-150000J0D01*
G01*
X15000000Y-13350000D02*
G75*
G02*
X15300000Y-13350000I150000J0D01*
G01*
X11311956Y-4471200D02*
G75*
G02*
X10993200Y-4471200I-159378J0D01*
G01*
X10993200Y-4471200D02*
G75*
G02*
X11311956Y-4471200I159378J0D01*
G01*
X14269800Y-6140636D02*
G75*
G02*
X13951072Y-6140636I-159364J0D01*
G01*
X13951072Y-6140636D02*
G75*
G02*
X14269800Y-6140636I159364J0D01*
G01*
X11311956Y-6740200D02*
G75*
G02*
X10993200Y-6740200I-159378J0D01*
G01*
X10993200Y-6740200D02*
G75*
G02*
X11311956Y-6740200I159378J0D01*
G01*
X14269800Y-8409636D02*
G75*
G02*
X13951072Y-8409636I-159364J0D01*
G01*
X13951072Y-8409636D02*
G75*
G02*
X14269800Y-8409636I159364J0D01*
G01*
X11311956Y-9009200D02*
G75*
G02*
X10993200Y-9009200I-159378J0D01*
G01*
X10993200Y-9009200D02*
G75*
G02*
X11311956Y-9009200I159378J0D01*
G01*
X14269800Y-10678636D02*
G75*
G02*
X13951072Y-10678636I-159364J0D01*
G01*
X13951072Y-10678636D02*
G75*
G02*
X14269800Y-10678636I159364J0D01*
G01*
X11311956Y-11278200D02*
G75*
G02*
X10993200Y-11278200I-159378J0D01*
G01*
X10993200Y-11278200D02*
G75*
G02*
X11311956Y-11278200I159378J0D01*
G01*
X14269800Y-12947636D02*
G75*
G02*
X13951072Y-12947636I-159364J0D01*
G01*
X13951072Y-12947636D02*
G75*
G02*
X14269800Y-12947636I159364J0D01*
G01*
D11*
D12*
X15000000Y-8896000D02*
X15100000Y-8996000D01*
X15100000Y-8896000D02*
X15000000Y-8996000D01*
X15000000Y-9150000D02*
X15100000Y-9250000D01*
X15100000Y-9150000D02*
X15000000Y-9250000D01*
X15000000Y-9646000D02*
X15100000Y-9746000D01*
X15100000Y-9646000D02*
X15000000Y-9746000D01*
X15000000Y-9900000D02*
X15100000Y-10000000D01*
X15100000Y-9900000D02*
X15000000Y-10000000D01*
X15000000Y-10450000D02*
X15100000Y-10550000D01*
X15100000Y-10450000D02*
X15000000Y-10550000D01*
X15000000Y-10704000D02*
X15100000Y-10804000D01*
X15100000Y-10704000D02*
X15000000Y-10804000D01*
X15175000Y-11480000D02*
X15275000Y-11580000D01*
X15275000Y-11480000D02*
X15175000Y-11580000D01*
X15175000Y-11734000D02*
X15275000Y-11834000D01*
X15275000Y-11734000D02*
X15175000Y-11834000D01*
X15175000Y-11988000D02*
X15275000Y-12088000D01*
X15275000Y-11988000D02*
X15175000Y-12088000D01*
X15175000Y-12242000D02*
X15275000Y-12342000D01*
X15275000Y-12242000D02*
X15175000Y-12342000D01*
X15175000Y-12496000D02*
X15275000Y-12596000D01*
X15275000Y-12496000D02*
X15175000Y-12596000D01*
X15175000Y-12750000D02*
X15275000Y-12850000D01*
X15275000Y-12750000D02*
X15175000Y-12850000D01*
X15400000Y-8896000D02*
X15500000Y-8996000D01*
X15500000Y-8896000D02*
X15400000Y-8996000D01*
X15400000Y-9150000D02*
X15500000Y-9250000D01*
X15500000Y-9150000D02*
X15400000Y-9250000D01*
X15400000Y-9650000D02*
X15500000Y-9750000D01*
X15500000Y-9650000D02*
X15400000Y-9750000D01*
X15400000Y-9904000D02*
X15500000Y-10004000D01*
X15500000Y-9904000D02*
X15400000Y-10004000D01*
X15400000Y-10450000D02*
X15500000Y-10550000D01*
X15500000Y-10450000D02*
X15400000Y-10550000D01*
X15400000Y-10704000D02*
X15500000Y-10804000D01*
X15500000Y-10704000D02*
X15400000Y-10804000D01*
D13*
X10723000Y-4445800D02*
G75*
G02*
X10603000Y-4445800I-60000J0D01*
G01*
X10603000Y-4445800D02*
G75*
G02*
X10723000Y-4445800I60000J0D01*
G01*
X10723000Y-6173000D02*
G75*
G02*
X10603000Y-6173000I-60000J0D01*
G01*
X10603000Y-6173000D02*
G75*
G02*
X10723000Y-6173000I60000J0D01*
G01*
X10723000Y-6714800D02*
G75*
G02*
X10603000Y-6714800I-60000J0D01*
G01*
X10603000Y-6714800D02*
G75*
G02*
X10723000Y-6714800I60000J0D01*
G01*
X10723000Y-8442000D02*
G75*
G02*
X10603000Y-8442000I-60000J0D01*
G01*
X10603000Y-8442000D02*
G75*
G02*
X10723000Y-8442000I60000J0D01*
G01*
X10723000Y-8983800D02*
G75*
G02*
X10603000Y-8983800I-60000J0D01*
G01*
X10603000Y-8983800D02*
G75*
G02*
X10723000Y-8983800I60000J0D01*
G01*
X10723000Y-10711000D02*
G75*
G02*
X10603000Y-10711000I-60000J0D01*
G01*
X10603000Y-10711000D02*
G75*
G02*
X10723000Y-10711000I60000J0D01*
G01*
X10723000Y-11252800D02*
G75*
G02*
X10603000Y-11252800I-60000J0D01*
G01*
X10603000Y-11252800D02*
G75*
G02*
X10723000Y-11252800I60000J0D01*
G01*
X10723000Y-12980000D02*
G75*
G02*
X10603000Y-12980000I-60000J0D01*
G01*
X10603000Y-12980000D02*
G75*
G02*
X10723000Y-12980000I60000J0D01*
G01*
X14660000Y-4445800D02*
G75*
G02*
X14540000Y-4445800I-60000J0D01*
G01*
X14540000Y-4445800D02*
G75*
G02*
X14660000Y-4445800I60000J0D01*
G01*
X14660000Y-6173000D02*
G75*
G02*
X14540000Y-6173000I-60000J0D01*
G01*
X14540000Y-6173000D02*
G75*
G02*
X14660000Y-6173000I60000J0D01*
G01*
X14660000Y-6714800D02*
G75*
G02*
X14540000Y-6714800I-60000J0D01*
G01*
X14540000Y-6714800D02*
G75*
G02*
X14660000Y-6714800I60000J0D01*
G01*
X14660000Y-8442000D02*
G75*
G02*
X14540000Y-8442000I-60000J0D01*
G01*
X14540000Y-8442000D02*
G75*
G02*
X14660000Y-8442000I60000J0D01*
G01*
X14660000Y-8983800D02*
G75*
G02*
X14540000Y-8983800I-60000J0D01*
G01*
X14540000Y-8983800D02*
G75*
G02*
X14660000Y-8983800I60000J0D01*
G01*
X14660000Y-10711000D02*
G75*
G02*
X14540000Y-10711000I-60000J0D01*
G01*
X14540000Y-10711000D02*
G75*
G02*
X14660000Y-10711000I60000J0D01*
G01*
X14660000Y-11252800D02*
G75*
G02*
X14540000Y-11252800I-60000J0D01*
G01*
X14540000Y-11252800D02*
G75*
G02*
X14660000Y-11252800I60000J0D01*
G01*
X14660000Y-12980000D02*
G75*
G02*
X14540000Y-12980000I-60000J0D01*
G01*
X14540000Y-12980000D02*
G75*
G02*
X14660000Y-12980000I60000J0D01*
G01*
D14*
X12636920Y-3770000D02*
X12636920Y-4030000D01*
X12506920Y-3900000D02*
X12766920Y-3900000D01*
X13150000Y-3770000D02*
X13150000Y-4030000D01*
X13020000Y-3900000D02*
X13280000Y-3900000D01*
X15100000Y-4920000D02*
X15100000Y-5180000D01*
X14970000Y-5050000D02*
X15230000Y-5050000D01*
X15100000Y-5433080D02*
X15100000Y-5693080D01*
X14970000Y-5563080D02*
X15230000Y-5563080D01*
X15100000Y-7170000D02*
X15100000Y-7430000D01*
X14970000Y-7300000D02*
X15230000Y-7300000D01*
X15100000Y-7683080D02*
X15100000Y-7943080D01*
X14970000Y-7813080D02*
X15230000Y-7813080D01*
D11*
X10708277Y-13863984D02*
X10708277Y-13663984D01*
X10708277Y-13663984D02*
X10755896Y-13663984D01*
X10755896Y-13663984D02*
X10784467Y-13673508D01*
X10784467Y-13673508D02*
X10803515Y-13692555D01*
X10803515Y-13692555D02*
X10813039Y-13711603D01*
X10813039Y-13711603D02*
X10822563Y-13749698D01*
X10822563Y-13749698D02*
X10822563Y-13778269D01*
X10822563Y-13778269D02*
X10813039Y-13816365D01*
X10813039Y-13816365D02*
X10803515Y-13835412D01*
X10803515Y-13835412D02*
X10784467Y-13854460D01*
X10784467Y-13854460D02*
X10755896Y-13863984D01*
X10755896Y-13863984D02*
X10708277Y-13863984D01*
X10908277Y-13863984D02*
X10908277Y-13730650D01*
X10908277Y-13768746D02*
X10917801Y-13749698D01*
X10917801Y-13749698D02*
X10927324Y-13740174D01*
X10927324Y-13740174D02*
X10946372Y-13730650D01*
X10946372Y-13730650D02*
X10965420Y-13730650D01*
X11032086Y-13863984D02*
X11032086Y-13730650D01*
X11032086Y-13663984D02*
X11022563Y-13673508D01*
X11022563Y-13673508D02*
X11032086Y-13683031D01*
X11032086Y-13683031D02*
X11041610Y-13673508D01*
X11041610Y-13673508D02*
X11032086Y-13663984D01*
X11032086Y-13663984D02*
X11032086Y-13683031D01*
X11155896Y-13863984D02*
X11136848Y-13854460D01*
X11136848Y-13854460D02*
X11127324Y-13835412D01*
X11127324Y-13835412D02*
X11127324Y-13663984D01*
X11260658Y-13863984D02*
X11241610Y-13854460D01*
X11241610Y-13854460D02*
X11232086Y-13835412D01*
X11232086Y-13835412D02*
X11232086Y-13663984D01*
X11489229Y-13863984D02*
X11489229Y-13663984D01*
X11489229Y-13663984D02*
X11555896Y-13806841D01*
X11555896Y-13806841D02*
X11622562Y-13663984D01*
X11622562Y-13663984D02*
X11622562Y-13863984D01*
X11803515Y-13863984D02*
X11803515Y-13759222D01*
X11803515Y-13759222D02*
X11793991Y-13740174D01*
X11793991Y-13740174D02*
X11774943Y-13730650D01*
X11774943Y-13730650D02*
X11736848Y-13730650D01*
X11736848Y-13730650D02*
X11717801Y-13740174D01*
X11803515Y-13854460D02*
X11784467Y-13863984D01*
X11784467Y-13863984D02*
X11736848Y-13863984D01*
X11736848Y-13863984D02*
X11717801Y-13854460D01*
X11717801Y-13854460D02*
X11708277Y-13835412D01*
X11708277Y-13835412D02*
X11708277Y-13816365D01*
X11708277Y-13816365D02*
X11717801Y-13797317D01*
X11717801Y-13797317D02*
X11736848Y-13787793D01*
X11736848Y-13787793D02*
X11784467Y-13787793D01*
X11784467Y-13787793D02*
X11803515Y-13778269D01*
X11898753Y-13730650D02*
X11898753Y-13930650D01*
X11898753Y-13740174D02*
X11917801Y-13730650D01*
X11917801Y-13730650D02*
X11955896Y-13730650D01*
X11955896Y-13730650D02*
X11974943Y-13740174D01*
X11974943Y-13740174D02*
X11984467Y-13749698D01*
X11984467Y-13749698D02*
X11993991Y-13768746D01*
X11993991Y-13768746D02*
X11993991Y-13825888D01*
X11993991Y-13825888D02*
X11984467Y-13844936D01*
X11984467Y-13844936D02*
X11974943Y-13854460D01*
X11974943Y-13854460D02*
X11955896Y-13863984D01*
X11955896Y-13863984D02*
X11917801Y-13863984D01*
X11917801Y-13863984D02*
X11898753Y-13854460D01*
X12079705Y-13844936D02*
X12089229Y-13854460D01*
X12089229Y-13854460D02*
X12079705Y-13863984D01*
X12079705Y-13863984D02*
X12070182Y-13854460D01*
X12070182Y-13854460D02*
X12079705Y-13844936D01*
X12079705Y-13844936D02*
X12079705Y-13863984D01*
X12079705Y-13740174D02*
X12089229Y-13749698D01*
X12089229Y-13749698D02*
X12079705Y-13759222D01*
X12079705Y-13759222D02*
X12070182Y-13749698D01*
X12070182Y-13749698D02*
X12079705Y-13740174D01*
X12079705Y-13740174D02*
X12079705Y-13759222D01*
D12*
X10347500Y-14142500D02*
X10447500Y-14242500D01*
X10447500Y-14142500D02*
X10347500Y-14242500D01*
D11*
X10813039Y-14283984D02*
X10698753Y-14283984D01*
X10755896Y-14283984D02*
X10755896Y-14083984D01*
X10755896Y-14083984D02*
X10736848Y-14112555D01*
X10736848Y-14112555D02*
X10717801Y-14131603D01*
X10717801Y-14131603D02*
X10698753Y-14141127D01*
X10898753Y-14264936D02*
X10908277Y-14274460D01*
X10908277Y-14274460D02*
X10898753Y-14283984D01*
X10898753Y-14283984D02*
X10889229Y-14274460D01*
X10889229Y-14274460D02*
X10898753Y-14264936D01*
X10898753Y-14264936D02*
X10898753Y-14283984D01*
X11032086Y-14083984D02*
X11051134Y-14083984D01*
X11051134Y-14083984D02*
X11070182Y-14093508D01*
X11070182Y-14093508D02*
X11079705Y-14103031D01*
X11079705Y-14103031D02*
X11089229Y-14122079D01*
X11089229Y-14122079D02*
X11098753Y-14160174D01*
X11098753Y-14160174D02*
X11098753Y-14207793D01*
X11098753Y-14207793D02*
X11089229Y-14245888D01*
X11089229Y-14245888D02*
X11079705Y-14264936D01*
X11079705Y-14264936D02*
X11070182Y-14274460D01*
X11070182Y-14274460D02*
X11051134Y-14283984D01*
X11051134Y-14283984D02*
X11032086Y-14283984D01*
X11032086Y-14283984D02*
X11013039Y-14274460D01*
X11013039Y-14274460D02*
X11003515Y-14264936D01*
X11003515Y-14264936D02*
X10993991Y-14245888D01*
X10993991Y-14245888D02*
X10984467Y-14207793D01*
X10984467Y-14207793D02*
X10984467Y-14160174D01*
X10984467Y-14160174D02*
X10993991Y-14122079D01*
X10993991Y-14122079D02*
X11003515Y-14103031D01*
X11003515Y-14103031D02*
X11013039Y-14093508D01*
X11013039Y-14093508D02*
X11032086Y-14083984D01*
X11222562Y-14083984D02*
X11241610Y-14083984D01*
X11241610Y-14083984D02*
X11260658Y-14093508D01*
X11260658Y-14093508D02*
X11270182Y-14103031D01*
X11270182Y-14103031D02*
X11279705Y-14122079D01*
X11279705Y-14122079D02*
X11289229Y-14160174D01*
X11289229Y-14160174D02*
X11289229Y-14207793D01*
X11289229Y-14207793D02*
X11279705Y-14245888D01*
X11279705Y-14245888D02*
X11270182Y-14264936D01*
X11270182Y-14264936D02*
X11260658Y-14274460D01*
X11260658Y-14274460D02*
X11241610Y-14283984D01*
X11241610Y-14283984D02*
X11222562Y-14283984D01*
X11222562Y-14283984D02*
X11203515Y-14274460D01*
X11203515Y-14274460D02*
X11193991Y-14264936D01*
X11193991Y-14264936D02*
X11184467Y-14245888D01*
X11184467Y-14245888D02*
X11174944Y-14207793D01*
X11174944Y-14207793D02*
X11174944Y-14160174D01*
X11174944Y-14160174D02*
X11184467Y-14122079D01*
X11184467Y-14122079D02*
X11193991Y-14103031D01*
X11193991Y-14103031D02*
X11203515Y-14093508D01*
X11203515Y-14093508D02*
X11222562Y-14083984D01*
X11413039Y-14083984D02*
X11432086Y-14083984D01*
X11432086Y-14083984D02*
X11451134Y-14093508D01*
X11451134Y-14093508D02*
X11460658Y-14103031D01*
X11460658Y-14103031D02*
X11470182Y-14122079D01*
X11470182Y-14122079D02*
X11479705Y-14160174D01*
X11479705Y-14160174D02*
X11479705Y-14207793D01*
X11479705Y-14207793D02*
X11470182Y-14245888D01*
X11470182Y-14245888D02*
X11460658Y-14264936D01*
X11460658Y-14264936D02*
X11451134Y-14274460D01*
X11451134Y-14274460D02*
X11432086Y-14283984D01*
X11432086Y-14283984D02*
X11413039Y-14283984D01*
X11413039Y-14283984D02*
X11393991Y-14274460D01*
X11393991Y-14274460D02*
X11384467Y-14264936D01*
X11384467Y-14264936D02*
X11374943Y-14245888D01*
X11374943Y-14245888D02*
X11365420Y-14207793D01*
X11365420Y-14207793D02*
X11365420Y-14160174D01*
X11365420Y-14160174D02*
X11374943Y-14122079D01*
X11374943Y-14122079D02*
X11384467Y-14103031D01*
X11384467Y-14103031D02*
X11393991Y-14093508D01*
X11393991Y-14093508D02*
X11413039Y-14083984D01*
X11565420Y-14283984D02*
X11565420Y-14150650D01*
X11565420Y-14169698D02*
X11574943Y-14160174D01*
X11574943Y-14160174D02*
X11593991Y-14150650D01*
X11593991Y-14150650D02*
X11622563Y-14150650D01*
X11622563Y-14150650D02*
X11641610Y-14160174D01*
X11641610Y-14160174D02*
X11651134Y-14179222D01*
X11651134Y-14179222D02*
X11651134Y-14283984D01*
X11651134Y-14179222D02*
X11660658Y-14160174D01*
X11660658Y-14160174D02*
X11679705Y-14150650D01*
X11679705Y-14150650D02*
X11708277Y-14150650D01*
X11708277Y-14150650D02*
X11727324Y-14160174D01*
X11727324Y-14160174D02*
X11736848Y-14179222D01*
X11736848Y-14179222D02*
X11736848Y-14283984D01*
X11832086Y-14283984D02*
X11832086Y-14150650D01*
X11832086Y-14169698D02*
X11841610Y-14160174D01*
X11841610Y-14160174D02*
X11860658Y-14150650D01*
X11860658Y-14150650D02*
X11889229Y-14150650D01*
X11889229Y-14150650D02*
X11908277Y-14160174D01*
X11908277Y-14160174D02*
X11917801Y-14179222D01*
X11917801Y-14179222D02*
X11917801Y-14283984D01*
X11917801Y-14179222D02*
X11927324Y-14160174D01*
X11927324Y-14160174D02*
X11946372Y-14150650D01*
X11946372Y-14150650D02*
X11974943Y-14150650D01*
X11974943Y-14150650D02*
X11993991Y-14160174D01*
X11993991Y-14160174D02*
X12003515Y-14179222D01*
X12003515Y-14179222D02*
X12003515Y-14283984D01*
X12393991Y-14074460D02*
X12222563Y-14331603D01*
X12651134Y-14083984D02*
X12670182Y-14083984D01*
X12670182Y-14083984D02*
X12689229Y-14093508D01*
X12689229Y-14093508D02*
X12698753Y-14103031D01*
X12698753Y-14103031D02*
X12708277Y-14122079D01*
X12708277Y-14122079D02*
X12717801Y-14160174D01*
X12717801Y-14160174D02*
X12717801Y-14207793D01*
X12717801Y-14207793D02*
X12708277Y-14245888D01*
X12708277Y-14245888D02*
X12698753Y-14264936D01*
X12698753Y-14264936D02*
X12689229Y-14274460D01*
X12689229Y-14274460D02*
X12670182Y-14283984D01*
X12670182Y-14283984D02*
X12651134Y-14283984D01*
X12651134Y-14283984D02*
X12632086Y-14274460D01*
X12632086Y-14274460D02*
X12622563Y-14264936D01*
X12622563Y-14264936D02*
X12613039Y-14245888D01*
X12613039Y-14245888D02*
X12603515Y-14207793D01*
X12603515Y-14207793D02*
X12603515Y-14160174D01*
X12603515Y-14160174D02*
X12613039Y-14122079D01*
X12613039Y-14122079D02*
X12622563Y-14103031D01*
X12622563Y-14103031D02*
X12632086Y-14093508D01*
X12632086Y-14093508D02*
X12651134Y-14083984D01*
X12803515Y-14264936D02*
X12813039Y-14274460D01*
X12813039Y-14274460D02*
X12803515Y-14283984D01*
X12803515Y-14283984D02*
X12793991Y-14274460D01*
X12793991Y-14274460D02*
X12803515Y-14264936D01*
X12803515Y-14264936D02*
X12803515Y-14283984D01*
X12936848Y-14083984D02*
X12955896Y-14083984D01*
X12955896Y-14083984D02*
X12974944Y-14093508D01*
X12974944Y-14093508D02*
X12984467Y-14103031D01*
X12984467Y-14103031D02*
X12993991Y-14122079D01*
X12993991Y-14122079D02*
X13003515Y-14160174D01*
X13003515Y-14160174D02*
X13003515Y-14207793D01*
X13003515Y-14207793D02*
X12993991Y-14245888D01*
X12993991Y-14245888D02*
X12984467Y-14264936D01*
X12984467Y-14264936D02*
X12974944Y-14274460D01*
X12974944Y-14274460D02*
X12955896Y-14283984D01*
X12955896Y-14283984D02*
X12936848Y-14283984D01*
X12936848Y-14283984D02*
X12917801Y-14274460D01*
X12917801Y-14274460D02*
X12908277Y-14264936D01*
X12908277Y-14264936D02*
X12898753Y-14245888D01*
X12898753Y-14245888D02*
X12889229Y-14207793D01*
X12889229Y-14207793D02*
X12889229Y-14160174D01*
X12889229Y-14160174D02*
X12898753Y-14122079D01*
X12898753Y-14122079D02*
X12908277Y-14103031D01*
X12908277Y-14103031D02*
X12917801Y-14093508D01*
X12917801Y-14093508D02*
X12936848Y-14083984D01*
X13070182Y-14083984D02*
X13193991Y-14083984D01*
X13193991Y-14083984D02*
X13127325Y-14160174D01*
X13127325Y-14160174D02*
X13155896Y-14160174D01*
X13155896Y-14160174D02*
X13174944Y-14169698D01*
X13174944Y-14169698D02*
X13184467Y-14179222D01*
X13184467Y-14179222D02*
X13193991Y-14198269D01*
X13193991Y-14198269D02*
X13193991Y-14245888D01*
X13193991Y-14245888D02*
X13184467Y-14264936D01*
X13184467Y-14264936D02*
X13174944Y-14274460D01*
X13174944Y-14274460D02*
X13155896Y-14283984D01*
X13155896Y-14283984D02*
X13098753Y-14283984D01*
X13098753Y-14283984D02*
X13079706Y-14274460D01*
X13079706Y-14274460D02*
X13070182Y-14264936D01*
X13289229Y-14283984D02*
X13327325Y-14283984D01*
X13327325Y-14283984D02*
X13346372Y-14274460D01*
X13346372Y-14274460D02*
X13355896Y-14264936D01*
X13355896Y-14264936D02*
X13374944Y-14236365D01*
X13374944Y-14236365D02*
X13384467Y-14198269D01*
X13384467Y-14198269D02*
X13384467Y-14122079D01*
X13384467Y-14122079D02*
X13374944Y-14103031D01*
X13374944Y-14103031D02*
X13365420Y-14093508D01*
X13365420Y-14093508D02*
X13346372Y-14083984D01*
X13346372Y-14083984D02*
X13308277Y-14083984D01*
X13308277Y-14083984D02*
X13289229Y-14093508D01*
X13289229Y-14093508D02*
X13279706Y-14103031D01*
X13279706Y-14103031D02*
X13270182Y-14122079D01*
X13270182Y-14122079D02*
X13270182Y-14169698D01*
X13270182Y-14169698D02*
X13279706Y-14188746D01*
X13279706Y-14188746D02*
X13289229Y-14198269D01*
X13289229Y-14198269D02*
X13308277Y-14207793D01*
X13308277Y-14207793D02*
X13346372Y-14207793D01*
X13346372Y-14207793D02*
X13365420Y-14198269D01*
X13365420Y-14198269D02*
X13374944Y-14188746D01*
X13374944Y-14188746D02*
X13384467Y-14169698D01*
X13555896Y-14150650D02*
X13555896Y-14283984D01*
X13508277Y-14074460D02*
X13460658Y-14217317D01*
X13460658Y-14217317D02*
X13584467Y-14217317D01*
X13651134Y-14083984D02*
X13651134Y-14122079D01*
X13727325Y-14083984D02*
X13727325Y-14122079D01*
X14022563Y-14360174D02*
X14013039Y-14350650D01*
X14013039Y-14350650D02*
X13993991Y-14322079D01*
X13993991Y-14322079D02*
X13984468Y-14303031D01*
X13984468Y-14303031D02*
X13974944Y-14274460D01*
X13974944Y-14274460D02*
X13965420Y-14226841D01*
X13965420Y-14226841D02*
X13965420Y-14188746D01*
X13965420Y-14188746D02*
X13974944Y-14141127D01*
X13974944Y-14141127D02*
X13984468Y-14112555D01*
X13984468Y-14112555D02*
X13993991Y-14093508D01*
X13993991Y-14093508D02*
X14013039Y-14064936D01*
X14013039Y-14064936D02*
X14022563Y-14055412D01*
X14203515Y-14283984D02*
X14089229Y-14283984D01*
X14146372Y-14283984D02*
X14146372Y-14083984D01*
X14146372Y-14083984D02*
X14127325Y-14112555D01*
X14127325Y-14112555D02*
X14108277Y-14131603D01*
X14108277Y-14131603D02*
X14089229Y-14141127D01*
X14317801Y-14169698D02*
X14298753Y-14160174D01*
X14298753Y-14160174D02*
X14289229Y-14150650D01*
X14289229Y-14150650D02*
X14279706Y-14131603D01*
X14279706Y-14131603D02*
X14279706Y-14122079D01*
X14279706Y-14122079D02*
X14289229Y-14103031D01*
X14289229Y-14103031D02*
X14298753Y-14093508D01*
X14298753Y-14093508D02*
X14317801Y-14083984D01*
X14317801Y-14083984D02*
X14355896Y-14083984D01*
X14355896Y-14083984D02*
X14374944Y-14093508D01*
X14374944Y-14093508D02*
X14384468Y-14103031D01*
X14384468Y-14103031D02*
X14393991Y-14122079D01*
X14393991Y-14122079D02*
X14393991Y-14131603D01*
X14393991Y-14131603D02*
X14384468Y-14150650D01*
X14384468Y-14150650D02*
X14374944Y-14160174D01*
X14374944Y-14160174D02*
X14355896Y-14169698D01*
X14355896Y-14169698D02*
X14317801Y-14169698D01*
X14317801Y-14169698D02*
X14298753Y-14179222D01*
X14298753Y-14179222D02*
X14289229Y-14188746D01*
X14289229Y-14188746D02*
X14279706Y-14207793D01*
X14279706Y-14207793D02*
X14279706Y-14245888D01*
X14279706Y-14245888D02*
X14289229Y-14264936D01*
X14289229Y-14264936D02*
X14298753Y-14274460D01*
X14298753Y-14274460D02*
X14317801Y-14283984D01*
X14317801Y-14283984D02*
X14355896Y-14283984D01*
X14355896Y-14283984D02*
X14374944Y-14274460D01*
X14374944Y-14274460D02*
X14384468Y-14264936D01*
X14384468Y-14264936D02*
X14393991Y-14245888D01*
X14393991Y-14245888D02*
X14393991Y-14207793D01*
X14393991Y-14207793D02*
X14384468Y-14188746D01*
X14384468Y-14188746D02*
X14374944Y-14179222D01*
X14374944Y-14179222D02*
X14355896Y-14169698D01*
X14632087Y-14283984D02*
X14632087Y-14083984D01*
X14717801Y-14283984D02*
X14717801Y-14179222D01*
X14717801Y-14179222D02*
X14708277Y-14160174D01*
X14708277Y-14160174D02*
X14689230Y-14150650D01*
X14689230Y-14150650D02*
X14660658Y-14150650D01*
X14660658Y-14150650D02*
X14641610Y-14160174D01*
X14641610Y-14160174D02*
X14632087Y-14169698D01*
X14841610Y-14283984D02*
X14822563Y-14274460D01*
X14822563Y-14274460D02*
X14813039Y-14264936D01*
X14813039Y-14264936D02*
X14803515Y-14245888D01*
X14803515Y-14245888D02*
X14803515Y-14188746D01*
X14803515Y-14188746D02*
X14813039Y-14169698D01*
X14813039Y-14169698D02*
X14822563Y-14160174D01*
X14822563Y-14160174D02*
X14841610Y-14150650D01*
X14841610Y-14150650D02*
X14870182Y-14150650D01*
X14870182Y-14150650D02*
X14889230Y-14160174D01*
X14889230Y-14160174D02*
X14898753Y-14169698D01*
X14898753Y-14169698D02*
X14908277Y-14188746D01*
X14908277Y-14188746D02*
X14908277Y-14245888D01*
X14908277Y-14245888D02*
X14898753Y-14264936D01*
X14898753Y-14264936D02*
X14889230Y-14274460D01*
X14889230Y-14274460D02*
X14870182Y-14283984D01*
X14870182Y-14283984D02*
X14841610Y-14283984D01*
X15022563Y-14283984D02*
X15003515Y-14274460D01*
X15003515Y-14274460D02*
X14993991Y-14255412D01*
X14993991Y-14255412D02*
X14993991Y-14083984D01*
X15174944Y-14274460D02*
X15155896Y-14283984D01*
X15155896Y-14283984D02*
X15117801Y-14283984D01*
X15117801Y-14283984D02*
X15098753Y-14274460D01*
X15098753Y-14274460D02*
X15089230Y-14255412D01*
X15089230Y-14255412D02*
X15089230Y-14179222D01*
X15089230Y-14179222D02*
X15098753Y-14160174D01*
X15098753Y-14160174D02*
X15117801Y-14150650D01*
X15117801Y-14150650D02*
X15155896Y-14150650D01*
X15155896Y-14150650D02*
X15174944Y-14160174D01*
X15174944Y-14160174D02*
X15184468Y-14179222D01*
X15184468Y-14179222D02*
X15184468Y-14198269D01*
X15184468Y-14198269D02*
X15089230Y-14217317D01*
X15260658Y-14274460D02*
X15279706Y-14283984D01*
X15279706Y-14283984D02*
X15317801Y-14283984D01*
X15317801Y-14283984D02*
X15336849Y-14274460D01*
X15336849Y-14274460D02*
X15346372Y-14255412D01*
X15346372Y-14255412D02*
X15346372Y-14245888D01*
X15346372Y-14245888D02*
X15336849Y-14226841D01*
X15336849Y-14226841D02*
X15317801Y-14217317D01*
X15317801Y-14217317D02*
X15289230Y-14217317D01*
X15289230Y-14217317D02*
X15270182Y-14207793D01*
X15270182Y-14207793D02*
X15260658Y-14188746D01*
X15260658Y-14188746D02*
X15260658Y-14179222D01*
X15260658Y-14179222D02*
X15270182Y-14160174D01*
X15270182Y-14160174D02*
X15289230Y-14150650D01*
X15289230Y-14150650D02*
X15317801Y-14150650D01*
X15317801Y-14150650D02*
X15336849Y-14160174D01*
X15413039Y-14360174D02*
X15422563Y-14350650D01*
X15422563Y-14350650D02*
X15441611Y-14322079D01*
X15441611Y-14322079D02*
X15451134Y-14303031D01*
X15451134Y-14303031D02*
X15460658Y-14274460D01*
X15460658Y-14274460D02*
X15470182Y-14226841D01*
X15470182Y-14226841D02*
X15470182Y-14188746D01*
X15470182Y-14188746D02*
X15460658Y-14141127D01*
X15460658Y-14141127D02*
X15451134Y-14112555D01*
X15451134Y-14112555D02*
X15441611Y-14093508D01*
X15441611Y-14093508D02*
X15422563Y-14064936D01*
X15422563Y-14064936D02*
X15413039Y-14055412D01*
D13*
X10447500Y-14456500D02*
G75*
G02*
X10327500Y-14456500I-60000J0D01*
G01*
X10327500Y-14456500D02*
G75*
G02*
X10447500Y-14456500I60000J0D01*
G01*
D11*
X10813039Y-14547984D02*
X10698753Y-14547984D01*
X10755896Y-14547984D02*
X10755896Y-14347984D01*
X10755896Y-14347984D02*
X10736848Y-14376555D01*
X10736848Y-14376555D02*
X10717801Y-14395603D01*
X10717801Y-14395603D02*
X10698753Y-14405127D01*
X10898753Y-14528936D02*
X10908277Y-14538460D01*
X10908277Y-14538460D02*
X10898753Y-14547984D01*
X10898753Y-14547984D02*
X10889229Y-14538460D01*
X10889229Y-14538460D02*
X10898753Y-14528936D01*
X10898753Y-14528936D02*
X10898753Y-14547984D01*
X10984467Y-14367031D02*
X10993991Y-14357508D01*
X10993991Y-14357508D02*
X11013039Y-14347984D01*
X11013039Y-14347984D02*
X11060658Y-14347984D01*
X11060658Y-14347984D02*
X11079705Y-14357508D01*
X11079705Y-14357508D02*
X11089229Y-14367031D01*
X11089229Y-14367031D02*
X11098753Y-14386079D01*
X11098753Y-14386079D02*
X11098753Y-14405127D01*
X11098753Y-14405127D02*
X11089229Y-14433698D01*
X11089229Y-14433698D02*
X10974944Y-14547984D01*
X10974944Y-14547984D02*
X11098753Y-14547984D01*
X11222562Y-14347984D02*
X11241610Y-14347984D01*
X11241610Y-14347984D02*
X11260658Y-14357508D01*
X11260658Y-14357508D02*
X11270182Y-14367031D01*
X11270182Y-14367031D02*
X11279705Y-14386079D01*
X11279705Y-14386079D02*
X11289229Y-14424174D01*
X11289229Y-14424174D02*
X11289229Y-14471793D01*
X11289229Y-14471793D02*
X11279705Y-14509888D01*
X11279705Y-14509888D02*
X11270182Y-14528936D01*
X11270182Y-14528936D02*
X11260658Y-14538460D01*
X11260658Y-14538460D02*
X11241610Y-14547984D01*
X11241610Y-14547984D02*
X11222562Y-14547984D01*
X11222562Y-14547984D02*
X11203515Y-14538460D01*
X11203515Y-14538460D02*
X11193991Y-14528936D01*
X11193991Y-14528936D02*
X11184467Y-14509888D01*
X11184467Y-14509888D02*
X11174944Y-14471793D01*
X11174944Y-14471793D02*
X11174944Y-14424174D01*
X11174944Y-14424174D02*
X11184467Y-14386079D01*
X11184467Y-14386079D02*
X11193991Y-14367031D01*
X11193991Y-14367031D02*
X11203515Y-14357508D01*
X11203515Y-14357508D02*
X11222562Y-14347984D01*
X11413039Y-14347984D02*
X11432086Y-14347984D01*
X11432086Y-14347984D02*
X11451134Y-14357508D01*
X11451134Y-14357508D02*
X11460658Y-14367031D01*
X11460658Y-14367031D02*
X11470182Y-14386079D01*
X11470182Y-14386079D02*
X11479705Y-14424174D01*
X11479705Y-14424174D02*
X11479705Y-14471793D01*
X11479705Y-14471793D02*
X11470182Y-14509888D01*
X11470182Y-14509888D02*
X11460658Y-14528936D01*
X11460658Y-14528936D02*
X11451134Y-14538460D01*
X11451134Y-14538460D02*
X11432086Y-14547984D01*
X11432086Y-14547984D02*
X11413039Y-14547984D01*
X11413039Y-14547984D02*
X11393991Y-14538460D01*
X11393991Y-14538460D02*
X11384467Y-14528936D01*
X11384467Y-14528936D02*
X11374943Y-14509888D01*
X11374943Y-14509888D02*
X11365420Y-14471793D01*
X11365420Y-14471793D02*
X11365420Y-14424174D01*
X11365420Y-14424174D02*
X11374943Y-14386079D01*
X11374943Y-14386079D02*
X11384467Y-14367031D01*
X11384467Y-14367031D02*
X11393991Y-14357508D01*
X11393991Y-14357508D02*
X11413039Y-14347984D01*
X11565420Y-14547984D02*
X11565420Y-14414650D01*
X11565420Y-14433698D02*
X11574943Y-14424174D01*
X11574943Y-14424174D02*
X11593991Y-14414650D01*
X11593991Y-14414650D02*
X11622563Y-14414650D01*
X11622563Y-14414650D02*
X11641610Y-14424174D01*
X11641610Y-14424174D02*
X11651134Y-14443222D01*
X11651134Y-14443222D02*
X11651134Y-14547984D01*
X11651134Y-14443222D02*
X11660658Y-14424174D01*
X11660658Y-14424174D02*
X11679705Y-14414650D01*
X11679705Y-14414650D02*
X11708277Y-14414650D01*
X11708277Y-14414650D02*
X11727324Y-14424174D01*
X11727324Y-14424174D02*
X11736848Y-14443222D01*
X11736848Y-14443222D02*
X11736848Y-14547984D01*
X11832086Y-14547984D02*
X11832086Y-14414650D01*
X11832086Y-14433698D02*
X11841610Y-14424174D01*
X11841610Y-14424174D02*
X11860658Y-14414650D01*
X11860658Y-14414650D02*
X11889229Y-14414650D01*
X11889229Y-14414650D02*
X11908277Y-14424174D01*
X11908277Y-14424174D02*
X11917801Y-14443222D01*
X11917801Y-14443222D02*
X11917801Y-14547984D01*
X11917801Y-14443222D02*
X11927324Y-14424174D01*
X11927324Y-14424174D02*
X11946372Y-14414650D01*
X11946372Y-14414650D02*
X11974943Y-14414650D01*
X11974943Y-14414650D02*
X11993991Y-14424174D01*
X11993991Y-14424174D02*
X12003515Y-14443222D01*
X12003515Y-14443222D02*
X12003515Y-14547984D01*
X12393991Y-14338460D02*
X12222563Y-14595603D01*
X12651134Y-14347984D02*
X12670182Y-14347984D01*
X12670182Y-14347984D02*
X12689229Y-14357508D01*
X12689229Y-14357508D02*
X12698753Y-14367031D01*
X12698753Y-14367031D02*
X12708277Y-14386079D01*
X12708277Y-14386079D02*
X12717801Y-14424174D01*
X12717801Y-14424174D02*
X12717801Y-14471793D01*
X12717801Y-14471793D02*
X12708277Y-14509888D01*
X12708277Y-14509888D02*
X12698753Y-14528936D01*
X12698753Y-14528936D02*
X12689229Y-14538460D01*
X12689229Y-14538460D02*
X12670182Y-14547984D01*
X12670182Y-14547984D02*
X12651134Y-14547984D01*
X12651134Y-14547984D02*
X12632086Y-14538460D01*
X12632086Y-14538460D02*
X12622563Y-14528936D01*
X12622563Y-14528936D02*
X12613039Y-14509888D01*
X12613039Y-14509888D02*
X12603515Y-14471793D01*
X12603515Y-14471793D02*
X12603515Y-14424174D01*
X12603515Y-14424174D02*
X12613039Y-14386079D01*
X12613039Y-14386079D02*
X12622563Y-14367031D01*
X12622563Y-14367031D02*
X12632086Y-14357508D01*
X12632086Y-14357508D02*
X12651134Y-14347984D01*
X12803515Y-14528936D02*
X12813039Y-14538460D01*
X12813039Y-14538460D02*
X12803515Y-14547984D01*
X12803515Y-14547984D02*
X12793991Y-14538460D01*
X12793991Y-14538460D02*
X12803515Y-14528936D01*
X12803515Y-14528936D02*
X12803515Y-14547984D01*
X12936848Y-14347984D02*
X12955896Y-14347984D01*
X12955896Y-14347984D02*
X12974944Y-14357508D01*
X12974944Y-14357508D02*
X12984467Y-14367031D01*
X12984467Y-14367031D02*
X12993991Y-14386079D01*
X12993991Y-14386079D02*
X13003515Y-14424174D01*
X13003515Y-14424174D02*
X13003515Y-14471793D01*
X13003515Y-14471793D02*
X12993991Y-14509888D01*
X12993991Y-14509888D02*
X12984467Y-14528936D01*
X12984467Y-14528936D02*
X12974944Y-14538460D01*
X12974944Y-14538460D02*
X12955896Y-14547984D01*
X12955896Y-14547984D02*
X12936848Y-14547984D01*
X12936848Y-14547984D02*
X12917801Y-14538460D01*
X12917801Y-14538460D02*
X12908277Y-14528936D01*
X12908277Y-14528936D02*
X12898753Y-14509888D01*
X12898753Y-14509888D02*
X12889229Y-14471793D01*
X12889229Y-14471793D02*
X12889229Y-14424174D01*
X12889229Y-14424174D02*
X12898753Y-14386079D01*
X12898753Y-14386079D02*
X12908277Y-14367031D01*
X12908277Y-14367031D02*
X12917801Y-14357508D01*
X12917801Y-14357508D02*
X12936848Y-14347984D01*
X13174944Y-14414650D02*
X13174944Y-14547984D01*
X13127325Y-14338460D02*
X13079706Y-14481317D01*
X13079706Y-14481317D02*
X13203515Y-14481317D01*
X13260658Y-14347984D02*
X13393991Y-14347984D01*
X13393991Y-14347984D02*
X13308277Y-14547984D01*
X13460658Y-14367031D02*
X13470182Y-14357508D01*
X13470182Y-14357508D02*
X13489229Y-14347984D01*
X13489229Y-14347984D02*
X13536848Y-14347984D01*
X13536848Y-14347984D02*
X13555896Y-14357508D01*
X13555896Y-14357508D02*
X13565420Y-14367031D01*
X13565420Y-14367031D02*
X13574944Y-14386079D01*
X13574944Y-14386079D02*
X13574944Y-14405127D01*
X13574944Y-14405127D02*
X13565420Y-14433698D01*
X13565420Y-14433698D02*
X13451134Y-14547984D01*
X13451134Y-14547984D02*
X13574944Y-14547984D01*
X13651134Y-14347984D02*
X13651134Y-14386079D01*
X13727325Y-14347984D02*
X13727325Y-14386079D01*
X14022563Y-14624174D02*
X14013039Y-14614650D01*
X14013039Y-14614650D02*
X13993991Y-14586079D01*
X13993991Y-14586079D02*
X13984468Y-14567031D01*
X13984468Y-14567031D02*
X13974944Y-14538460D01*
X13974944Y-14538460D02*
X13965420Y-14490841D01*
X13965420Y-14490841D02*
X13965420Y-14452746D01*
X13965420Y-14452746D02*
X13974944Y-14405127D01*
X13974944Y-14405127D02*
X13984468Y-14376555D01*
X13984468Y-14376555D02*
X13993991Y-14357508D01*
X13993991Y-14357508D02*
X14013039Y-14328936D01*
X14013039Y-14328936D02*
X14022563Y-14319412D01*
X14203515Y-14547984D02*
X14089229Y-14547984D01*
X14146372Y-14547984D02*
X14146372Y-14347984D01*
X14146372Y-14347984D02*
X14127325Y-14376555D01*
X14127325Y-14376555D02*
X14108277Y-14395603D01*
X14108277Y-14395603D02*
X14089229Y-14405127D01*
X14374944Y-14347984D02*
X14336848Y-14347984D01*
X14336848Y-14347984D02*
X14317801Y-14357508D01*
X14317801Y-14357508D02*
X14308277Y-14367031D01*
X14308277Y-14367031D02*
X14289229Y-14395603D01*
X14289229Y-14395603D02*
X14279706Y-14433698D01*
X14279706Y-14433698D02*
X14279706Y-14509888D01*
X14279706Y-14509888D02*
X14289229Y-14528936D01*
X14289229Y-14528936D02*
X14298753Y-14538460D01*
X14298753Y-14538460D02*
X14317801Y-14547984D01*
X14317801Y-14547984D02*
X14355896Y-14547984D01*
X14355896Y-14547984D02*
X14374944Y-14538460D01*
X14374944Y-14538460D02*
X14384468Y-14528936D01*
X14384468Y-14528936D02*
X14393991Y-14509888D01*
X14393991Y-14509888D02*
X14393991Y-14462269D01*
X14393991Y-14462269D02*
X14384468Y-14443222D01*
X14384468Y-14443222D02*
X14374944Y-14433698D01*
X14374944Y-14433698D02*
X14355896Y-14424174D01*
X14355896Y-14424174D02*
X14317801Y-14424174D01*
X14317801Y-14424174D02*
X14298753Y-14433698D01*
X14298753Y-14433698D02*
X14289229Y-14443222D01*
X14289229Y-14443222D02*
X14279706Y-14462269D01*
X14632087Y-14547984D02*
X14632087Y-14347984D01*
X14717801Y-14547984D02*
X14717801Y-14443222D01*
X14717801Y-14443222D02*
X14708277Y-14424174D01*
X14708277Y-14424174D02*
X14689230Y-14414650D01*
X14689230Y-14414650D02*
X14660658Y-14414650D01*
X14660658Y-14414650D02*
X14641610Y-14424174D01*
X14641610Y-14424174D02*
X14632087Y-14433698D01*
X14841610Y-14547984D02*
X14822563Y-14538460D01*
X14822563Y-14538460D02*
X14813039Y-14528936D01*
X14813039Y-14528936D02*
X14803515Y-14509888D01*
X14803515Y-14509888D02*
X14803515Y-14452746D01*
X14803515Y-14452746D02*
X14813039Y-14433698D01*
X14813039Y-14433698D02*
X14822563Y-14424174D01*
X14822563Y-14424174D02*
X14841610Y-14414650D01*
X14841610Y-14414650D02*
X14870182Y-14414650D01*
X14870182Y-14414650D02*
X14889230Y-14424174D01*
X14889230Y-14424174D02*
X14898753Y-14433698D01*
X14898753Y-14433698D02*
X14908277Y-14452746D01*
X14908277Y-14452746D02*
X14908277Y-14509888D01*
X14908277Y-14509888D02*
X14898753Y-14528936D01*
X14898753Y-14528936D02*
X14889230Y-14538460D01*
X14889230Y-14538460D02*
X14870182Y-14547984D01*
X14870182Y-14547984D02*
X14841610Y-14547984D01*
X15022563Y-14547984D02*
X15003515Y-14538460D01*
X15003515Y-14538460D02*
X14993991Y-14519412D01*
X14993991Y-14519412D02*
X14993991Y-14347984D01*
X15174944Y-14538460D02*
X15155896Y-14547984D01*
X15155896Y-14547984D02*
X15117801Y-14547984D01*
X15117801Y-14547984D02*
X15098753Y-14538460D01*
X15098753Y-14538460D02*
X15089230Y-14519412D01*
X15089230Y-14519412D02*
X15089230Y-14443222D01*
X15089230Y-14443222D02*
X15098753Y-14424174D01*
X15098753Y-14424174D02*
X15117801Y-14414650D01*
X15117801Y-14414650D02*
X15155896Y-14414650D01*
X15155896Y-14414650D02*
X15174944Y-14424174D01*
X15174944Y-14424174D02*
X15184468Y-14443222D01*
X15184468Y-14443222D02*
X15184468Y-14462269D01*
X15184468Y-14462269D02*
X15089230Y-14481317D01*
X15260658Y-14538460D02*
X15279706Y-14547984D01*
X15279706Y-14547984D02*
X15317801Y-14547984D01*
X15317801Y-14547984D02*
X15336849Y-14538460D01*
X15336849Y-14538460D02*
X15346372Y-14519412D01*
X15346372Y-14519412D02*
X15346372Y-14509888D01*
X15346372Y-14509888D02*
X15336849Y-14490841D01*
X15336849Y-14490841D02*
X15317801Y-14481317D01*
X15317801Y-14481317D02*
X15289230Y-14481317D01*
X15289230Y-14481317D02*
X15270182Y-14471793D01*
X15270182Y-14471793D02*
X15260658Y-14452746D01*
X15260658Y-14452746D02*
X15260658Y-14443222D01*
X15260658Y-14443222D02*
X15270182Y-14424174D01*
X15270182Y-14424174D02*
X15289230Y-14414650D01*
X15289230Y-14414650D02*
X15317801Y-14414650D01*
X15317801Y-14414650D02*
X15336849Y-14424174D01*
X15413039Y-14624174D02*
X15422563Y-14614650D01*
X15422563Y-14614650D02*
X15441611Y-14586079D01*
X15441611Y-14586079D02*
X15451134Y-14567031D01*
X15451134Y-14567031D02*
X15460658Y-14538460D01*
X15460658Y-14538460D02*
X15470182Y-14490841D01*
X15470182Y-14490841D02*
X15470182Y-14452746D01*
X15470182Y-14452746D02*
X15460658Y-14405127D01*
X15460658Y-14405127D02*
X15451134Y-14376555D01*
X15451134Y-14376555D02*
X15441611Y-14357508D01*
X15441611Y-14357508D02*
X15422563Y-14328936D01*
X15422563Y-14328936D02*
X15413039Y-14319412D01*
X10347500Y-14620500D02*
X10347500Y-14820500D01*
X10247500Y-14720500D02*
X10447500Y-14720500D01*
X10698753Y-14631031D02*
X10708277Y-14621508D01*
X10708277Y-14621508D02*
X10727324Y-14611984D01*
X10727324Y-14611984D02*
X10774944Y-14611984D01*
X10774944Y-14611984D02*
X10793991Y-14621508D01*
X10793991Y-14621508D02*
X10803515Y-14631031D01*
X10803515Y-14631031D02*
X10813039Y-14650079D01*
X10813039Y-14650079D02*
X10813039Y-14669127D01*
X10813039Y-14669127D02*
X10803515Y-14697698D01*
X10803515Y-14697698D02*
X10689229Y-14811984D01*
X10689229Y-14811984D02*
X10813039Y-14811984D01*
X10898753Y-14792936D02*
X10908277Y-14802460D01*
X10908277Y-14802460D02*
X10898753Y-14811984D01*
X10898753Y-14811984D02*
X10889229Y-14802460D01*
X10889229Y-14802460D02*
X10898753Y-14792936D01*
X10898753Y-14792936D02*
X10898753Y-14811984D01*
X11079705Y-14611984D02*
X11041610Y-14611984D01*
X11041610Y-14611984D02*
X11022563Y-14621508D01*
X11022563Y-14621508D02*
X11013039Y-14631031D01*
X11013039Y-14631031D02*
X10993991Y-14659603D01*
X10993991Y-14659603D02*
X10984467Y-14697698D01*
X10984467Y-14697698D02*
X10984467Y-14773888D01*
X10984467Y-14773888D02*
X10993991Y-14792936D01*
X10993991Y-14792936D02*
X11003515Y-14802460D01*
X11003515Y-14802460D02*
X11022563Y-14811984D01*
X11022563Y-14811984D02*
X11060658Y-14811984D01*
X11060658Y-14811984D02*
X11079705Y-14802460D01*
X11079705Y-14802460D02*
X11089229Y-14792936D01*
X11089229Y-14792936D02*
X11098753Y-14773888D01*
X11098753Y-14773888D02*
X11098753Y-14726269D01*
X11098753Y-14726269D02*
X11089229Y-14707222D01*
X11089229Y-14707222D02*
X11079705Y-14697698D01*
X11079705Y-14697698D02*
X11060658Y-14688174D01*
X11060658Y-14688174D02*
X11022563Y-14688174D01*
X11022563Y-14688174D02*
X11003515Y-14697698D01*
X11003515Y-14697698D02*
X10993991Y-14707222D01*
X10993991Y-14707222D02*
X10984467Y-14726269D01*
X11222562Y-14611984D02*
X11241610Y-14611984D01*
X11241610Y-14611984D02*
X11260658Y-14621508D01*
X11260658Y-14621508D02*
X11270182Y-14631031D01*
X11270182Y-14631031D02*
X11279705Y-14650079D01*
X11279705Y-14650079D02*
X11289229Y-14688174D01*
X11289229Y-14688174D02*
X11289229Y-14735793D01*
X11289229Y-14735793D02*
X11279705Y-14773888D01*
X11279705Y-14773888D02*
X11270182Y-14792936D01*
X11270182Y-14792936D02*
X11260658Y-14802460D01*
X11260658Y-14802460D02*
X11241610Y-14811984D01*
X11241610Y-14811984D02*
X11222562Y-14811984D01*
X11222562Y-14811984D02*
X11203515Y-14802460D01*
X11203515Y-14802460D02*
X11193991Y-14792936D01*
X11193991Y-14792936D02*
X11184467Y-14773888D01*
X11184467Y-14773888D02*
X11174944Y-14735793D01*
X11174944Y-14735793D02*
X11174944Y-14688174D01*
X11174944Y-14688174D02*
X11184467Y-14650079D01*
X11184467Y-14650079D02*
X11193991Y-14631031D01*
X11193991Y-14631031D02*
X11203515Y-14621508D01*
X11203515Y-14621508D02*
X11222562Y-14611984D01*
X11413039Y-14611984D02*
X11432086Y-14611984D01*
X11432086Y-14611984D02*
X11451134Y-14621508D01*
X11451134Y-14621508D02*
X11460658Y-14631031D01*
X11460658Y-14631031D02*
X11470182Y-14650079D01*
X11470182Y-14650079D02*
X11479705Y-14688174D01*
X11479705Y-14688174D02*
X11479705Y-14735793D01*
X11479705Y-14735793D02*
X11470182Y-14773888D01*
X11470182Y-14773888D02*
X11460658Y-14792936D01*
X11460658Y-14792936D02*
X11451134Y-14802460D01*
X11451134Y-14802460D02*
X11432086Y-14811984D01*
X11432086Y-14811984D02*
X11413039Y-14811984D01*
X11413039Y-14811984D02*
X11393991Y-14802460D01*
X11393991Y-14802460D02*
X11384467Y-14792936D01*
X11384467Y-14792936D02*
X11374943Y-14773888D01*
X11374943Y-14773888D02*
X11365420Y-14735793D01*
X11365420Y-14735793D02*
X11365420Y-14688174D01*
X11365420Y-14688174D02*
X11374943Y-14650079D01*
X11374943Y-14650079D02*
X11384467Y-14631031D01*
X11384467Y-14631031D02*
X11393991Y-14621508D01*
X11393991Y-14621508D02*
X11413039Y-14611984D01*
X11565420Y-14811984D02*
X11565420Y-14678650D01*
X11565420Y-14697698D02*
X11574943Y-14688174D01*
X11574943Y-14688174D02*
X11593991Y-14678650D01*
X11593991Y-14678650D02*
X11622563Y-14678650D01*
X11622563Y-14678650D02*
X11641610Y-14688174D01*
X11641610Y-14688174D02*
X11651134Y-14707222D01*
X11651134Y-14707222D02*
X11651134Y-14811984D01*
X11651134Y-14707222D02*
X11660658Y-14688174D01*
X11660658Y-14688174D02*
X11679705Y-14678650D01*
X11679705Y-14678650D02*
X11708277Y-14678650D01*
X11708277Y-14678650D02*
X11727324Y-14688174D01*
X11727324Y-14688174D02*
X11736848Y-14707222D01*
X11736848Y-14707222D02*
X11736848Y-14811984D01*
X11832086Y-14811984D02*
X11832086Y-14678650D01*
X11832086Y-14697698D02*
X11841610Y-14688174D01*
X11841610Y-14688174D02*
X11860658Y-14678650D01*
X11860658Y-14678650D02*
X11889229Y-14678650D01*
X11889229Y-14678650D02*
X11908277Y-14688174D01*
X11908277Y-14688174D02*
X11917801Y-14707222D01*
X11917801Y-14707222D02*
X11917801Y-14811984D01*
X11917801Y-14707222D02*
X11927324Y-14688174D01*
X11927324Y-14688174D02*
X11946372Y-14678650D01*
X11946372Y-14678650D02*
X11974943Y-14678650D01*
X11974943Y-14678650D02*
X11993991Y-14688174D01*
X11993991Y-14688174D02*
X12003515Y-14707222D01*
X12003515Y-14707222D02*
X12003515Y-14811984D01*
X12393991Y-14602460D02*
X12222563Y-14859603D01*
X12651134Y-14611984D02*
X12670182Y-14611984D01*
X12670182Y-14611984D02*
X12689229Y-14621508D01*
X12689229Y-14621508D02*
X12698753Y-14631031D01*
X12698753Y-14631031D02*
X12708277Y-14650079D01*
X12708277Y-14650079D02*
X12717801Y-14688174D01*
X12717801Y-14688174D02*
X12717801Y-14735793D01*
X12717801Y-14735793D02*
X12708277Y-14773888D01*
X12708277Y-14773888D02*
X12698753Y-14792936D01*
X12698753Y-14792936D02*
X12689229Y-14802460D01*
X12689229Y-14802460D02*
X12670182Y-14811984D01*
X12670182Y-14811984D02*
X12651134Y-14811984D01*
X12651134Y-14811984D02*
X12632086Y-14802460D01*
X12632086Y-14802460D02*
X12622563Y-14792936D01*
X12622563Y-14792936D02*
X12613039Y-14773888D01*
X12613039Y-14773888D02*
X12603515Y-14735793D01*
X12603515Y-14735793D02*
X12603515Y-14688174D01*
X12603515Y-14688174D02*
X12613039Y-14650079D01*
X12613039Y-14650079D02*
X12622563Y-14631031D01*
X12622563Y-14631031D02*
X12632086Y-14621508D01*
X12632086Y-14621508D02*
X12651134Y-14611984D01*
X12803515Y-14792936D02*
X12813039Y-14802460D01*
X12813039Y-14802460D02*
X12803515Y-14811984D01*
X12803515Y-14811984D02*
X12793991Y-14802460D01*
X12793991Y-14802460D02*
X12803515Y-14792936D01*
X12803515Y-14792936D02*
X12803515Y-14811984D01*
X13003515Y-14811984D02*
X12889229Y-14811984D01*
X12946372Y-14811984D02*
X12946372Y-14611984D01*
X12946372Y-14611984D02*
X12927325Y-14640555D01*
X12927325Y-14640555D02*
X12908277Y-14659603D01*
X12908277Y-14659603D02*
X12889229Y-14669127D01*
X13127325Y-14611984D02*
X13146372Y-14611984D01*
X13146372Y-14611984D02*
X13165420Y-14621508D01*
X13165420Y-14621508D02*
X13174944Y-14631031D01*
X13174944Y-14631031D02*
X13184467Y-14650079D01*
X13184467Y-14650079D02*
X13193991Y-14688174D01*
X13193991Y-14688174D02*
X13193991Y-14735793D01*
X13193991Y-14735793D02*
X13184467Y-14773888D01*
X13184467Y-14773888D02*
X13174944Y-14792936D01*
X13174944Y-14792936D02*
X13165420Y-14802460D01*
X13165420Y-14802460D02*
X13146372Y-14811984D01*
X13146372Y-14811984D02*
X13127325Y-14811984D01*
X13127325Y-14811984D02*
X13108277Y-14802460D01*
X13108277Y-14802460D02*
X13098753Y-14792936D01*
X13098753Y-14792936D02*
X13089229Y-14773888D01*
X13089229Y-14773888D02*
X13079706Y-14735793D01*
X13079706Y-14735793D02*
X13079706Y-14688174D01*
X13079706Y-14688174D02*
X13089229Y-14650079D01*
X13089229Y-14650079D02*
X13098753Y-14631031D01*
X13098753Y-14631031D02*
X13108277Y-14621508D01*
X13108277Y-14621508D02*
X13127325Y-14611984D01*
X13270182Y-14631031D02*
X13279706Y-14621508D01*
X13279706Y-14621508D02*
X13298753Y-14611984D01*
X13298753Y-14611984D02*
X13346372Y-14611984D01*
X13346372Y-14611984D02*
X13365420Y-14621508D01*
X13365420Y-14621508D02*
X13374944Y-14631031D01*
X13374944Y-14631031D02*
X13384467Y-14650079D01*
X13384467Y-14650079D02*
X13384467Y-14669127D01*
X13384467Y-14669127D02*
X13374944Y-14697698D01*
X13374944Y-14697698D02*
X13260658Y-14811984D01*
X13260658Y-14811984D02*
X13384467Y-14811984D01*
X13555896Y-14678650D02*
X13555896Y-14811984D01*
X13508277Y-14602460D02*
X13460658Y-14745317D01*
X13460658Y-14745317D02*
X13584467Y-14745317D01*
X13651134Y-14611984D02*
X13651134Y-14650079D01*
X13727325Y-14611984D02*
X13727325Y-14650079D01*
X14022563Y-14888174D02*
X14013039Y-14878650D01*
X14013039Y-14878650D02*
X13993991Y-14850079D01*
X13993991Y-14850079D02*
X13984468Y-14831031D01*
X13984468Y-14831031D02*
X13974944Y-14802460D01*
X13974944Y-14802460D02*
X13965420Y-14754841D01*
X13965420Y-14754841D02*
X13965420Y-14716746D01*
X13965420Y-14716746D02*
X13974944Y-14669127D01*
X13974944Y-14669127D02*
X13984468Y-14640555D01*
X13984468Y-14640555D02*
X13993991Y-14621508D01*
X13993991Y-14621508D02*
X14013039Y-14592936D01*
X14013039Y-14592936D02*
X14022563Y-14583412D01*
X14184468Y-14611984D02*
X14146372Y-14611984D01*
X14146372Y-14611984D02*
X14127325Y-14621508D01*
X14127325Y-14621508D02*
X14117801Y-14631031D01*
X14117801Y-14631031D02*
X14098753Y-14659603D01*
X14098753Y-14659603D02*
X14089229Y-14697698D01*
X14089229Y-14697698D02*
X14089229Y-14773888D01*
X14089229Y-14773888D02*
X14098753Y-14792936D01*
X14098753Y-14792936D02*
X14108277Y-14802460D01*
X14108277Y-14802460D02*
X14127325Y-14811984D01*
X14127325Y-14811984D02*
X14165420Y-14811984D01*
X14165420Y-14811984D02*
X14184468Y-14802460D01*
X14184468Y-14802460D02*
X14193991Y-14792936D01*
X14193991Y-14792936D02*
X14203515Y-14773888D01*
X14203515Y-14773888D02*
X14203515Y-14726269D01*
X14203515Y-14726269D02*
X14193991Y-14707222D01*
X14193991Y-14707222D02*
X14184468Y-14697698D01*
X14184468Y-14697698D02*
X14165420Y-14688174D01*
X14165420Y-14688174D02*
X14127325Y-14688174D01*
X14127325Y-14688174D02*
X14108277Y-14697698D01*
X14108277Y-14697698D02*
X14098753Y-14707222D01*
X14098753Y-14707222D02*
X14089229Y-14726269D01*
X14441610Y-14811984D02*
X14441610Y-14611984D01*
X14527325Y-14811984D02*
X14527325Y-14707222D01*
X14527325Y-14707222D02*
X14517801Y-14688174D01*
X14517801Y-14688174D02*
X14498753Y-14678650D01*
X14498753Y-14678650D02*
X14470182Y-14678650D01*
X14470182Y-14678650D02*
X14451134Y-14688174D01*
X14451134Y-14688174D02*
X14441610Y-14697698D01*
X14651134Y-14811984D02*
X14632087Y-14802460D01*
X14632087Y-14802460D02*
X14622563Y-14792936D01*
X14622563Y-14792936D02*
X14613039Y-14773888D01*
X14613039Y-14773888D02*
X14613039Y-14716746D01*
X14613039Y-14716746D02*
X14622563Y-14697698D01*
X14622563Y-14697698D02*
X14632087Y-14688174D01*
X14632087Y-14688174D02*
X14651134Y-14678650D01*
X14651134Y-14678650D02*
X14679706Y-14678650D01*
X14679706Y-14678650D02*
X14698753Y-14688174D01*
X14698753Y-14688174D02*
X14708277Y-14697698D01*
X14708277Y-14697698D02*
X14717801Y-14716746D01*
X14717801Y-14716746D02*
X14717801Y-14773888D01*
X14717801Y-14773888D02*
X14708277Y-14792936D01*
X14708277Y-14792936D02*
X14698753Y-14802460D01*
X14698753Y-14802460D02*
X14679706Y-14811984D01*
X14679706Y-14811984D02*
X14651134Y-14811984D01*
X14832087Y-14811984D02*
X14813039Y-14802460D01*
X14813039Y-14802460D02*
X14803515Y-14783412D01*
X14803515Y-14783412D02*
X14803515Y-14611984D01*
X14984468Y-14802460D02*
X14965420Y-14811984D01*
X14965420Y-14811984D02*
X14927325Y-14811984D01*
X14927325Y-14811984D02*
X14908277Y-14802460D01*
X14908277Y-14802460D02*
X14898753Y-14783412D01*
X14898753Y-14783412D02*
X14898753Y-14707222D01*
X14898753Y-14707222D02*
X14908277Y-14688174D01*
X14908277Y-14688174D02*
X14927325Y-14678650D01*
X14927325Y-14678650D02*
X14965420Y-14678650D01*
X14965420Y-14678650D02*
X14984468Y-14688174D01*
X14984468Y-14688174D02*
X14993991Y-14707222D01*
X14993991Y-14707222D02*
X14993991Y-14726269D01*
X14993991Y-14726269D02*
X14898753Y-14745317D01*
X15070182Y-14802460D02*
X15089230Y-14811984D01*
X15089230Y-14811984D02*
X15127325Y-14811984D01*
X15127325Y-14811984D02*
X15146372Y-14802460D01*
X15146372Y-14802460D02*
X15155896Y-14783412D01*
X15155896Y-14783412D02*
X15155896Y-14773888D01*
X15155896Y-14773888D02*
X15146372Y-14754841D01*
X15146372Y-14754841D02*
X15127325Y-14745317D01*
X15127325Y-14745317D02*
X15098753Y-14745317D01*
X15098753Y-14745317D02*
X15079706Y-14735793D01*
X15079706Y-14735793D02*
X15070182Y-14716746D01*
X15070182Y-14716746D02*
X15070182Y-14707222D01*
X15070182Y-14707222D02*
X15079706Y-14688174D01*
X15079706Y-14688174D02*
X15098753Y-14678650D01*
X15098753Y-14678650D02*
X15127325Y-14678650D01*
X15127325Y-14678650D02*
X15146372Y-14688174D01*
X15222563Y-14888174D02*
X15232087Y-14878650D01*
X15232087Y-14878650D02*
X15251134Y-14850079D01*
X15251134Y-14850079D02*
X15260658Y-14831031D01*
X15260658Y-14831031D02*
X15270182Y-14802460D01*
X15270182Y-14802460D02*
X15279706Y-14754841D01*
X15279706Y-14754841D02*
X15279706Y-14716746D01*
X15279706Y-14716746D02*
X15270182Y-14669127D01*
X15270182Y-14669127D02*
X15260658Y-14640555D01*
X15260658Y-14640555D02*
X15251134Y-14621508D01*
X15251134Y-14621508D02*
X15232087Y-14592936D01*
X15232087Y-14592936D02*
X15222563Y-14583412D01*
M02*
