%TF.GenerationSoftware,KiCad,Pcbnew,9.0.0-9.0.0-2~ubuntu24.04.1*%
%TF.CreationDate,2025-04-02T19:47:50+02:00*%
%TF.ProjectId,Buck_InterFace,4275636b-5f49-46e7-9465-72466163652e,rev?*%
%TF.SameCoordinates,Original*%
%TF.FileFunction,Drillmap*%
%TF.FilePolarity,Positive*%
%FSLAX45Y45*%
G04 Gerber Fmt 4.5, Leading zero omitted, Abs format (unit mm)*
G04 Created by KiCad (PCBNEW 9.0.0-9.0.0-2~ubuntu24.04.1) date 2025-04-02 19:47:50*
%MOMM*%
%LPD*%
G01*
G04 APERTURE LIST*
%ADD10C,0.050000*%
%ADD11C,0.200000*%
G04 APERTURE END LIST*
D10*
X15300000Y-8450000D02*
G75*
G02*
X15000000Y-8450000I-150000J0D01*
G01*
X15000000Y-8450000D02*
G75*
G02*
X15300000Y-8450000I150000J0D01*
G01*
X11100000Y-3900000D02*
G75*
G02*
X10800000Y-3900000I-150000J0D01*
G01*
X10800000Y-3900000D02*
G75*
G02*
X11100000Y-3900000I150000J0D01*
G01*
X10450000Y-3550000D02*
X15650000Y-3550000D01*
X15650000Y-13550000D01*
X10450000Y-13550000D01*
X10450000Y-3550000D01*
X15300000Y-3900000D02*
G75*
G02*
X15000000Y-3900000I-150000J0D01*
G01*
X15000000Y-3900000D02*
G75*
G02*
X15300000Y-3900000I150000J0D01*
G01*
X15300000Y-6450000D02*
G75*
G02*
X15000000Y-6450000I-150000J0D01*
G01*
X15000000Y-6450000D02*
G75*
G02*
X15300000Y-6450000I150000J0D01*
G01*
X15300000Y-11150000D02*
G75*
G02*
X15000000Y-11150000I-150000J0D01*
G01*
X15000000Y-11150000D02*
G75*
G02*
X15300000Y-11150000I150000J0D01*
G01*
X11450000Y-13350000D02*
G75*
G02*
X11150000Y-13350000I-150000J0D01*
G01*
X11150000Y-13350000D02*
G75*
G02*
X11450000Y-13350000I150000J0D01*
G01*
X15300000Y-13350000D02*
G75*
G02*
X15000000Y-13350000I-150000J0D01*
G01*
X15000000Y-13350000D02*
G75*
G02*
X15300000Y-13350000I150000J0D01*
G01*
X11311956Y-4471200D02*
G75*
G02*
X10993200Y-4471200I-159378J0D01*
G01*
X10993200Y-4471200D02*
G75*
G02*
X11311956Y-4471200I159378J0D01*
G01*
X14269800Y-6140636D02*
G75*
G02*
X13951072Y-6140636I-159364J0D01*
G01*
X13951072Y-6140636D02*
G75*
G02*
X14269800Y-6140636I159364J0D01*
G01*
X11311956Y-6740200D02*
G75*
G02*
X10993200Y-6740200I-159378J0D01*
G01*
X10993200Y-6740200D02*
G75*
G02*
X11311956Y-6740200I159378J0D01*
G01*
X14269800Y-8409636D02*
G75*
G02*
X13951072Y-8409636I-159364J0D01*
G01*
X13951072Y-8409636D02*
G75*
G02*
X14269800Y-8409636I159364J0D01*
G01*
X11311956Y-9009200D02*
G75*
G02*
X10993200Y-9009200I-159378J0D01*
G01*
X10993200Y-9009200D02*
G75*
G02*
X11311956Y-9009200I159378J0D01*
G01*
X14269800Y-10678636D02*
G75*
G02*
X13951072Y-10678636I-159364J0D01*
G01*
X13951072Y-10678636D02*
G75*
G02*
X14269800Y-10678636I159364J0D01*
G01*
X11311956Y-11278200D02*
G75*
G02*
X10993200Y-11278200I-159378J0D01*
G01*
X10993200Y-11278200D02*
G75*
G02*
X11311956Y-11278200I159378J0D01*
G01*
X14269800Y-12947636D02*
G75*
G02*
X13951072Y-12947636I-159364J0D01*
G01*
X13951072Y-12947636D02*
G75*
G02*
X14269800Y-12947636I159364J0D01*
G01*
D11*
X10708277Y-13863984D02*
X10708277Y-13663984D01*
X10708277Y-13663984D02*
X10755896Y-13663984D01*
X10755896Y-13663984D02*
X10784467Y-13673508D01*
X10784467Y-13673508D02*
X10803515Y-13692555D01*
X10803515Y-13692555D02*
X10813039Y-13711603D01*
X10813039Y-13711603D02*
X10822563Y-13749698D01*
X10822563Y-13749698D02*
X10822563Y-13778269D01*
X10822563Y-13778269D02*
X10813039Y-13816365D01*
X10813039Y-13816365D02*
X10803515Y-13835412D01*
X10803515Y-13835412D02*
X10784467Y-13854460D01*
X10784467Y-13854460D02*
X10755896Y-13863984D01*
X10755896Y-13863984D02*
X10708277Y-13863984D01*
X10908277Y-13863984D02*
X10908277Y-13730650D01*
X10908277Y-13768746D02*
X10917801Y-13749698D01*
X10917801Y-13749698D02*
X10927324Y-13740174D01*
X10927324Y-13740174D02*
X10946372Y-13730650D01*
X10946372Y-13730650D02*
X10965420Y-13730650D01*
X11032086Y-13863984D02*
X11032086Y-13730650D01*
X11032086Y-13663984D02*
X11022563Y-13673508D01*
X11022563Y-13673508D02*
X11032086Y-13683031D01*
X11032086Y-13683031D02*
X11041610Y-13673508D01*
X11041610Y-13673508D02*
X11032086Y-13663984D01*
X11032086Y-13663984D02*
X11032086Y-13683031D01*
X11155896Y-13863984D02*
X11136848Y-13854460D01*
X11136848Y-13854460D02*
X11127324Y-13835412D01*
X11127324Y-13835412D02*
X11127324Y-13663984D01*
X11260658Y-13863984D02*
X11241610Y-13854460D01*
X11241610Y-13854460D02*
X11232086Y-13835412D01*
X11232086Y-13835412D02*
X11232086Y-13663984D01*
X11489229Y-13863984D02*
X11489229Y-13663984D01*
X11489229Y-13663984D02*
X11555896Y-13806841D01*
X11555896Y-13806841D02*
X11622562Y-13663984D01*
X11622562Y-13663984D02*
X11622562Y-13863984D01*
X11803515Y-13863984D02*
X11803515Y-13759222D01*
X11803515Y-13759222D02*
X11793991Y-13740174D01*
X11793991Y-13740174D02*
X11774943Y-13730650D01*
X11774943Y-13730650D02*
X11736848Y-13730650D01*
X11736848Y-13730650D02*
X11717801Y-13740174D01*
X11803515Y-13854460D02*
X11784467Y-13863984D01*
X11784467Y-13863984D02*
X11736848Y-13863984D01*
X11736848Y-13863984D02*
X11717801Y-13854460D01*
X11717801Y-13854460D02*
X11708277Y-13835412D01*
X11708277Y-13835412D02*
X11708277Y-13816365D01*
X11708277Y-13816365D02*
X11717801Y-13797317D01*
X11717801Y-13797317D02*
X11736848Y-13787793D01*
X11736848Y-13787793D02*
X11784467Y-13787793D01*
X11784467Y-13787793D02*
X11803515Y-13778269D01*
X11898753Y-13730650D02*
X11898753Y-13930650D01*
X11898753Y-13740174D02*
X11917801Y-13730650D01*
X11917801Y-13730650D02*
X11955896Y-13730650D01*
X11955896Y-13730650D02*
X11974943Y-13740174D01*
X11974943Y-13740174D02*
X11984467Y-13749698D01*
X11984467Y-13749698D02*
X11993991Y-13768746D01*
X11993991Y-13768746D02*
X11993991Y-13825888D01*
X11993991Y-13825888D02*
X11984467Y-13844936D01*
X11984467Y-13844936D02*
X11974943Y-13854460D01*
X11974943Y-13854460D02*
X11955896Y-13863984D01*
X11955896Y-13863984D02*
X11917801Y-13863984D01*
X11917801Y-13863984D02*
X11898753Y-13854460D01*
X12079705Y-13844936D02*
X12089229Y-13854460D01*
X12089229Y-13854460D02*
X12079705Y-13863984D01*
X12079705Y-13863984D02*
X12070182Y-13854460D01*
X12070182Y-13854460D02*
X12079705Y-13844936D01*
X12079705Y-13844936D02*
X12079705Y-13863984D01*
X12079705Y-13740174D02*
X12089229Y-13749698D01*
X12089229Y-13749698D02*
X12079705Y-13759222D01*
X12079705Y-13759222D02*
X12070182Y-13749698D01*
X12070182Y-13749698D02*
X12079705Y-13740174D01*
X12079705Y-13740174D02*
X12079705Y-13759222D01*
M02*
