G04 #@! TF.GenerationSoftware,KiCad,Pcbnew,9.0.0-9.0.0-2~ubuntu24.04.1*
G04 #@! TF.CreationDate,2025-04-02T19:47:33+02:00*
G04 #@! TF.ProjectId,Buck_InterFace,4275636b-5f49-46e7-9465-72466163652e,rev?*
G04 #@! TF.SameCoordinates,Original*
G04 #@! TF.FileFunction,Legend,Top*
G04 #@! TF.FilePolarity,Positive*
%FSLAX46Y46*%
G04 Gerber Fmt 4.6, Leading zero omitted, Abs format (unit mm)*
G04 Created by KiCad (PCBNEW 9.0.0-9.0.0-2~ubuntu24.04.1) date 2025-04-02 19:47:33*
%MOMM*%
%LPD*%
G01*
G04 APERTURE LIST*
G04 Aperture macros list*
%AMRoundRect*
0 Rectangle with rounded corners*
0 $1 Rounding radius*
0 $2 $3 $4 $5 $6 $7 $8 $9 X,Y pos of 4 corners*
0 Add a 4 corners polygon primitive as box body*
4,1,4,$2,$3,$4,$5,$6,$7,$8,$9,$2,$3,0*
0 Add four circle primitives for the rounded corners*
1,1,$1+$1,$2,$3*
1,1,$1+$1,$4,$5*
1,1,$1+$1,$6,$7*
1,1,$1+$1,$8,$9*
0 Add four rect primitives between the rounded corners*
20,1,$1+$1,$2,$3,$4,$5,0*
20,1,$1+$1,$4,$5,$6,$7,0*
20,1,$1+$1,$6,$7,$8,$9,0*
20,1,$1+$1,$8,$9,$2,$3,0*%
G04 Aperture macros list end*
%ADD10C,0.100000*%
%ADD11C,0.150000*%
%ADD12C,0.120000*%
%ADD13C,0.000000*%
%ADD14O,1.700000X1.700000*%
%ADD15R,1.700000X1.700000*%
%ADD16RoundRect,0.381000X-0.889000X-0.889000X0.889000X-0.889000X0.889000X0.889000X-0.889000X0.889000X0*%
%ADD17RoundRect,0.637500X-1.487500X1.487500X-1.487500X-1.487500X1.487500X-1.487500X1.487500X1.487500X0*%
%ADD18RoundRect,0.637500X-1.487500X-1.487500X1.487500X-1.487500X1.487500X1.487500X-1.487500X1.487500X0*%
G04 APERTURE END LIST*
D10*
X154161027Y-114872419D02*
X154494360Y-115872419D01*
X154494360Y-115872419D02*
X154827693Y-114872419D01*
X155161027Y-115491466D02*
X155922932Y-115491466D01*
X155541979Y-115872419D02*
X155541979Y-115110514D01*
X153053884Y-69491466D02*
X153815789Y-69491466D01*
X153434836Y-69872419D02*
X153434836Y-69110514D01*
X149053884Y-101491466D02*
X149815789Y-101491466D01*
X154161027Y-117122419D02*
X154494360Y-118122419D01*
X154494360Y-118122419D02*
X154827693Y-117122419D01*
X155161027Y-117741466D02*
X155922932Y-117741466D01*
X155541979Y-118122419D02*
X155541979Y-117360514D01*
X153303884Y-93991466D02*
X154065789Y-93991466D01*
X155303884Y-103741466D02*
X156065789Y-103741466D01*
X155684836Y-104122419D02*
X155684836Y-103360514D01*
X153053884Y-46741466D02*
X153815789Y-46741466D01*
X153434836Y-47122419D02*
X153434836Y-46360514D01*
X153303884Y-101491466D02*
X154065789Y-101491466D01*
X155303884Y-95741466D02*
X156065789Y-95741466D01*
X155684836Y-96122419D02*
X155684836Y-95360514D01*
X153053884Y-58741466D02*
X153815789Y-58741466D01*
X151303884Y-103741466D02*
X152065789Y-103741466D01*
X151684836Y-104122419D02*
X151684836Y-103360514D01*
X151303884Y-88241466D02*
X152065789Y-88241466D01*
X151684836Y-88622419D02*
X151684836Y-87860514D01*
X154420038Y-125922306D02*
X154372419Y-126017544D01*
X154372419Y-126017544D02*
X154372419Y-126160401D01*
X154372419Y-126160401D02*
X154420038Y-126303258D01*
X154420038Y-126303258D02*
X154515276Y-126398496D01*
X154515276Y-126398496D02*
X154610514Y-126446115D01*
X154610514Y-126446115D02*
X154800990Y-126493734D01*
X154800990Y-126493734D02*
X154943847Y-126493734D01*
X154943847Y-126493734D02*
X155134323Y-126446115D01*
X155134323Y-126446115D02*
X155229561Y-126398496D01*
X155229561Y-126398496D02*
X155324800Y-126303258D01*
X155324800Y-126303258D02*
X155372419Y-126160401D01*
X155372419Y-126160401D02*
X155372419Y-126065163D01*
X155372419Y-126065163D02*
X155324800Y-125922306D01*
X155324800Y-125922306D02*
X155277180Y-125874687D01*
X155277180Y-125874687D02*
X154943847Y-125874687D01*
X154943847Y-125874687D02*
X154943847Y-126065163D01*
X155372419Y-125446115D02*
X154372419Y-125446115D01*
X154372419Y-125446115D02*
X155372419Y-124874687D01*
X155372419Y-124874687D02*
X154372419Y-124874687D01*
X155372419Y-124398496D02*
X154372419Y-124398496D01*
X154372419Y-124398496D02*
X154372419Y-124160401D01*
X154372419Y-124160401D02*
X154420038Y-124017544D01*
X154420038Y-124017544D02*
X154515276Y-123922306D01*
X154515276Y-123922306D02*
X154610514Y-123874687D01*
X154610514Y-123874687D02*
X154800990Y-123827068D01*
X154800990Y-123827068D02*
X154943847Y-123827068D01*
X154943847Y-123827068D02*
X155134323Y-123874687D01*
X155134323Y-123874687D02*
X155229561Y-123922306D01*
X155229561Y-123922306D02*
X155324800Y-124017544D01*
X155324800Y-124017544D02*
X155372419Y-124160401D01*
X155372419Y-124160401D02*
X155372419Y-124398496D01*
X149053884Y-93991466D02*
X149815789Y-93991466D01*
X151303884Y-95741466D02*
X152065789Y-95741466D01*
X151684836Y-96122419D02*
X151684836Y-95360514D01*
X155303884Y-88241466D02*
X156065789Y-88241466D01*
X155684836Y-88622419D02*
X155684836Y-87860514D01*
X154420038Y-122922306D02*
X154372419Y-123017544D01*
X154372419Y-123017544D02*
X154372419Y-123160401D01*
X154372419Y-123160401D02*
X154420038Y-123303258D01*
X154420038Y-123303258D02*
X154515276Y-123398496D01*
X154515276Y-123398496D02*
X154610514Y-123446115D01*
X154610514Y-123446115D02*
X154800990Y-123493734D01*
X154800990Y-123493734D02*
X154943847Y-123493734D01*
X154943847Y-123493734D02*
X155134323Y-123446115D01*
X155134323Y-123446115D02*
X155229561Y-123398496D01*
X155229561Y-123398496D02*
X155324800Y-123303258D01*
X155324800Y-123303258D02*
X155372419Y-123160401D01*
X155372419Y-123160401D02*
X155372419Y-123065163D01*
X155372419Y-123065163D02*
X155324800Y-122922306D01*
X155324800Y-122922306D02*
X155277180Y-122874687D01*
X155277180Y-122874687D02*
X154943847Y-122874687D01*
X154943847Y-122874687D02*
X154943847Y-123065163D01*
X155372419Y-122446115D02*
X154372419Y-122446115D01*
X154372419Y-122446115D02*
X155372419Y-121874687D01*
X155372419Y-121874687D02*
X154372419Y-121874687D01*
X155372419Y-121398496D02*
X154372419Y-121398496D01*
X154372419Y-121398496D02*
X154372419Y-121160401D01*
X154372419Y-121160401D02*
X154420038Y-121017544D01*
X154420038Y-121017544D02*
X154515276Y-120922306D01*
X154515276Y-120922306D02*
X154610514Y-120874687D01*
X154610514Y-120874687D02*
X154800990Y-120827068D01*
X154800990Y-120827068D02*
X154943847Y-120827068D01*
X154943847Y-120827068D02*
X155134323Y-120874687D01*
X155134323Y-120874687D02*
X155229561Y-120922306D01*
X155229561Y-120922306D02*
X155324800Y-121017544D01*
X155324800Y-121017544D02*
X155372419Y-121160401D01*
X155372419Y-121160401D02*
X155372419Y-121398496D01*
X154161027Y-119622419D02*
X154494360Y-120622419D01*
X154494360Y-120622419D02*
X154827693Y-119622419D01*
X155161027Y-120241466D02*
X155922932Y-120241466D01*
X155541979Y-120622419D02*
X155541979Y-119860514D01*
X153053884Y-109491466D02*
X153815789Y-109491466D01*
X149053884Y-109491466D02*
X149815789Y-109491466D01*
X154420038Y-128922306D02*
X154372419Y-129017544D01*
X154372419Y-129017544D02*
X154372419Y-129160401D01*
X154372419Y-129160401D02*
X154420038Y-129303258D01*
X154420038Y-129303258D02*
X154515276Y-129398496D01*
X154515276Y-129398496D02*
X154610514Y-129446115D01*
X154610514Y-129446115D02*
X154800990Y-129493734D01*
X154800990Y-129493734D02*
X154943847Y-129493734D01*
X154943847Y-129493734D02*
X155134323Y-129446115D01*
X155134323Y-129446115D02*
X155229561Y-129398496D01*
X155229561Y-129398496D02*
X155324800Y-129303258D01*
X155324800Y-129303258D02*
X155372419Y-129160401D01*
X155372419Y-129160401D02*
X155372419Y-129065163D01*
X155372419Y-129065163D02*
X155324800Y-128922306D01*
X155324800Y-128922306D02*
X155277180Y-128874687D01*
X155277180Y-128874687D02*
X154943847Y-128874687D01*
X154943847Y-128874687D02*
X154943847Y-129065163D01*
X155372419Y-128446115D02*
X154372419Y-128446115D01*
X154372419Y-128446115D02*
X155372419Y-127874687D01*
X155372419Y-127874687D02*
X154372419Y-127874687D01*
X155372419Y-127398496D02*
X154372419Y-127398496D01*
X154372419Y-127398496D02*
X154372419Y-127160401D01*
X154372419Y-127160401D02*
X154420038Y-127017544D01*
X154420038Y-127017544D02*
X154515276Y-126922306D01*
X154515276Y-126922306D02*
X154610514Y-126874687D01*
X154610514Y-126874687D02*
X154800990Y-126827068D01*
X154800990Y-126827068D02*
X154943847Y-126827068D01*
X154943847Y-126827068D02*
X155134323Y-126874687D01*
X155134323Y-126874687D02*
X155229561Y-126922306D01*
X155229561Y-126922306D02*
X155324800Y-127017544D01*
X155324800Y-127017544D02*
X155372419Y-127160401D01*
X155372419Y-127160401D02*
X155372419Y-127398496D01*
X152803884Y-81241466D02*
X153565789Y-81241466D01*
D11*
X151440476Y-130224819D02*
X151440476Y-130939104D01*
X151440476Y-130939104D02*
X151392857Y-131081961D01*
X151392857Y-131081961D02*
X151297619Y-131177200D01*
X151297619Y-131177200D02*
X151154762Y-131224819D01*
X151154762Y-131224819D02*
X151059524Y-131224819D01*
X152440476Y-131224819D02*
X151869048Y-131224819D01*
X152154762Y-131224819D02*
X152154762Y-130224819D01*
X152154762Y-130224819D02*
X152059524Y-130367676D01*
X152059524Y-130367676D02*
X151964286Y-130462914D01*
X151964286Y-130462914D02*
X151869048Y-130510533D01*
X153059524Y-130224819D02*
X153154762Y-130224819D01*
X153154762Y-130224819D02*
X153250000Y-130272438D01*
X153250000Y-130272438D02*
X153297619Y-130320057D01*
X153297619Y-130320057D02*
X153345238Y-130415295D01*
X153345238Y-130415295D02*
X153392857Y-130605771D01*
X153392857Y-130605771D02*
X153392857Y-130843866D01*
X153392857Y-130843866D02*
X153345238Y-131034342D01*
X153345238Y-131034342D02*
X153297619Y-131129580D01*
X153297619Y-131129580D02*
X153250000Y-131177200D01*
X153250000Y-131177200D02*
X153154762Y-131224819D01*
X153154762Y-131224819D02*
X153059524Y-131224819D01*
X153059524Y-131224819D02*
X152964286Y-131177200D01*
X152964286Y-131177200D02*
X152916667Y-131129580D01*
X152916667Y-131129580D02*
X152869048Y-131034342D01*
X152869048Y-131034342D02*
X152821429Y-130843866D01*
X152821429Y-130843866D02*
X152821429Y-130605771D01*
X152821429Y-130605771D02*
X152869048Y-130415295D01*
X152869048Y-130415295D02*
X152916667Y-130320057D01*
X152916667Y-130320057D02*
X152964286Y-130272438D01*
X152964286Y-130272438D02*
X153059524Y-130224819D01*
X150166666Y-94084819D02*
X150166666Y-94799104D01*
X150166666Y-94799104D02*
X150119047Y-94941961D01*
X150119047Y-94941961D02*
X150023809Y-95037200D01*
X150023809Y-95037200D02*
X149880952Y-95084819D01*
X149880952Y-95084819D02*
X149785714Y-95084819D01*
X151071428Y-94084819D02*
X150880952Y-94084819D01*
X150880952Y-94084819D02*
X150785714Y-94132438D01*
X150785714Y-94132438D02*
X150738095Y-94180057D01*
X150738095Y-94180057D02*
X150642857Y-94322914D01*
X150642857Y-94322914D02*
X150595238Y-94513390D01*
X150595238Y-94513390D02*
X150595238Y-94894342D01*
X150595238Y-94894342D02*
X150642857Y-94989580D01*
X150642857Y-94989580D02*
X150690476Y-95037200D01*
X150690476Y-95037200D02*
X150785714Y-95084819D01*
X150785714Y-95084819D02*
X150976190Y-95084819D01*
X150976190Y-95084819D02*
X151071428Y-95037200D01*
X151071428Y-95037200D02*
X151119047Y-94989580D01*
X151119047Y-94989580D02*
X151166666Y-94894342D01*
X151166666Y-94894342D02*
X151166666Y-94656247D01*
X151166666Y-94656247D02*
X151119047Y-94561009D01*
X151119047Y-94561009D02*
X151071428Y-94513390D01*
X151071428Y-94513390D02*
X150976190Y-94465771D01*
X150976190Y-94465771D02*
X150785714Y-94465771D01*
X150785714Y-94465771D02*
X150690476Y-94513390D01*
X150690476Y-94513390D02*
X150642857Y-94561009D01*
X150642857Y-94561009D02*
X150595238Y-94656247D01*
D10*
X125426095Y-52551419D02*
X125426095Y-53360942D01*
X125426095Y-53360942D02*
X125473714Y-53456180D01*
X125473714Y-53456180D02*
X125521333Y-53503800D01*
X125521333Y-53503800D02*
X125616571Y-53551419D01*
X125616571Y-53551419D02*
X125807047Y-53551419D01*
X125807047Y-53551419D02*
X125902285Y-53503800D01*
X125902285Y-53503800D02*
X125949904Y-53456180D01*
X125949904Y-53456180D02*
X125997523Y-53360942D01*
X125997523Y-53360942D02*
X125997523Y-52551419D01*
X126997523Y-53551419D02*
X126426095Y-53551419D01*
X126711809Y-53551419D02*
X126711809Y-52551419D01*
X126711809Y-52551419D02*
X126616571Y-52694276D01*
X126616571Y-52694276D02*
X126521333Y-52789514D01*
X126521333Y-52789514D02*
X126426095Y-52837133D01*
D11*
X154166666Y-86584819D02*
X154166666Y-87299104D01*
X154166666Y-87299104D02*
X154119047Y-87441961D01*
X154119047Y-87441961D02*
X154023809Y-87537200D01*
X154023809Y-87537200D02*
X153880952Y-87584819D01*
X153880952Y-87584819D02*
X153785714Y-87584819D01*
X155119047Y-86584819D02*
X154642857Y-86584819D01*
X154642857Y-86584819D02*
X154595238Y-87061009D01*
X154595238Y-87061009D02*
X154642857Y-87013390D01*
X154642857Y-87013390D02*
X154738095Y-86965771D01*
X154738095Y-86965771D02*
X154976190Y-86965771D01*
X154976190Y-86965771D02*
X155071428Y-87013390D01*
X155071428Y-87013390D02*
X155119047Y-87061009D01*
X155119047Y-87061009D02*
X155166666Y-87156247D01*
X155166666Y-87156247D02*
X155166666Y-87394342D01*
X155166666Y-87394342D02*
X155119047Y-87489580D01*
X155119047Y-87489580D02*
X155071428Y-87537200D01*
X155071428Y-87537200D02*
X154976190Y-87584819D01*
X154976190Y-87584819D02*
X154738095Y-87584819D01*
X154738095Y-87584819D02*
X154642857Y-87537200D01*
X154642857Y-87537200D02*
X154595238Y-87489580D01*
X154166666Y-102124819D02*
X154166666Y-102839104D01*
X154166666Y-102839104D02*
X154119047Y-102981961D01*
X154119047Y-102981961D02*
X154023809Y-103077200D01*
X154023809Y-103077200D02*
X153880952Y-103124819D01*
X153880952Y-103124819D02*
X153785714Y-103124819D01*
X154690476Y-103124819D02*
X154880952Y-103124819D01*
X154880952Y-103124819D02*
X154976190Y-103077200D01*
X154976190Y-103077200D02*
X155023809Y-103029580D01*
X155023809Y-103029580D02*
X155119047Y-102886723D01*
X155119047Y-102886723D02*
X155166666Y-102696247D01*
X155166666Y-102696247D02*
X155166666Y-102315295D01*
X155166666Y-102315295D02*
X155119047Y-102220057D01*
X155119047Y-102220057D02*
X155071428Y-102172438D01*
X155071428Y-102172438D02*
X154976190Y-102124819D01*
X154976190Y-102124819D02*
X154785714Y-102124819D01*
X154785714Y-102124819D02*
X154690476Y-102172438D01*
X154690476Y-102172438D02*
X154642857Y-102220057D01*
X154642857Y-102220057D02*
X154595238Y-102315295D01*
X154595238Y-102315295D02*
X154595238Y-102553390D01*
X154595238Y-102553390D02*
X154642857Y-102648628D01*
X154642857Y-102648628D02*
X154690476Y-102696247D01*
X154690476Y-102696247D02*
X154785714Y-102743866D01*
X154785714Y-102743866D02*
X154976190Y-102743866D01*
X154976190Y-102743866D02*
X155071428Y-102696247D01*
X155071428Y-102696247D02*
X155119047Y-102648628D01*
X155119047Y-102648628D02*
X155166666Y-102553390D01*
D10*
X125426095Y-75241419D02*
X125426095Y-76050942D01*
X125426095Y-76050942D02*
X125473714Y-76146180D01*
X125473714Y-76146180D02*
X125521333Y-76193800D01*
X125521333Y-76193800D02*
X125616571Y-76241419D01*
X125616571Y-76241419D02*
X125807047Y-76241419D01*
X125807047Y-76241419D02*
X125902285Y-76193800D01*
X125902285Y-76193800D02*
X125949904Y-76146180D01*
X125949904Y-76146180D02*
X125997523Y-76050942D01*
X125997523Y-76050942D02*
X125997523Y-75241419D01*
X126426095Y-75336657D02*
X126473714Y-75289038D01*
X126473714Y-75289038D02*
X126568952Y-75241419D01*
X126568952Y-75241419D02*
X126807047Y-75241419D01*
X126807047Y-75241419D02*
X126902285Y-75289038D01*
X126902285Y-75289038D02*
X126949904Y-75336657D01*
X126949904Y-75336657D02*
X126997523Y-75431895D01*
X126997523Y-75431895D02*
X126997523Y-75527133D01*
X126997523Y-75527133D02*
X126949904Y-75669990D01*
X126949904Y-75669990D02*
X126378476Y-76241419D01*
X126378476Y-76241419D02*
X126997523Y-76241419D01*
X150666666Y-46457419D02*
X150666666Y-47171704D01*
X150666666Y-47171704D02*
X150619047Y-47314561D01*
X150619047Y-47314561D02*
X150523809Y-47409800D01*
X150523809Y-47409800D02*
X150380952Y-47457419D01*
X150380952Y-47457419D02*
X150285714Y-47457419D01*
X151095238Y-46552657D02*
X151142857Y-46505038D01*
X151142857Y-46505038D02*
X151238095Y-46457419D01*
X151238095Y-46457419D02*
X151476190Y-46457419D01*
X151476190Y-46457419D02*
X151571428Y-46505038D01*
X151571428Y-46505038D02*
X151619047Y-46552657D01*
X151619047Y-46552657D02*
X151666666Y-46647895D01*
X151666666Y-46647895D02*
X151666666Y-46743133D01*
X151666666Y-46743133D02*
X151619047Y-46885990D01*
X151619047Y-46885990D02*
X151047619Y-47457419D01*
X151047619Y-47457419D02*
X151666666Y-47457419D01*
X153286533Y-47857484D02*
X153286533Y-48619389D01*
X152905580Y-48238436D02*
X153667485Y-48238436D01*
X153438933Y-57407884D02*
X153438933Y-58169789D01*
X135166666Y-38457419D02*
X135166666Y-39171704D01*
X135166666Y-39171704D02*
X135119047Y-39314561D01*
X135119047Y-39314561D02*
X135023809Y-39409800D01*
X135023809Y-39409800D02*
X134880952Y-39457419D01*
X134880952Y-39457419D02*
X134785714Y-39457419D01*
X136166666Y-39457419D02*
X135595238Y-39457419D01*
X135880952Y-39457419D02*
X135880952Y-38457419D01*
X135880952Y-38457419D02*
X135785714Y-38600276D01*
X135785714Y-38600276D02*
X135690476Y-38695514D01*
X135690476Y-38695514D02*
X135595238Y-38743133D01*
X123726684Y-36713466D02*
X124488589Y-36713466D01*
X124107636Y-37094419D02*
X124107636Y-36332514D01*
X133277084Y-36561066D02*
X134038989Y-36561066D01*
X151166666Y-68957419D02*
X151166666Y-69671704D01*
X151166666Y-69671704D02*
X151119047Y-69814561D01*
X151119047Y-69814561D02*
X151023809Y-69909800D01*
X151023809Y-69909800D02*
X150880952Y-69957419D01*
X150880952Y-69957419D02*
X150785714Y-69957419D01*
X151547619Y-68957419D02*
X152166666Y-68957419D01*
X152166666Y-68957419D02*
X151833333Y-69338371D01*
X151833333Y-69338371D02*
X151976190Y-69338371D01*
X151976190Y-69338371D02*
X152071428Y-69385990D01*
X152071428Y-69385990D02*
X152119047Y-69433609D01*
X152119047Y-69433609D02*
X152166666Y-69528847D01*
X152166666Y-69528847D02*
X152166666Y-69766942D01*
X152166666Y-69766942D02*
X152119047Y-69862180D01*
X152119047Y-69862180D02*
X152071428Y-69909800D01*
X152071428Y-69909800D02*
X151976190Y-69957419D01*
X151976190Y-69957419D02*
X151690476Y-69957419D01*
X151690476Y-69957419D02*
X151595238Y-69909800D01*
X151595238Y-69909800D02*
X151547619Y-69862180D01*
X153438933Y-79907884D02*
X153438933Y-80669789D01*
X153286533Y-70357484D02*
X153286533Y-71119389D01*
X152905580Y-70738436D02*
X153667485Y-70738436D01*
D11*
X150166666Y-102124819D02*
X150166666Y-102839104D01*
X150166666Y-102839104D02*
X150119047Y-102981961D01*
X150119047Y-102981961D02*
X150023809Y-103077200D01*
X150023809Y-103077200D02*
X149880952Y-103124819D01*
X149880952Y-103124819D02*
X149785714Y-103124819D01*
X150785714Y-102553390D02*
X150690476Y-102505771D01*
X150690476Y-102505771D02*
X150642857Y-102458152D01*
X150642857Y-102458152D02*
X150595238Y-102362914D01*
X150595238Y-102362914D02*
X150595238Y-102315295D01*
X150595238Y-102315295D02*
X150642857Y-102220057D01*
X150642857Y-102220057D02*
X150690476Y-102172438D01*
X150690476Y-102172438D02*
X150785714Y-102124819D01*
X150785714Y-102124819D02*
X150976190Y-102124819D01*
X150976190Y-102124819D02*
X151071428Y-102172438D01*
X151071428Y-102172438D02*
X151119047Y-102220057D01*
X151119047Y-102220057D02*
X151166666Y-102315295D01*
X151166666Y-102315295D02*
X151166666Y-102362914D01*
X151166666Y-102362914D02*
X151119047Y-102458152D01*
X151119047Y-102458152D02*
X151071428Y-102505771D01*
X151071428Y-102505771D02*
X150976190Y-102553390D01*
X150976190Y-102553390D02*
X150785714Y-102553390D01*
X150785714Y-102553390D02*
X150690476Y-102601009D01*
X150690476Y-102601009D02*
X150642857Y-102648628D01*
X150642857Y-102648628D02*
X150595238Y-102743866D01*
X150595238Y-102743866D02*
X150595238Y-102934342D01*
X150595238Y-102934342D02*
X150642857Y-103029580D01*
X150642857Y-103029580D02*
X150690476Y-103077200D01*
X150690476Y-103077200D02*
X150785714Y-103124819D01*
X150785714Y-103124819D02*
X150976190Y-103124819D01*
X150976190Y-103124819D02*
X151071428Y-103077200D01*
X151071428Y-103077200D02*
X151119047Y-103029580D01*
X151119047Y-103029580D02*
X151166666Y-102934342D01*
X151166666Y-102934342D02*
X151166666Y-102743866D01*
X151166666Y-102743866D02*
X151119047Y-102648628D01*
X151119047Y-102648628D02*
X151071428Y-102601009D01*
X151071428Y-102601009D02*
X150976190Y-102553390D01*
D10*
X125426095Y-97931419D02*
X125426095Y-98740942D01*
X125426095Y-98740942D02*
X125473714Y-98836180D01*
X125473714Y-98836180D02*
X125521333Y-98883800D01*
X125521333Y-98883800D02*
X125616571Y-98931419D01*
X125616571Y-98931419D02*
X125807047Y-98931419D01*
X125807047Y-98931419D02*
X125902285Y-98883800D01*
X125902285Y-98883800D02*
X125949904Y-98836180D01*
X125949904Y-98836180D02*
X125997523Y-98740942D01*
X125997523Y-98740942D02*
X125997523Y-97931419D01*
X126378476Y-97931419D02*
X126997523Y-97931419D01*
X126997523Y-97931419D02*
X126664190Y-98312371D01*
X126664190Y-98312371D02*
X126807047Y-98312371D01*
X126807047Y-98312371D02*
X126902285Y-98359990D01*
X126902285Y-98359990D02*
X126949904Y-98407609D01*
X126949904Y-98407609D02*
X126997523Y-98502847D01*
X126997523Y-98502847D02*
X126997523Y-98740942D01*
X126997523Y-98740942D02*
X126949904Y-98836180D01*
X126949904Y-98836180D02*
X126902285Y-98883800D01*
X126902285Y-98883800D02*
X126807047Y-98931419D01*
X126807047Y-98931419D02*
X126521333Y-98931419D01*
X126521333Y-98931419D02*
X126426095Y-98883800D01*
X126426095Y-98883800D02*
X126378476Y-98836180D01*
X125426095Y-120621419D02*
X125426095Y-121430942D01*
X125426095Y-121430942D02*
X125473714Y-121526180D01*
X125473714Y-121526180D02*
X125521333Y-121573800D01*
X125521333Y-121573800D02*
X125616571Y-121621419D01*
X125616571Y-121621419D02*
X125807047Y-121621419D01*
X125807047Y-121621419D02*
X125902285Y-121573800D01*
X125902285Y-121573800D02*
X125949904Y-121526180D01*
X125949904Y-121526180D02*
X125997523Y-121430942D01*
X125997523Y-121430942D02*
X125997523Y-120621419D01*
X126902285Y-120954752D02*
X126902285Y-121621419D01*
X126664190Y-120573800D02*
X126426095Y-121288085D01*
X126426095Y-121288085D02*
X127045142Y-121288085D01*
D11*
X154166666Y-94124819D02*
X154166666Y-94839104D01*
X154166666Y-94839104D02*
X154119047Y-94981961D01*
X154119047Y-94981961D02*
X154023809Y-95077200D01*
X154023809Y-95077200D02*
X153880952Y-95124819D01*
X153880952Y-95124819D02*
X153785714Y-95124819D01*
X154547619Y-94124819D02*
X155214285Y-94124819D01*
X155214285Y-94124819D02*
X154785714Y-95124819D01*
X150166666Y-86584819D02*
X150166666Y-87299104D01*
X150166666Y-87299104D02*
X150119047Y-87441961D01*
X150119047Y-87441961D02*
X150023809Y-87537200D01*
X150023809Y-87537200D02*
X149880952Y-87584819D01*
X149880952Y-87584819D02*
X149785714Y-87584819D01*
X151071428Y-86918152D02*
X151071428Y-87584819D01*
X150833333Y-86537200D02*
X150595238Y-87251485D01*
X150595238Y-87251485D02*
X151214285Y-87251485D01*
D12*
X153580000Y-126730000D02*
X153580000Y-113970000D01*
X153580000Y-126730000D02*
X150920000Y-126730000D01*
X153580000Y-113970000D02*
X150920000Y-113970000D01*
X152250000Y-129330000D02*
X150920000Y-129330000D01*
X150920000Y-129330000D02*
X150920000Y-128000000D01*
X150920000Y-126730000D02*
X150920000Y-113970000D01*
X149170000Y-95630000D02*
X150500000Y-95630000D01*
X149170000Y-96960000D02*
X149170000Y-95630000D01*
X149170000Y-98230000D02*
X149170000Y-100830000D01*
X149170000Y-98230000D02*
X151830000Y-98230000D01*
X149170000Y-100830000D02*
X151830000Y-100830000D01*
X151830000Y-98230000D02*
X151830000Y-100830000D01*
D10*
X104598000Y-42299000D02*
X148032000Y-42299000D01*
X148032000Y-63889000D01*
X104598000Y-63889000D01*
X104598000Y-42299000D01*
D12*
X153170000Y-88130000D02*
X154500000Y-88130000D01*
X153170000Y-89460000D02*
X153170000Y-88130000D01*
X153170000Y-90730000D02*
X153170000Y-93330000D01*
X153170000Y-90730000D02*
X155830000Y-90730000D01*
X153170000Y-93330000D02*
X155830000Y-93330000D01*
X155830000Y-90730000D02*
X155830000Y-93330000D01*
X153170000Y-103670000D02*
X154500000Y-103670000D01*
X153170000Y-105000000D02*
X153170000Y-103670000D01*
X153170000Y-106270000D02*
X153170000Y-108870000D01*
X153170000Y-106270000D02*
X155830000Y-106270000D01*
X153170000Y-108870000D02*
X155830000Y-108870000D01*
X155830000Y-106270000D02*
X155830000Y-108870000D01*
D10*
X104598000Y-64989000D02*
X148032000Y-64989000D01*
X148032000Y-86579000D01*
X104598000Y-86579000D01*
X104598000Y-64989000D01*
X153819400Y-47731400D02*
X148333000Y-47731400D01*
X148333000Y-58348600D01*
X153819400Y-58348600D01*
X153819400Y-47731400D01*
X123600600Y-36180600D02*
X134217800Y-36180600D01*
X134217800Y-41667000D01*
X123600600Y-41667000D01*
X123600600Y-36180600D01*
X153819400Y-70231400D02*
X148333000Y-70231400D01*
X148333000Y-80848600D01*
X153819400Y-80848600D01*
X153819400Y-70231400D01*
D12*
X149170000Y-103670000D02*
X150500000Y-103670000D01*
X149170000Y-105000000D02*
X149170000Y-103670000D01*
X149170000Y-106270000D02*
X149170000Y-108870000D01*
X149170000Y-106270000D02*
X151830000Y-106270000D01*
X149170000Y-108870000D02*
X151830000Y-108870000D01*
X151830000Y-106270000D02*
X151830000Y-108870000D01*
D10*
X104598000Y-87679000D02*
X148032000Y-87679000D01*
X148032000Y-109269000D01*
X104598000Y-109269000D01*
X104598000Y-87679000D01*
X104598000Y-110369000D02*
X148032000Y-110369000D01*
X148032000Y-131959000D01*
X104598000Y-131959000D01*
X104598000Y-110369000D01*
D13*
G36*
X118907142Y-40674999D02*
G01*
X118907142Y-40801785D01*
X118889447Y-40801785D01*
X118871752Y-40801785D01*
X118869830Y-40788392D01*
X118861572Y-40743982D01*
X118850334Y-40704516D01*
X118836309Y-40670484D01*
X118819689Y-40642376D01*
X118805929Y-40625779D01*
X118790135Y-40611553D01*
X118773144Y-40600697D01*
X118753808Y-40592858D01*
X118730979Y-40587685D01*
X118703508Y-40584826D01*
X118670249Y-40583928D01*
X118669467Y-40583928D01*
X118621428Y-40583928D01*
X118621428Y-40942857D01*
X118621428Y-41301785D01*
X118682142Y-41301785D01*
X118742857Y-41301785D01*
X118742857Y-41316071D01*
X118742857Y-41330357D01*
X118558928Y-41330357D01*
X118375000Y-41330357D01*
X118375000Y-41316071D01*
X118375000Y-41301785D01*
X118435714Y-41301785D01*
X118496428Y-41301785D01*
X118496428Y-40942496D01*
X118496428Y-40583208D01*
X118436524Y-40584461D01*
X118414482Y-40584959D01*
X118398168Y-40585539D01*
X118386165Y-40586421D01*
X118377059Y-40587824D01*
X118369435Y-40589968D01*
X118361878Y-40593073D01*
X118352974Y-40597358D01*
X118352749Y-40597469D01*
X118327317Y-40613896D01*
X118304753Y-40636466D01*
X118285346Y-40664660D01*
X118269386Y-40697961D01*
X118257163Y-40735848D01*
X118248967Y-40777805D01*
X118248053Y-40784821D01*
X118245990Y-40801785D01*
X118228352Y-40801785D01*
X118210714Y-40801785D01*
X118210714Y-40674999D01*
X118210714Y-40548214D01*
X118558928Y-40548214D01*
X118907142Y-40548214D01*
X118907142Y-40674999D01*
G37*
G36*
X119047966Y-37682373D02*
G01*
X119115876Y-37690697D01*
X119183114Y-37705619D01*
X119249202Y-37727221D01*
X119308928Y-37753238D01*
X119358804Y-37779755D01*
X119403771Y-37808194D01*
X119445725Y-37839940D01*
X119486563Y-37876375D01*
X119510780Y-37900505D01*
X119555577Y-37950676D01*
X119594032Y-38002447D01*
X119626887Y-38057028D01*
X119654883Y-38115627D01*
X119674864Y-38167898D01*
X119694325Y-38235116D01*
X119706949Y-38303514D01*
X119712828Y-38372551D01*
X119712056Y-38441682D01*
X119704728Y-38510364D01*
X119690937Y-38578056D01*
X119670776Y-38644214D01*
X119644340Y-38708294D01*
X119611722Y-38769755D01*
X119573015Y-38828052D01*
X119557361Y-38848472D01*
X119540890Y-38867885D01*
X119520667Y-38889757D01*
X119498411Y-38912379D01*
X119475842Y-38934038D01*
X119454680Y-38953023D01*
X119441071Y-38964238D01*
X119382231Y-39005838D01*
X119320241Y-39041184D01*
X119255549Y-39070148D01*
X119188602Y-39092598D01*
X119119849Y-39108408D01*
X119049738Y-39117446D01*
X118978717Y-39119584D01*
X118916328Y-39115708D01*
X118847883Y-39104949D01*
X118780758Y-39087409D01*
X118715544Y-39063414D01*
X118652834Y-39033291D01*
X118593220Y-38997364D01*
X118537295Y-38955959D01*
X118485649Y-38909402D01*
X118438876Y-38858018D01*
X118431906Y-38849397D01*
X118390572Y-38791891D01*
X118355592Y-38731656D01*
X118326942Y-38669154D01*
X118304596Y-38604846D01*
X118288527Y-38539194D01*
X118278710Y-38472659D01*
X118275118Y-38405702D01*
X118277726Y-38338785D01*
X118286508Y-38272368D01*
X118301437Y-38206915D01*
X118322488Y-38142885D01*
X118349635Y-38080741D01*
X118382852Y-38020943D01*
X118422113Y-37963954D01*
X118467392Y-37910234D01*
X118485793Y-37891150D01*
X118538138Y-37843702D01*
X118594132Y-37802128D01*
X118653297Y-37766510D01*
X118715151Y-37736928D01*
X118779215Y-37713463D01*
X118845009Y-37696194D01*
X118912052Y-37685203D01*
X118979864Y-37680569D01*
X119047966Y-37682373D01*
G37*
G36*
X118146428Y-40562499D02*
G01*
X118146428Y-40576785D01*
X118098214Y-40576785D01*
X118050000Y-40576785D01*
X118050000Y-40958546D01*
X118050006Y-41019507D01*
X118050014Y-41073719D01*
X118050006Y-41121577D01*
X118049964Y-41163474D01*
X118049871Y-41199803D01*
X118049709Y-41230960D01*
X118049460Y-41257339D01*
X118049107Y-41279332D01*
X118048632Y-41297335D01*
X118048018Y-41311741D01*
X118047247Y-41322944D01*
X118046301Y-41331339D01*
X118045162Y-41337318D01*
X118043814Y-41341277D01*
X118042238Y-41343609D01*
X118040417Y-41344709D01*
X118038334Y-41344970D01*
X118035970Y-41344786D01*
X118033308Y-41344551D01*
X118032743Y-41344533D01*
X118029761Y-41341569D01*
X118022857Y-41332779D01*
X118012100Y-41318261D01*
X117997557Y-41298114D01*
X117979299Y-41272434D01*
X117957394Y-41241320D01*
X117931910Y-41204870D01*
X117902917Y-41163181D01*
X117870484Y-41116352D01*
X117834678Y-41064481D01*
X117795570Y-41007665D01*
X117773214Y-40975126D01*
X117519642Y-40605829D01*
X117518573Y-40927914D01*
X117518439Y-40975905D01*
X117518360Y-41022306D01*
X117518334Y-41066557D01*
X117518359Y-41108101D01*
X117518433Y-41146377D01*
X117518553Y-41180827D01*
X117518719Y-41210893D01*
X117518927Y-41236015D01*
X117519177Y-41255635D01*
X117519466Y-41269193D01*
X117519770Y-41275892D01*
X117522037Y-41301785D01*
X117580661Y-41301785D01*
X117639285Y-41301785D01*
X117639285Y-41316071D01*
X117639285Y-41330357D01*
X117508928Y-41330357D01*
X117378571Y-41330357D01*
X117378571Y-41316071D01*
X117378571Y-41301785D01*
X117430357Y-41301785D01*
X117482142Y-41301785D01*
X117482142Y-40939285D01*
X117482142Y-40576785D01*
X117430357Y-40576785D01*
X117378571Y-40576785D01*
X117378571Y-40562499D01*
X117378571Y-40548214D01*
X117506250Y-40548366D01*
X117633928Y-40548519D01*
X117821300Y-40821581D01*
X117848452Y-40861135D01*
X117874446Y-40898970D01*
X117898998Y-40934677D01*
X117921825Y-40967846D01*
X117942646Y-40998066D01*
X117961177Y-41024929D01*
X117977135Y-41048024D01*
X117990239Y-41066943D01*
X118000205Y-41081275D01*
X118006752Y-41090611D01*
X118009595Y-41094540D01*
X118009693Y-41094642D01*
X118009860Y-41091164D01*
X118010018Y-41081105D01*
X118010165Y-41065026D01*
X118010300Y-41043489D01*
X118010420Y-41017056D01*
X118010522Y-40986287D01*
X118010605Y-40951744D01*
X118010666Y-40913990D01*
X118010703Y-40873585D01*
X118010714Y-40835714D01*
X118010714Y-40576785D01*
X117953571Y-40576785D01*
X117896428Y-40576785D01*
X117896428Y-40562499D01*
X117896428Y-40548214D01*
X118021428Y-40548214D01*
X118146428Y-40548214D01*
X118146428Y-40562499D01*
G37*
G36*
X119735714Y-40562499D02*
G01*
X119735714Y-40576785D01*
X119687500Y-40576785D01*
X119639285Y-40576785D01*
X119639285Y-40958546D01*
X119639292Y-41019511D01*
X119639300Y-41073728D01*
X119639292Y-41121590D01*
X119639250Y-41163490D01*
X119639156Y-41199823D01*
X119638994Y-41230983D01*
X119638745Y-41257364D01*
X119638392Y-41279359D01*
X119637917Y-41297363D01*
X119637302Y-41311769D01*
X119636530Y-41322971D01*
X119635584Y-41331364D01*
X119634445Y-41337340D01*
X119633097Y-41341295D01*
X119631521Y-41343621D01*
X119629700Y-41344714D01*
X119627616Y-41344966D01*
X119625251Y-41344771D01*
X119622589Y-41344524D01*
X119622029Y-41344504D01*
X119619055Y-41341536D01*
X119612165Y-41332751D01*
X119601434Y-41318254D01*
X119586937Y-41298153D01*
X119568748Y-41272552D01*
X119546942Y-41241559D01*
X119521594Y-41205281D01*
X119492777Y-41163822D01*
X119460568Y-41117291D01*
X119425041Y-41065793D01*
X119386269Y-41009434D01*
X119362500Y-40974815D01*
X119108928Y-40605265D01*
X119107830Y-40899061D01*
X119107687Y-40945790D01*
X119107607Y-40991580D01*
X119107590Y-41035764D01*
X119107631Y-41077677D01*
X119107728Y-41116652D01*
X119107880Y-41152026D01*
X119108084Y-41183131D01*
X119108336Y-41209303D01*
X119108636Y-41229875D01*
X119108980Y-41244183D01*
X119109098Y-41247321D01*
X119111466Y-41301785D01*
X119170018Y-41301785D01*
X119228571Y-41301785D01*
X119228571Y-41316071D01*
X119228571Y-41330357D01*
X119098214Y-41330357D01*
X118967857Y-41330357D01*
X118967857Y-41316071D01*
X118967857Y-41301785D01*
X119019642Y-41301785D01*
X119071428Y-41301785D01*
X119071428Y-40939285D01*
X119071428Y-40576785D01*
X119019642Y-40576785D01*
X118967857Y-40576785D01*
X118967857Y-40562499D01*
X118967857Y-40548214D01*
X119095535Y-40548329D01*
X119223214Y-40548445D01*
X119407142Y-40816554D01*
X119434134Y-40855894D01*
X119460027Y-40893624D01*
X119484529Y-40929317D01*
X119507348Y-40962547D01*
X119528190Y-40992891D01*
X119546764Y-41019921D01*
X119562778Y-41043213D01*
X119575938Y-41062340D01*
X119585953Y-41076878D01*
X119592530Y-41086401D01*
X119595377Y-41090484D01*
X119595422Y-41090545D01*
X119596277Y-41090345D01*
X119597022Y-41087017D01*
X119597663Y-41080170D01*
X119598207Y-41069413D01*
X119598661Y-41054357D01*
X119599031Y-41034611D01*
X119599326Y-41009785D01*
X119599551Y-40979489D01*
X119599713Y-40943332D01*
X119599820Y-40900925D01*
X119599877Y-40851876D01*
X119599886Y-40836607D01*
X119600000Y-40576785D01*
X119542857Y-40576785D01*
X119485714Y-40576785D01*
X119485714Y-40562499D01*
X119485714Y-40548214D01*
X119610714Y-40548214D01*
X119735714Y-40548214D01*
X119735714Y-40562499D01*
G37*
G36*
X120164285Y-40562499D02*
G01*
X120164285Y-40576785D01*
X120108928Y-40576785D01*
X120053571Y-40576785D01*
X120053633Y-40866964D01*
X120053653Y-40921689D01*
X120053705Y-40969767D01*
X120053813Y-41011692D01*
X120054001Y-41047958D01*
X120054294Y-41079061D01*
X120054714Y-41105496D01*
X120055287Y-41127757D01*
X120056037Y-41146339D01*
X120056988Y-41161738D01*
X120058163Y-41174447D01*
X120059588Y-41184962D01*
X120061285Y-41193778D01*
X120063280Y-41201390D01*
X120065597Y-41208292D01*
X120068259Y-41214980D01*
X120070906Y-41221079D01*
X120085130Y-41244489D01*
X120105415Y-41264262D01*
X120131606Y-41280282D01*
X120163551Y-41292435D01*
X120167857Y-41293654D01*
X120182506Y-41296402D01*
X120202648Y-41298433D01*
X120226669Y-41299747D01*
X120252957Y-41300344D01*
X120279897Y-41300225D01*
X120305876Y-41299389D01*
X120329280Y-41297837D01*
X120348496Y-41295568D01*
X120358256Y-41293639D01*
X120391963Y-41282681D01*
X120419586Y-41268282D01*
X120441395Y-41250259D01*
X120457659Y-41228433D01*
X120458801Y-41226385D01*
X120462441Y-41219701D01*
X120465637Y-41213555D01*
X120468419Y-41207457D01*
X120470818Y-41200915D01*
X120472865Y-41193440D01*
X120474591Y-41184542D01*
X120476028Y-41173730D01*
X120477207Y-41160515D01*
X120478157Y-41144405D01*
X120478911Y-41124910D01*
X120479500Y-41101540D01*
X120479954Y-41073806D01*
X120480304Y-41041216D01*
X120480582Y-41003281D01*
X120480819Y-40959509D01*
X120481045Y-40909412D01*
X120481205Y-40872321D01*
X120482486Y-40576785D01*
X120425171Y-40576785D01*
X120367857Y-40576785D01*
X120367857Y-40562499D01*
X120367857Y-40548214D01*
X120492857Y-40548214D01*
X120617857Y-40548214D01*
X120617857Y-40562499D01*
X120617857Y-40576785D01*
X120570205Y-40576785D01*
X120522552Y-40576785D01*
X120520215Y-40638392D01*
X120519794Y-40653186D01*
X120519397Y-40674280D01*
X120519031Y-40700834D01*
X120518702Y-40732005D01*
X120518418Y-40766952D01*
X120518186Y-40804832D01*
X120518012Y-40844805D01*
X120517904Y-40886027D01*
X120517868Y-40925424D01*
X120517839Y-40975667D01*
X120517732Y-41019335D01*
X120517507Y-41056997D01*
X120517122Y-41089222D01*
X120516537Y-41116577D01*
X120515712Y-41139631D01*
X120514606Y-41158952D01*
X120513180Y-41175109D01*
X120511392Y-41188669D01*
X120509202Y-41200202D01*
X120506570Y-41210276D01*
X120503455Y-41219458D01*
X120499817Y-41228318D01*
X120495690Y-41237269D01*
X120479668Y-41263384D01*
X120458300Y-41285574D01*
X120431399Y-41303943D01*
X120398779Y-41318595D01*
X120360252Y-41329635D01*
X120316071Y-41337112D01*
X120295164Y-41338931D01*
X120269137Y-41340063D01*
X120239982Y-41340520D01*
X120209686Y-41340316D01*
X120180239Y-41339464D01*
X120153630Y-41337977D01*
X120132142Y-41335905D01*
X120088031Y-41328645D01*
X120050260Y-41318791D01*
X120018398Y-41306032D01*
X119992016Y-41290052D01*
X119970684Y-41270540D01*
X119953973Y-41247182D01*
X119941453Y-41219664D01*
X119933410Y-41191071D01*
X119932342Y-41185427D01*
X119931399Y-41178619D01*
X119930570Y-41170160D01*
X119929845Y-41159565D01*
X119929212Y-41146349D01*
X119928660Y-41130025D01*
X119928177Y-41110108D01*
X119927753Y-41086113D01*
X119927376Y-41057554D01*
X119927035Y-41023945D01*
X119926719Y-40984801D01*
X119926417Y-40939635D01*
X119926117Y-40887963D01*
X119926023Y-40870535D01*
X119924456Y-40576785D01*
X119876513Y-40576785D01*
X119828571Y-40576785D01*
X119828571Y-40562499D01*
X119828571Y-40548214D01*
X119996428Y-40548214D01*
X120164285Y-40548214D01*
X120164285Y-40562499D01*
G37*
G36*
X120019642Y-36665150D02*
G01*
X120074447Y-36676610D01*
X120124426Y-36689818D01*
X120171824Y-36705517D01*
X120218885Y-36724447D01*
X120266071Y-36746465D01*
X120335249Y-36784522D01*
X120399894Y-36828093D01*
X120460045Y-36877210D01*
X120515739Y-36931906D01*
X120567016Y-36992211D01*
X120578329Y-37007066D01*
X120622235Y-37071880D01*
X120660053Y-37140420D01*
X120691771Y-37212663D01*
X120717379Y-37288583D01*
X120736866Y-37368155D01*
X120740251Y-37385714D01*
X120748130Y-37428571D01*
X120749258Y-38382142D01*
X120749376Y-38491489D01*
X120749463Y-38593815D01*
X120749520Y-38689242D01*
X120749545Y-38777891D01*
X120749539Y-38859885D01*
X120749500Y-38935344D01*
X120749429Y-39004391D01*
X120749326Y-39067148D01*
X120749189Y-39123736D01*
X120749019Y-39174277D01*
X120748815Y-39218893D01*
X120748577Y-39257705D01*
X120748305Y-39290836D01*
X120747998Y-39318406D01*
X120747656Y-39340539D01*
X120747278Y-39357355D01*
X120746865Y-39368976D01*
X120746471Y-39374999D01*
X120735700Y-39447979D01*
X120718096Y-39520753D01*
X120693952Y-39592608D01*
X120663560Y-39662836D01*
X120627213Y-39730726D01*
X120585203Y-39795567D01*
X120558841Y-39830883D01*
X120542269Y-39850563D01*
X120521397Y-39873156D01*
X120497640Y-39897296D01*
X120472417Y-39921614D01*
X120447143Y-39944741D01*
X120423234Y-39965310D01*
X120403571Y-39980865D01*
X120342948Y-40022735D01*
X120280964Y-40058629D01*
X120216740Y-40088912D01*
X120149395Y-40113950D01*
X120078051Y-40134110D01*
X120001826Y-40149757D01*
X119994642Y-40150966D01*
X119990504Y-40151579D01*
X119985598Y-40152148D01*
X119979662Y-40152677D01*
X119972434Y-40153166D01*
X119963655Y-40153617D01*
X119953063Y-40154032D01*
X119940395Y-40154413D01*
X119925393Y-40154760D01*
X119907793Y-40155077D01*
X119887335Y-40155364D01*
X119863758Y-40155624D01*
X119836800Y-40155858D01*
X119806201Y-40156068D01*
X119771698Y-40156255D01*
X119733032Y-40156421D01*
X119689940Y-40156568D01*
X119642162Y-40156698D01*
X119589436Y-40156813D01*
X119531501Y-40156913D01*
X119468095Y-40157001D01*
X119398959Y-40157078D01*
X119323830Y-40157147D01*
X119242448Y-40157208D01*
X119154550Y-40157264D01*
X119059876Y-40157317D01*
X119019642Y-40157337D01*
X118938045Y-40157373D01*
X118858232Y-40157400D01*
X118780504Y-40157416D01*
X118705163Y-40157424D01*
X118632508Y-40157423D01*
X118562842Y-40157413D01*
X118496464Y-40157394D01*
X118433676Y-40157367D01*
X118374778Y-40157332D01*
X118320072Y-40157290D01*
X118269858Y-40157239D01*
X118224436Y-40157181D01*
X118184109Y-40157116D01*
X118149176Y-40157044D01*
X118119939Y-40156966D01*
X118096698Y-40156881D01*
X118079754Y-40156789D01*
X118069409Y-40156692D01*
X118066071Y-40156609D01*
X117989945Y-40147533D01*
X117917882Y-40133273D01*
X117848758Y-40113558D01*
X117781450Y-40088114D01*
X117778765Y-40086966D01*
X117708162Y-40052862D01*
X117641554Y-40012996D01*
X117579195Y-39967693D01*
X117521341Y-39917276D01*
X117468249Y-39862071D01*
X117420172Y-39802402D01*
X117377367Y-39738592D01*
X117340090Y-39670967D01*
X117308595Y-39599850D01*
X117283138Y-39525567D01*
X117263975Y-39448441D01*
X117260165Y-39428571D01*
X117251785Y-39382142D01*
X117251785Y-39280357D01*
X118125000Y-39280357D01*
X119000000Y-39280357D01*
X119875000Y-39280357D01*
X119875000Y-38405357D01*
X119875000Y-37530357D01*
X119000000Y-37530357D01*
X118125000Y-37530357D01*
X118125000Y-38405357D01*
X118125000Y-39280357D01*
X117251785Y-39280357D01*
X117251785Y-38407142D01*
X117251785Y-38405357D01*
X117251785Y-37432142D01*
X117259702Y-37387499D01*
X117277256Y-37308057D01*
X117301108Y-37231818D01*
X117331122Y-37158992D01*
X117367164Y-37089787D01*
X117409099Y-37024411D01*
X117456792Y-36963073D01*
X117510107Y-36905982D01*
X117568910Y-36853346D01*
X117633066Y-36805373D01*
X117639285Y-36801166D01*
X117703276Y-36762124D01*
X117770188Y-36728978D01*
X117840577Y-36701506D01*
X117915003Y-36679485D01*
X117980357Y-36665167D01*
X118023214Y-36657142D01*
X119000000Y-36657142D01*
X119976785Y-36657142D01*
X120019642Y-36665150D01*
G37*
D12*
X153170000Y-95670000D02*
X154500000Y-95670000D01*
X153170000Y-97000000D02*
X153170000Y-95670000D01*
X153170000Y-98270000D02*
X153170000Y-100870000D01*
X153170000Y-98270000D02*
X155830000Y-98270000D01*
X153170000Y-100870000D02*
X155830000Y-100870000D01*
X155830000Y-98270000D02*
X155830000Y-100870000D01*
X149170000Y-88130000D02*
X150500000Y-88130000D01*
X149170000Y-89460000D02*
X149170000Y-88130000D01*
X149170000Y-90730000D02*
X149170000Y-93330000D01*
X149170000Y-90730000D02*
X151830000Y-90730000D01*
X149170000Y-93330000D02*
X151830000Y-93330000D01*
X151830000Y-90730000D02*
X151830000Y-93330000D01*
%LPC*%
D14*
X152250000Y-115300000D03*
X152250000Y-117840000D03*
X152250000Y-120380000D03*
X152250000Y-122920000D03*
X152250000Y-125460000D03*
D15*
X152250000Y-128000000D03*
X150500000Y-96960000D03*
D14*
X150500000Y-99500000D03*
D16*
X106630000Y-44458000D03*
X106630000Y-61730000D03*
X146000000Y-44458000D03*
X146000000Y-61730000D03*
D15*
X154500000Y-89460000D03*
D14*
X154500000Y-92000000D03*
D15*
X154500000Y-105000000D03*
D14*
X154500000Y-107540000D03*
D16*
X106630000Y-67148000D03*
X106630000Y-84420000D03*
X146000000Y-67148000D03*
X146000000Y-84420000D03*
D17*
X151000000Y-50500000D03*
X151000000Y-55630800D03*
D18*
X126369200Y-39000000D03*
X131500000Y-39000000D03*
D17*
X151000000Y-73000000D03*
X151000000Y-78130800D03*
D15*
X150500000Y-105000000D03*
D14*
X150500000Y-107540000D03*
D16*
X106630000Y-89838000D03*
X106630000Y-107110000D03*
X146000000Y-89838000D03*
X146000000Y-107110000D03*
X106630000Y-112528000D03*
X106630000Y-129800000D03*
X146000000Y-112528000D03*
X146000000Y-129800000D03*
D15*
X154500000Y-97000000D03*
D14*
X154500000Y-99540000D03*
D15*
X150500000Y-89460000D03*
D14*
X150500000Y-92000000D03*
%LPD*%
M02*
